%TF.GenerationSoftware,KiCad,Pcbnew,(5.1.9)-1*%
%TF.CreationDate,2021-05-26T17:20:17+02:00*%
%TF.ProjectId,10_Audio_Facile,31305f41-7564-4696-9f5f-466163696c65,rev?*%
%TF.SameCoordinates,Original*%
%TF.FileFunction,Soldermask,Bot*%
%TF.FilePolarity,Negative*%
%FSLAX46Y46*%
G04 Gerber Fmt 4.6, Leading zero omitted, Abs format (unit mm)*
G04 Created by KiCad (PCBNEW (5.1.9)-1) date 2021-05-26 17:20:17*
%MOMM*%
%LPD*%
G01*
G04 APERTURE LIST*
%TA.AperFunction,Profile*%
%ADD10C,0.050000*%
%TD*%
%ADD11C,1.624000*%
G04 APERTURE END LIST*
D10*
X130810000Y-67310000D02*
X129540000Y-67310000D01*
X130810000Y-64770000D02*
X130810000Y-67310000D01*
X129540000Y-64770000D02*
X130810000Y-64770000D01*
X129540000Y-60960000D02*
X129540000Y-64770000D01*
X129540000Y-67310000D02*
X129540000Y-81280000D01*
X101600000Y-60960000D02*
X129540000Y-60960000D01*
X101600000Y-77470000D02*
X101600000Y-81280000D01*
X100330000Y-77470000D02*
X101600000Y-77470000D01*
X101600000Y-60960000D02*
X101600000Y-64770000D01*
X101600000Y-64770000D02*
X100330000Y-64770000D01*
X129540000Y-81280000D02*
X101600000Y-81280000D01*
X100330000Y-77470000D02*
X100330000Y-64770000D01*
D11*
%TO.C,J1*%
X101600000Y-68580000D03*
G36*
G01*
X105040000Y-67730000D02*
X105040000Y-69430000D01*
G75*
G02*
X104990000Y-69480000I-50000J0D01*
G01*
X103290000Y-69480000D01*
G75*
G02*
X103240000Y-69430000I0J50000D01*
G01*
X103240000Y-67730000D01*
G75*
G02*
X103290000Y-67680000I50000J0D01*
G01*
X104990000Y-67680000D01*
G75*
G02*
X105040000Y-67730000I0J-50000D01*
G01*
G37*
%TD*%
%TO.C,J2*%
G36*
G01*
X105040000Y-70270000D02*
X105040000Y-71970000D01*
G75*
G02*
X104990000Y-72020000I-50000J0D01*
G01*
X103290000Y-72020000D01*
G75*
G02*
X103240000Y-71970000I0J50000D01*
G01*
X103240000Y-70270000D01*
G75*
G02*
X103290000Y-70220000I50000J0D01*
G01*
X104990000Y-70220000D01*
G75*
G02*
X105040000Y-70270000I0J-50000D01*
G01*
G37*
X101600000Y-71120000D03*
%TD*%
%TO.C,J3*%
G36*
G01*
X105040000Y-72810000D02*
X105040000Y-74510000D01*
G75*
G02*
X104990000Y-74560000I-50000J0D01*
G01*
X103290000Y-74560000D01*
G75*
G02*
X103240000Y-74510000I0J50000D01*
G01*
X103240000Y-72810000D01*
G75*
G02*
X103290000Y-72760000I50000J0D01*
G01*
X104990000Y-72760000D01*
G75*
G02*
X105040000Y-72810000I0J-50000D01*
G01*
G37*
X101600000Y-73660000D03*
%TD*%
%TO.C,J4*%
X129540000Y-66040000D03*
G36*
G01*
X126100000Y-66890000D02*
X126100000Y-65190000D01*
G75*
G02*
X126150000Y-65140000I50000J0D01*
G01*
X127850000Y-65140000D01*
G75*
G02*
X127900000Y-65190000I0J-50000D01*
G01*
X127900000Y-66890000D01*
G75*
G02*
X127850000Y-66940000I-50000J0D01*
G01*
X126150000Y-66940000D01*
G75*
G02*
X126100000Y-66890000I0J50000D01*
G01*
G37*
%TD*%
%TO.C,J5*%
G36*
G01*
X105040000Y-65190000D02*
X105040000Y-66890000D01*
G75*
G02*
X104990000Y-66940000I-50000J0D01*
G01*
X103290000Y-66940000D01*
G75*
G02*
X103240000Y-66890000I0J50000D01*
G01*
X103240000Y-65190000D01*
G75*
G02*
X103290000Y-65140000I50000J0D01*
G01*
X104990000Y-65140000D01*
G75*
G02*
X105040000Y-65190000I0J-50000D01*
G01*
G37*
X101600000Y-66040000D03*
%TD*%
%TO.C,J6*%
X101600000Y-76200000D03*
G36*
G01*
X105040000Y-75350000D02*
X105040000Y-77050000D01*
G75*
G02*
X104990000Y-77100000I-50000J0D01*
G01*
X103290000Y-77100000D01*
G75*
G02*
X103240000Y-77050000I0J50000D01*
G01*
X103240000Y-75350000D01*
G75*
G02*
X103290000Y-75300000I50000J0D01*
G01*
X104990000Y-75300000D01*
G75*
G02*
X105040000Y-75350000I0J-50000D01*
G01*
G37*
%TD*%
M02*
