G04 #@! TF.GenerationSoftware,KiCad,Pcbnew,(6.0.8)*
G04 #@! TF.CreationDate,2023-05-27T16:58:20+02:00*
G04 #@! TF.ProjectId,10_Audio_Facile,31305f41-7564-4696-9f5f-466163696c65,rev?*
G04 #@! TF.SameCoordinates,Original*
G04 #@! TF.FileFunction,Copper,L1,Top*
G04 #@! TF.FilePolarity,Positive*
%FSLAX46Y46*%
G04 Gerber Fmt 4.6, Leading zero omitted, Abs format (unit mm)*
G04 Created by KiCad (PCBNEW (6.0.8)) date 2023-05-27 16:58:20*
%MOMM*%
%LPD*%
G01*
G04 APERTURE LIST*
G04 Aperture macros list*
%AMRoundRect*
0 Rectangle with rounded corners*
0 $1 Rounding radius*
0 $2 $3 $4 $5 $6 $7 $8 $9 X,Y pos of 4 corners*
0 Add a 4 corners polygon primitive as box body*
4,1,4,$2,$3,$4,$5,$6,$7,$8,$9,$2,$3,0*
0 Add four circle primitives for the rounded corners*
1,1,$1+$1,$2,$3*
1,1,$1+$1,$4,$5*
1,1,$1+$1,$6,$7*
1,1,$1+$1,$8,$9*
0 Add four rect primitives between the rounded corners*
20,1,$1+$1,$2,$3,$4,$5,0*
20,1,$1+$1,$4,$5,$6,$7,0*
20,1,$1+$1,$6,$7,$8,$9,0*
20,1,$1+$1,$8,$9,$2,$3,0*%
%AMFreePoly0*
4,1,19,2.294749,0.844703,2.473926,0.804652,2.640323,0.727060,2.786177,0.615546,2.904682,0.475314,2.990310,0.312906,3.039066,0.135899,3.048675,-0.047448,3.018688,-0.228582,2.950505,-0.399051,2.847308,-0.550902,2.713909,-0.677050,2.556534,-0.771611,2.382525,-0.830171,2.200000,-0.850000,-0.850000,-0.850000,-0.850000,0.850000,2.200000,0.850000,2.294749,0.844703,2.294749,0.844703,
$1*%
G04 Aperture macros list end*
G04 #@! TA.AperFunction,SMDPad,CuDef*
%ADD10RoundRect,0.250000X1.100000X-0.325000X1.100000X0.325000X-1.100000X0.325000X-1.100000X-0.325000X0*%
G04 #@! TD*
G04 #@! TA.AperFunction,SMDPad,CuDef*
%ADD11RoundRect,0.225000X0.250000X-0.225000X0.250000X0.225000X-0.250000X0.225000X-0.250000X-0.225000X0*%
G04 #@! TD*
G04 #@! TA.AperFunction,SMDPad,CuDef*
%ADD12RoundRect,0.225000X-0.225000X-0.250000X0.225000X-0.250000X0.225000X0.250000X-0.225000X0.250000X0*%
G04 #@! TD*
G04 #@! TA.AperFunction,SMDPad,CuDef*
%ADD13RoundRect,0.225000X0.225000X0.250000X-0.225000X0.250000X-0.225000X-0.250000X0.225000X-0.250000X0*%
G04 #@! TD*
G04 #@! TA.AperFunction,SMDPad,CuDef*
%ADD14RoundRect,0.218750X0.218750X0.256250X-0.218750X0.256250X-0.218750X-0.256250X0.218750X-0.256250X0*%
G04 #@! TD*
G04 #@! TA.AperFunction,SMDPad,CuDef*
%ADD15RoundRect,0.150000X0.675000X0.150000X-0.675000X0.150000X-0.675000X-0.150000X0.675000X-0.150000X0*%
G04 #@! TD*
G04 #@! TA.AperFunction,ComponentPad*
%ADD16FreePoly0,180.000000*%
G04 #@! TD*
G04 #@! TA.AperFunction,ComponentPad*
%ADD17C,1.524000*%
G04 #@! TD*
G04 #@! TA.AperFunction,ViaPad*
%ADD18C,1.000000*%
G04 #@! TD*
G04 #@! TA.AperFunction,Conductor*
%ADD19C,0.400000*%
G04 #@! TD*
G04 #@! TA.AperFunction,Conductor*
%ADD20C,0.500000*%
G04 #@! TD*
G04 APERTURE END LIST*
D10*
X107696000Y-72595000D03*
X107696000Y-69645000D03*
D11*
X110236000Y-71895000D03*
X110236000Y-70345000D03*
X111912400Y-71895000D03*
X111912400Y-70345000D03*
X113588800Y-71895000D03*
X113588800Y-70345000D03*
D12*
X111239000Y-66294000D03*
X112789000Y-66294000D03*
D13*
X118885000Y-64770000D03*
X117335000Y-64770000D03*
X118885000Y-66675000D03*
X117335000Y-66675000D03*
X112662000Y-76200000D03*
X111112000Y-76200000D03*
D14*
X112801500Y-67945000D03*
X111226500Y-67945000D03*
X112674500Y-74549000D03*
X111099500Y-74549000D03*
D15*
X120887400Y-73025000D03*
X120887400Y-71755000D03*
X120887400Y-70485000D03*
X120887400Y-69215000D03*
X115637400Y-69215000D03*
X115637400Y-70485000D03*
X115637400Y-71755000D03*
X115637400Y-73025000D03*
D16*
X104140000Y-68580000D03*
D17*
X101600000Y-68580000D03*
X101600000Y-73660000D03*
D16*
X104140000Y-73660000D03*
X104140000Y-71120000D03*
D17*
X101600000Y-71120000D03*
X101600000Y-63500000D03*
D16*
X104140000Y-63500000D03*
D17*
X101600000Y-60960000D03*
D16*
X104140000Y-60960000D03*
D17*
X101600000Y-76200000D03*
D16*
X104140000Y-76200000D03*
X104140000Y-66040000D03*
D17*
X101600000Y-66040000D03*
D18*
X108331000Y-74168000D03*
X110236000Y-73152000D03*
X106680000Y-74168000D03*
X117983000Y-68326000D03*
X117475000Y-70485000D03*
X121920000Y-66040000D03*
X116840000Y-62865000D03*
X111252000Y-64770000D03*
X106934000Y-67437000D03*
X113030000Y-73152000D03*
X121920000Y-63500000D03*
X114300000Y-76200000D03*
X111379000Y-60960000D03*
X117475000Y-73025000D03*
X121031000Y-67818000D03*
X106172000Y-62230000D03*
X114046000Y-66294000D03*
X118745000Y-76327000D03*
X113665000Y-60960000D03*
X106934000Y-64770000D03*
X108585000Y-67437000D03*
X119380000Y-62865000D03*
X109093000Y-60960000D03*
X115951000Y-60960000D03*
X109093000Y-64770000D03*
X115570000Y-67818000D03*
X120650000Y-60960000D03*
X120650000Y-74930000D03*
X116840000Y-74930000D03*
X118237000Y-60960000D03*
X119380000Y-70485000D03*
X120015000Y-64770000D03*
X119380000Y-73025000D03*
D19*
X121920000Y-66040000D02*
X121920000Y-63500000D01*
X114046000Y-66294000D02*
X115570000Y-67818000D01*
X117475000Y-70485000D02*
X117475000Y-68834000D01*
X117983000Y-68326000D02*
X117094000Y-68326000D01*
X114300000Y-76200000D02*
X116840000Y-76200000D01*
X113588800Y-71895000D02*
X113588800Y-73101200D01*
X120650000Y-74930000D02*
X120650000Y-76200000D01*
X117475000Y-73025000D02*
X117475000Y-74295000D01*
X119380000Y-62230000D02*
X120650000Y-60960000D01*
X112662000Y-76200000D02*
X114300000Y-76200000D01*
X111912400Y-71895000D02*
X111912400Y-73126600D01*
X112522000Y-64770000D02*
X111252000Y-64770000D01*
X110236000Y-73152000D02*
X113538000Y-73152000D01*
X115637400Y-71755000D02*
X114935000Y-71755000D01*
X114046000Y-66294000D02*
X112522000Y-64770000D01*
X118618000Y-76200000D02*
X118745000Y-76327000D01*
X116586000Y-67818000D02*
X115570000Y-67818000D01*
X107696000Y-72595000D02*
X107696000Y-73533000D01*
X121031000Y-66929000D02*
X121920000Y-66040000D01*
X117475000Y-71755000D02*
X117475000Y-73025000D01*
X113588800Y-73101200D02*
X113538000Y-73152000D01*
X120650000Y-76200000D02*
X120523000Y-76327000D01*
X106934000Y-67437000D02*
X108585000Y-67437000D01*
X110236000Y-71895000D02*
X110236000Y-73152000D01*
X106172000Y-73660000D02*
X106680000Y-74168000D01*
X117475000Y-71755000D02*
X117475000Y-68834000D01*
X108331000Y-74168000D02*
X109220000Y-74168000D01*
X116840000Y-76200000D02*
X118618000Y-76200000D01*
X104140000Y-73660000D02*
X106172000Y-73660000D01*
X117475000Y-74295000D02*
X116840000Y-74930000D01*
X112789000Y-66294000D02*
X114046000Y-66294000D01*
X114935000Y-71755000D02*
X113538000Y-73152000D01*
X121920000Y-63500000D02*
X121920000Y-62230000D01*
X116840000Y-62865000D02*
X119380000Y-62865000D01*
X121920000Y-62230000D02*
X120650000Y-60960000D01*
X109093000Y-60960000D02*
X120650000Y-60960000D01*
X108331000Y-74168000D02*
X106680000Y-74168000D01*
X119380000Y-62865000D02*
X119380000Y-62230000D01*
X117094000Y-68326000D02*
X116586000Y-67818000D01*
X120523000Y-76327000D02*
X118745000Y-76327000D01*
X116840000Y-74930000D02*
X116840000Y-76200000D01*
X109220000Y-74168000D02*
X110236000Y-73152000D01*
X117475000Y-68834000D02*
X117983000Y-68326000D01*
X107696000Y-73533000D02*
X108331000Y-74168000D01*
X121031000Y-67818000D02*
X121031000Y-66929000D01*
X106934000Y-64770000D02*
X111252000Y-64770000D01*
X115637400Y-71755000D02*
X117475000Y-71755000D01*
D20*
X111912400Y-69570600D02*
X112014000Y-69469000D01*
X107950000Y-68580000D02*
X109347000Y-68580000D01*
X113538000Y-69469000D02*
X113588800Y-69519800D01*
X107696000Y-69632500D02*
X107696000Y-68834000D01*
X110236000Y-69469000D02*
X112014000Y-69469000D01*
X110236000Y-70345000D02*
X110236000Y-69469000D01*
X110236000Y-69469000D02*
X109347000Y-68580000D01*
X107696000Y-68834000D02*
X107950000Y-68580000D01*
X111912400Y-70345000D02*
X111912400Y-69570600D01*
X113919000Y-69469000D02*
X113538000Y-69469000D01*
X112014000Y-69469000D02*
X113538000Y-69469000D01*
X115637400Y-70485000D02*
X114935000Y-70485000D01*
X114935000Y-70485000D02*
X113919000Y-69469000D01*
X113588800Y-69519800D02*
X113588800Y-70345000D01*
X104140000Y-68580000D02*
X107950000Y-68580000D01*
X110270000Y-67945000D02*
X109635000Y-67310000D01*
X111239000Y-66294000D02*
X109474000Y-66294000D01*
X109474000Y-66294000D02*
X109220000Y-66040000D01*
X111226500Y-67945000D02*
X110270000Y-67945000D01*
X109474000Y-66294000D02*
X109635000Y-66455000D01*
X104140000Y-66040000D02*
X109220000Y-66040000D01*
X109635000Y-66455000D02*
X109635000Y-67310000D01*
D19*
X120887400Y-70485000D02*
X119380000Y-70485000D01*
X118885000Y-64770000D02*
X120015000Y-64770000D01*
X120015000Y-69215000D02*
X119697500Y-68897500D01*
X120887400Y-69215000D02*
X120015000Y-69215000D01*
X119697500Y-66992500D02*
X119380000Y-66675000D01*
X119380000Y-66675000D02*
X118885000Y-66675000D01*
X119697500Y-68897500D02*
X119697500Y-66992500D01*
X107950000Y-62230000D02*
X106680000Y-60960000D01*
X113665000Y-62230000D02*
X107950000Y-62230000D01*
X117335000Y-64770000D02*
X116205000Y-64770000D01*
X106680000Y-60960000D02*
X104140000Y-60960000D01*
X116205000Y-64770000D02*
X113665000Y-62230000D01*
D20*
X109220000Y-76200000D02*
X111112000Y-76200000D01*
X111099500Y-74549000D02*
X110871000Y-74549000D01*
X110871000Y-74549000D02*
X109220000Y-76200000D01*
X104140000Y-76200000D02*
X109220000Y-76200000D01*
X113665000Y-67945000D02*
X112801500Y-67945000D01*
X115637400Y-69215000D02*
X114935000Y-69215000D01*
X114935000Y-69215000D02*
X113665000Y-67945000D01*
X112674500Y-74549000D02*
X113411000Y-74549000D01*
X114935000Y-73025000D02*
X115637400Y-73025000D01*
X113411000Y-74549000D02*
X114935000Y-73025000D01*
D19*
X120887400Y-73025000D02*
X119380000Y-73025000D01*
X116205000Y-66675000D02*
X113030000Y-63500000D01*
X113030000Y-63500000D02*
X112395000Y-63500000D01*
X104140000Y-63500000D02*
X112395000Y-63500000D01*
X117335000Y-66675000D02*
X116205000Y-66675000D01*
G04 #@! TA.AperFunction,Conductor*
G36*
X122623621Y-60218502D02*
G01*
X122670114Y-60272158D01*
X122681500Y-60324500D01*
X122681500Y-76835500D01*
X122661498Y-76903621D01*
X122607842Y-76950114D01*
X122555500Y-76961500D01*
X112109073Y-76961500D01*
X112040952Y-76941498D01*
X111994459Y-76887842D01*
X111984355Y-76817568D01*
X111999728Y-76775136D01*
X111999367Y-76774968D01*
X112001259Y-76770910D01*
X112001811Y-76769387D01*
X112002462Y-76768332D01*
X112002465Y-76768326D01*
X112006302Y-76762101D01*
X112060149Y-76599757D01*
X112070500Y-76498732D01*
X112070500Y-75901268D01*
X112059887Y-75798981D01*
X112005756Y-75636732D01*
X112008137Y-75635938D01*
X111999157Y-75577485D01*
X112028027Y-75512623D01*
X112087380Y-75473666D01*
X112163710Y-75474621D01*
X112300738Y-75520072D01*
X112300740Y-75520072D01*
X112307269Y-75522238D01*
X112407428Y-75532500D01*
X112941572Y-75532500D01*
X112944818Y-75532163D01*
X112944822Y-75532163D01*
X112978603Y-75528658D01*
X113042982Y-75521978D01*
X113203849Y-75468308D01*
X113348055Y-75379071D01*
X113356663Y-75370448D01*
X113383789Y-75343275D01*
X113446072Y-75309196D01*
X113458355Y-75307143D01*
X113483543Y-75304207D01*
X113487882Y-75303778D01*
X113553339Y-75298454D01*
X113553342Y-75298453D01*
X113560637Y-75297860D01*
X113567601Y-75295604D01*
X113573560Y-75294413D01*
X113579415Y-75293029D01*
X113586681Y-75292182D01*
X113655327Y-75267265D01*
X113659455Y-75265848D01*
X113721936Y-75245607D01*
X113721938Y-75245606D01*
X113728899Y-75243351D01*
X113735154Y-75239555D01*
X113740628Y-75237049D01*
X113746058Y-75234330D01*
X113752937Y-75231833D01*
X113813976Y-75191814D01*
X113817680Y-75189477D01*
X113880107Y-75151595D01*
X113888484Y-75144197D01*
X113888508Y-75144224D01*
X113891500Y-75141571D01*
X113894733Y-75138868D01*
X113900852Y-75134856D01*
X113954128Y-75078617D01*
X113956506Y-75076175D01*
X115162276Y-73870405D01*
X115224588Y-73836379D01*
X115251371Y-73833500D01*
X116378902Y-73833500D01*
X116381350Y-73833307D01*
X116381358Y-73833307D01*
X116409821Y-73831067D01*
X116409826Y-73831066D01*
X116416231Y-73830562D01*
X116516169Y-73801528D01*
X116568388Y-73786357D01*
X116568390Y-73786356D01*
X116576001Y-73784145D01*
X116644214Y-73743804D01*
X116712380Y-73703491D01*
X116712383Y-73703489D01*
X116719207Y-73699453D01*
X116836853Y-73581807D01*
X116840889Y-73574983D01*
X116840891Y-73574980D01*
X116917508Y-73445427D01*
X116921545Y-73438601D01*
X116967962Y-73278831D01*
X116970900Y-73241502D01*
X116970900Y-72808498D01*
X116967962Y-72771169D01*
X116921545Y-72611399D01*
X116904507Y-72582589D01*
X116840891Y-72475020D01*
X116840889Y-72475017D01*
X116836853Y-72468193D01*
X116719207Y-72350547D01*
X116712383Y-72346511D01*
X116712380Y-72346509D01*
X116582827Y-72269892D01*
X116582828Y-72269892D01*
X116576001Y-72265855D01*
X116568390Y-72263644D01*
X116568388Y-72263643D01*
X116485440Y-72239545D01*
X116416231Y-72219438D01*
X116409826Y-72218934D01*
X116409821Y-72218933D01*
X116381358Y-72216693D01*
X116381350Y-72216693D01*
X116378902Y-72216500D01*
X114895898Y-72216500D01*
X114893450Y-72216693D01*
X114893442Y-72216693D01*
X114864979Y-72218933D01*
X114864974Y-72218934D01*
X114858569Y-72219438D01*
X114789360Y-72239545D01*
X114706412Y-72263643D01*
X114706410Y-72263644D01*
X114698799Y-72265855D01*
X114691972Y-72269892D01*
X114691973Y-72269892D01*
X114562420Y-72346509D01*
X114562417Y-72346511D01*
X114555593Y-72350547D01*
X114522018Y-72384122D01*
X114498288Y-72402746D01*
X114470690Y-72419493D01*
X114470686Y-72419496D01*
X114465892Y-72422405D01*
X114457516Y-72429803D01*
X114457493Y-72429777D01*
X114454503Y-72432426D01*
X114451264Y-72435134D01*
X114445148Y-72439144D01*
X114440121Y-72444451D01*
X114440117Y-72444454D01*
X114391872Y-72495383D01*
X114389494Y-72497825D01*
X113299324Y-73587995D01*
X113237012Y-73622021D01*
X113170562Y-73618493D01*
X113048265Y-73577929D01*
X113048263Y-73577929D01*
X113041731Y-73575762D01*
X112941572Y-73565500D01*
X112407428Y-73565500D01*
X112404182Y-73565837D01*
X112404178Y-73565837D01*
X112370397Y-73569342D01*
X112306018Y-73576022D01*
X112145151Y-73629692D01*
X112000945Y-73718929D01*
X111976113Y-73743805D01*
X111913832Y-73777884D01*
X111843012Y-73772882D01*
X111797922Y-73743960D01*
X111777233Y-73723307D01*
X111772053Y-73718136D01*
X111741744Y-73699453D01*
X111732644Y-73693844D01*
X111627692Y-73629151D01*
X111606196Y-73622021D01*
X111473262Y-73577928D01*
X111473260Y-73577928D01*
X111466731Y-73575762D01*
X111366572Y-73565500D01*
X110832428Y-73565500D01*
X110829182Y-73565837D01*
X110829178Y-73565837D01*
X110795397Y-73569342D01*
X110731018Y-73576022D01*
X110570151Y-73629692D01*
X110425945Y-73718929D01*
X110306136Y-73838947D01*
X110217151Y-73983308D01*
X110214846Y-73990256D01*
X110214846Y-73990257D01*
X110204541Y-74021326D01*
X110163762Y-74144269D01*
X110163062Y-74151106D01*
X110161813Y-74156929D01*
X110127708Y-74219611D01*
X108942724Y-75404595D01*
X108880412Y-75438621D01*
X108853629Y-75441500D01*
X105627583Y-75441500D01*
X105559462Y-75421498D01*
X105512969Y-75367842D01*
X105501904Y-75324488D01*
X105500833Y-75309502D01*
X105498500Y-75276889D01*
X105473166Y-75190610D01*
X105459843Y-75145235D01*
X105459842Y-75145233D01*
X105457304Y-75136589D01*
X105430905Y-75095512D01*
X105383122Y-75021159D01*
X105383120Y-75021156D01*
X105378250Y-75013579D01*
X105367060Y-75003883D01*
X105274555Y-74923726D01*
X105274552Y-74923724D01*
X105267743Y-74917824D01*
X105134734Y-74857081D01*
X104990000Y-74836271D01*
X101893863Y-74836271D01*
X101892190Y-74836362D01*
X101892176Y-74836362D01*
X101868751Y-74837631D01*
X101838382Y-74839276D01*
X101748069Y-74849087D01*
X101704304Y-74853841D01*
X101704301Y-74853842D01*
X101700918Y-74854209D01*
X101697594Y-74854940D01*
X101697593Y-74854940D01*
X101595873Y-74877304D01*
X101595866Y-74877306D01*
X101592541Y-74878037D01*
X101417505Y-74936943D01*
X101417266Y-74936233D01*
X101387899Y-74943203D01*
X101378537Y-74944022D01*
X101234949Y-74982497D01*
X101169114Y-75000137D01*
X101169112Y-75000138D01*
X101163804Y-75001560D01*
X101158823Y-75003882D01*
X101158822Y-75003883D01*
X101017750Y-75069666D01*
X100947558Y-75080327D01*
X100882746Y-75051347D01*
X100843889Y-74991927D01*
X100838500Y-74955471D01*
X100838500Y-72364529D01*
X100858502Y-72296408D01*
X100912158Y-72249915D01*
X100982432Y-72239811D01*
X101017750Y-72250334D01*
X101134935Y-72304978D01*
X101163804Y-72318440D01*
X101169112Y-72319862D01*
X101169114Y-72319863D01*
X101212604Y-72331516D01*
X101378537Y-72375978D01*
X101384019Y-72376458D01*
X101384027Y-72376459D01*
X101390916Y-72377062D01*
X101433182Y-72388387D01*
X101447349Y-72394993D01*
X101552393Y-72430753D01*
X101555712Y-72431495D01*
X101555716Y-72431496D01*
X101628420Y-72447747D01*
X101732627Y-72471040D01*
X101816011Y-72482611D01*
X101821680Y-72482928D01*
X101850362Y-72483729D01*
X104990000Y-72483729D01*
X105021986Y-72481441D01*
X105056373Y-72478982D01*
X105056374Y-72478982D01*
X105063111Y-72478500D01*
X105167846Y-72447747D01*
X105194765Y-72439843D01*
X105194767Y-72439842D01*
X105203411Y-72437304D01*
X105259685Y-72401139D01*
X105318841Y-72363122D01*
X105318844Y-72363120D01*
X105326421Y-72358250D01*
X105362930Y-72316117D01*
X105416274Y-72254555D01*
X105416276Y-72254552D01*
X105422176Y-72247743D01*
X105482919Y-72114734D01*
X105503729Y-71970000D01*
X105503729Y-71197581D01*
X105503925Y-71190548D01*
X105506514Y-71144243D01*
X105506514Y-71144238D01*
X105506704Y-71140840D01*
X105503902Y-71087377D01*
X105503729Y-71080782D01*
X105503729Y-70270000D01*
X105498500Y-70196889D01*
X105467601Y-70091656D01*
X105459843Y-70065235D01*
X105459842Y-70065233D01*
X105457304Y-70056589D01*
X105430905Y-70015512D01*
X105383122Y-69941159D01*
X105383120Y-69941156D01*
X105378250Y-69933579D01*
X105372676Y-69928749D01*
X105343525Y-69864922D01*
X105353627Y-69794647D01*
X105373018Y-69764474D01*
X105416274Y-69714555D01*
X105416276Y-69714552D01*
X105422176Y-69707743D01*
X105482919Y-69574734D01*
X105498769Y-69464500D01*
X105501347Y-69446568D01*
X105530840Y-69381987D01*
X105590566Y-69343604D01*
X105626064Y-69338500D01*
X105711500Y-69338500D01*
X105779621Y-69358502D01*
X105826114Y-69412158D01*
X105837500Y-69464500D01*
X105837500Y-70020400D01*
X105837837Y-70023646D01*
X105837837Y-70023650D01*
X105845989Y-70102214D01*
X105848474Y-70126166D01*
X105904450Y-70293946D01*
X105997522Y-70444348D01*
X106122697Y-70569305D01*
X106128927Y-70573145D01*
X106128928Y-70573146D01*
X106139274Y-70579523D01*
X106273262Y-70662115D01*
X106353005Y-70688564D01*
X106434611Y-70715632D01*
X106434613Y-70715632D01*
X106441139Y-70717797D01*
X106447975Y-70718497D01*
X106447978Y-70718498D01*
X106491031Y-70722909D01*
X106545600Y-70728500D01*
X108846400Y-70728500D01*
X108849646Y-70728163D01*
X108849650Y-70728163D01*
X108945308Y-70718238D01*
X108945312Y-70718237D01*
X108952166Y-70717526D01*
X108958702Y-70715345D01*
X108958704Y-70715345D01*
X109048243Y-70685472D01*
X109111398Y-70664402D01*
X109182346Y-70661818D01*
X109243430Y-70698001D01*
X109270796Y-70744049D01*
X109310660Y-70863535D01*
X109317244Y-70883268D01*
X109407248Y-71028713D01*
X109528298Y-71149552D01*
X109534528Y-71153392D01*
X109534529Y-71153393D01*
X109618287Y-71205022D01*
X109673899Y-71239302D01*
X109836243Y-71293149D01*
X109843080Y-71293849D01*
X109843082Y-71293850D01*
X109884401Y-71298083D01*
X109937268Y-71303500D01*
X110534732Y-71303500D01*
X110537978Y-71303163D01*
X110537982Y-71303163D01*
X110572083Y-71299625D01*
X110637019Y-71292887D01*
X110671737Y-71281304D01*
X110792324Y-71241073D01*
X110792326Y-71241072D01*
X110799268Y-71238756D01*
X110866382Y-71197225D01*
X110938485Y-71152606D01*
X110944713Y-71148752D01*
X110985061Y-71108333D01*
X111047343Y-71074254D01*
X111118163Y-71079257D01*
X111163251Y-71108178D01*
X111204698Y-71149552D01*
X111210928Y-71153392D01*
X111210929Y-71153393D01*
X111294687Y-71205022D01*
X111350299Y-71239302D01*
X111512643Y-71293149D01*
X111519480Y-71293849D01*
X111519482Y-71293850D01*
X111560801Y-71298083D01*
X111613668Y-71303500D01*
X112211132Y-71303500D01*
X112214378Y-71303163D01*
X112214382Y-71303163D01*
X112248483Y-71299625D01*
X112313419Y-71292887D01*
X112348137Y-71281304D01*
X112468724Y-71241073D01*
X112468726Y-71241072D01*
X112475668Y-71238756D01*
X112542782Y-71197225D01*
X112614885Y-71152606D01*
X112621113Y-71148752D01*
X112661461Y-71108333D01*
X112723743Y-71074254D01*
X112794563Y-71079257D01*
X112839651Y-71108178D01*
X112881098Y-71149552D01*
X112887328Y-71153392D01*
X112887329Y-71153393D01*
X112971087Y-71205022D01*
X113026699Y-71239302D01*
X113189043Y-71293149D01*
X113195880Y-71293849D01*
X113195882Y-71293850D01*
X113237201Y-71298083D01*
X113290068Y-71303500D01*
X113887532Y-71303500D01*
X113890778Y-71303163D01*
X113890782Y-71303163D01*
X113924883Y-71299625D01*
X113989819Y-71292887D01*
X114024537Y-71281304D01*
X114145124Y-71241073D01*
X114145126Y-71241072D01*
X114152068Y-71238756D01*
X114219182Y-71197225D01*
X114291285Y-71152606D01*
X114297513Y-71148752D01*
X114328820Y-71117391D01*
X114391102Y-71083311D01*
X114461922Y-71088314D01*
X114499572Y-71110383D01*
X114505701Y-71115590D01*
X114505707Y-71115594D01*
X114511285Y-71120333D01*
X114515641Y-71122557D01*
X114532618Y-71136478D01*
X114555593Y-71159453D01*
X114562417Y-71163489D01*
X114562420Y-71163491D01*
X114669989Y-71227107D01*
X114698799Y-71244145D01*
X114706410Y-71246356D01*
X114706412Y-71246357D01*
X114758631Y-71261528D01*
X114858569Y-71290562D01*
X114864974Y-71291066D01*
X114864979Y-71291067D01*
X114893442Y-71293307D01*
X114893450Y-71293307D01*
X114895898Y-71293500D01*
X116378902Y-71293500D01*
X116381350Y-71293307D01*
X116381358Y-71293307D01*
X116409821Y-71291067D01*
X116409826Y-71291066D01*
X116416231Y-71290562D01*
X116516169Y-71261528D01*
X116568388Y-71246357D01*
X116568390Y-71246356D01*
X116576001Y-71244145D01*
X116604811Y-71227107D01*
X116712380Y-71163491D01*
X116712383Y-71163489D01*
X116719207Y-71159453D01*
X116836853Y-71041807D01*
X116840889Y-71034983D01*
X116840891Y-71034980D01*
X116917508Y-70905427D01*
X116921545Y-70898601D01*
X116967962Y-70738831D01*
X116968776Y-70728500D01*
X116970707Y-70703958D01*
X116970707Y-70703950D01*
X116970900Y-70701502D01*
X116970900Y-70268498D01*
X116967962Y-70231169D01*
X116935464Y-70119308D01*
X116923757Y-70079012D01*
X116923756Y-70079010D01*
X116921545Y-70071399D01*
X116836853Y-69928193D01*
X116834171Y-69925511D01*
X116808898Y-69861139D01*
X116822800Y-69791516D01*
X116832972Y-69775688D01*
X116836853Y-69771807D01*
X116921545Y-69628601D01*
X116930498Y-69597786D01*
X116939787Y-69565811D01*
X116967962Y-69468831D01*
X116969715Y-69446568D01*
X116970707Y-69433958D01*
X116970707Y-69433950D01*
X116970900Y-69431502D01*
X116970900Y-68998498D01*
X116967962Y-68961169D01*
X116921545Y-68801399D01*
X116904507Y-68772589D01*
X116840891Y-68665020D01*
X116840889Y-68665017D01*
X116836853Y-68658193D01*
X116719207Y-68540547D01*
X116712383Y-68536511D01*
X116712380Y-68536509D01*
X116582827Y-68459892D01*
X116582828Y-68459892D01*
X116576001Y-68455855D01*
X116568390Y-68453644D01*
X116568388Y-68453643D01*
X116516169Y-68438472D01*
X116416231Y-68409438D01*
X116409826Y-68408934D01*
X116409821Y-68408933D01*
X116381358Y-68406693D01*
X116381350Y-68406693D01*
X116378902Y-68406500D01*
X115251371Y-68406500D01*
X115183250Y-68386498D01*
X115162276Y-68369595D01*
X114248770Y-67456089D01*
X114236384Y-67441677D01*
X114227851Y-67430082D01*
X114227846Y-67430077D01*
X114223508Y-67424182D01*
X114217930Y-67419443D01*
X114217927Y-67419440D01*
X114183232Y-67389965D01*
X114175716Y-67383035D01*
X114170021Y-67377340D01*
X114156044Y-67366282D01*
X114147749Y-67359719D01*
X114144345Y-67356928D01*
X114094297Y-67314409D01*
X114094295Y-67314408D01*
X114088715Y-67309667D01*
X114082199Y-67306339D01*
X114077150Y-67302972D01*
X114072021Y-67299805D01*
X114066284Y-67295266D01*
X114000125Y-67264345D01*
X113996225Y-67262439D01*
X113931192Y-67229231D01*
X113924084Y-67227492D01*
X113918441Y-67225393D01*
X113912678Y-67223476D01*
X113906050Y-67220378D01*
X113834583Y-67205513D01*
X113830299Y-67204543D01*
X113759390Y-67187192D01*
X113753788Y-67186844D01*
X113753785Y-67186844D01*
X113748236Y-67186500D01*
X113748238Y-67186464D01*
X113744245Y-67186225D01*
X113740053Y-67185851D01*
X113732885Y-67184360D01*
X113666675Y-67186151D01*
X113655479Y-67186454D01*
X113652072Y-67186500D01*
X113598670Y-67186500D01*
X113530549Y-67166498D01*
X113509652Y-67149673D01*
X113479233Y-67119307D01*
X113474053Y-67114136D01*
X113329692Y-67025151D01*
X113318465Y-67021427D01*
X113175262Y-66973928D01*
X113175260Y-66973928D01*
X113168731Y-66971762D01*
X113068572Y-66961500D01*
X112534428Y-66961500D01*
X112531182Y-66961837D01*
X112531178Y-66961837D01*
X112497397Y-66965342D01*
X112433018Y-66972022D01*
X112290827Y-67019461D01*
X112219878Y-67022046D01*
X112158794Y-66985863D01*
X112126969Y-66922399D01*
X112135444Y-66856812D01*
X112133302Y-66856101D01*
X112184984Y-66700284D01*
X112187149Y-66693757D01*
X112197500Y-66592732D01*
X112197500Y-65995268D01*
X112186887Y-65892981D01*
X112150247Y-65783158D01*
X112135073Y-65737676D01*
X112135072Y-65737674D01*
X112132756Y-65730732D01*
X112123923Y-65716457D01*
X112046606Y-65591515D01*
X112042752Y-65585287D01*
X111921702Y-65464448D01*
X111901391Y-65451928D01*
X111782331Y-65378538D01*
X111782329Y-65378537D01*
X111776101Y-65374698D01*
X111613757Y-65320851D01*
X111606920Y-65320151D01*
X111606918Y-65320150D01*
X111560341Y-65315378D01*
X111512732Y-65310500D01*
X110965268Y-65310500D01*
X110962022Y-65310837D01*
X110962018Y-65310837D01*
X110932615Y-65313888D01*
X110862981Y-65321113D01*
X110856440Y-65323295D01*
X110856441Y-65323295D01*
X110707676Y-65372927D01*
X110707674Y-65372928D01*
X110700732Y-65375244D01*
X110694508Y-65379096D01*
X110694507Y-65379096D01*
X110664004Y-65397972D01*
X110555287Y-65465248D01*
X110538908Y-65481656D01*
X110522075Y-65498518D01*
X110459793Y-65532597D01*
X110432902Y-65535500D01*
X109844012Y-65535500D01*
X109775891Y-65515498D01*
X109762440Y-65505531D01*
X109738219Y-65484954D01*
X109730716Y-65478035D01*
X109725021Y-65472340D01*
X109715046Y-65464448D01*
X109702749Y-65454719D01*
X109699345Y-65451928D01*
X109649297Y-65409409D01*
X109649295Y-65409408D01*
X109643715Y-65404667D01*
X109637199Y-65401339D01*
X109632150Y-65397972D01*
X109627021Y-65394805D01*
X109621284Y-65390266D01*
X109555125Y-65359345D01*
X109551225Y-65357439D01*
X109544774Y-65354145D01*
X109486192Y-65324231D01*
X109479084Y-65322492D01*
X109473441Y-65320393D01*
X109467678Y-65318476D01*
X109461050Y-65315378D01*
X109439219Y-65310837D01*
X109389588Y-65300514D01*
X109385299Y-65299543D01*
X109314390Y-65282192D01*
X109308788Y-65281844D01*
X109308785Y-65281844D01*
X109303236Y-65281500D01*
X109303238Y-65281464D01*
X109299245Y-65281225D01*
X109295053Y-65280851D01*
X109287885Y-65279360D01*
X109221675Y-65281151D01*
X109210479Y-65281454D01*
X109207072Y-65281500D01*
X105627583Y-65281500D01*
X105559462Y-65261498D01*
X105512969Y-65207842D01*
X105501904Y-65164488D01*
X105498982Y-65123628D01*
X105498500Y-65116889D01*
X105470701Y-65022214D01*
X105459843Y-64985235D01*
X105459842Y-64985233D01*
X105457304Y-64976589D01*
X105430905Y-64935512D01*
X105383122Y-64861159D01*
X105383120Y-64861156D01*
X105378250Y-64853579D01*
X105372676Y-64848749D01*
X105343525Y-64784922D01*
X105353627Y-64714647D01*
X105373018Y-64684474D01*
X105416274Y-64634555D01*
X105416276Y-64634552D01*
X105422176Y-64627743D01*
X105482919Y-64494734D01*
X105503729Y-64350000D01*
X105503729Y-64334500D01*
X105523731Y-64266379D01*
X105577387Y-64219886D01*
X105629729Y-64208500D01*
X112684340Y-64208500D01*
X112752461Y-64228502D01*
X112773435Y-64245405D01*
X115683550Y-67155520D01*
X115689404Y-67161785D01*
X115727439Y-67205385D01*
X115779719Y-67242128D01*
X115785014Y-67246061D01*
X115835282Y-67285476D01*
X115842198Y-67288599D01*
X115844484Y-67289983D01*
X115859165Y-67298357D01*
X115861525Y-67299622D01*
X115867739Y-67303990D01*
X115874818Y-67306750D01*
X115874820Y-67306751D01*
X115927275Y-67327202D01*
X115933344Y-67329753D01*
X115991573Y-67356045D01*
X115999046Y-67357430D01*
X116001612Y-67358234D01*
X116017835Y-67362855D01*
X116020427Y-67363520D01*
X116027509Y-67366282D01*
X116035044Y-67367274D01*
X116090861Y-67374622D01*
X116097377Y-67375654D01*
X116106474Y-67377340D01*
X116160186Y-67387295D01*
X116167766Y-67386858D01*
X116167767Y-67386858D01*
X116222380Y-67383709D01*
X116229633Y-67383500D01*
X116478908Y-67383500D01*
X116547029Y-67403502D01*
X116567926Y-67420327D01*
X116652298Y-67504552D01*
X116658528Y-67508392D01*
X116658529Y-67508393D01*
X116745843Y-67562214D01*
X116797899Y-67594302D01*
X116960243Y-67648149D01*
X116967080Y-67648849D01*
X116967082Y-67648850D01*
X117007823Y-67653024D01*
X117061268Y-67658500D01*
X117608732Y-67658500D01*
X117611978Y-67658163D01*
X117611982Y-67658163D01*
X117646083Y-67654625D01*
X117711019Y-67647887D01*
X117770930Y-67627899D01*
X117866324Y-67596073D01*
X117866326Y-67596072D01*
X117873268Y-67593756D01*
X117879493Y-67589904D01*
X118012487Y-67507605D01*
X118012488Y-67507604D01*
X118018713Y-67503752D01*
X118023886Y-67498570D01*
X118029620Y-67494025D01*
X118031142Y-67495945D01*
X118083206Y-67467455D01*
X118154026Y-67472456D01*
X118190552Y-67495882D01*
X118191372Y-67494843D01*
X118197118Y-67499381D01*
X118202298Y-67504552D01*
X118208528Y-67508392D01*
X118208529Y-67508393D01*
X118295843Y-67562214D01*
X118347899Y-67594302D01*
X118510243Y-67648149D01*
X118517080Y-67648849D01*
X118517082Y-67648850D01*
X118557823Y-67653024D01*
X118611268Y-67658500D01*
X118863000Y-67658500D01*
X118931121Y-67678502D01*
X118977614Y-67732158D01*
X118989000Y-67784500D01*
X118989000Y-68868588D01*
X118988708Y-68877158D01*
X118984775Y-68934852D01*
X118986080Y-68942329D01*
X118986080Y-68942330D01*
X118995761Y-68997799D01*
X118996723Y-69004321D01*
X119004398Y-69067742D01*
X119007081Y-69074843D01*
X119007722Y-69077452D01*
X119012185Y-69093762D01*
X119012950Y-69096298D01*
X119014257Y-69103784D01*
X119017311Y-69110741D01*
X119039942Y-69162295D01*
X119042433Y-69168399D01*
X119065013Y-69228156D01*
X119069317Y-69234419D01*
X119070554Y-69236785D01*
X119078799Y-69251597D01*
X119080132Y-69253851D01*
X119083185Y-69260805D01*
X119087807Y-69266828D01*
X119122079Y-69311491D01*
X119125961Y-69316835D01*
X119137091Y-69333031D01*
X119159188Y-69400502D01*
X119141299Y-69469208D01*
X119089105Y-69517335D01*
X119068822Y-69525267D01*
X119000381Y-69545410D01*
X118994923Y-69548263D01*
X118994919Y-69548265D01*
X118928608Y-69582932D01*
X118825110Y-69637040D01*
X118670975Y-69760968D01*
X118543846Y-69912474D01*
X118540879Y-69917872D01*
X118540875Y-69917877D01*
X118482727Y-70023650D01*
X118448567Y-70085787D01*
X118446706Y-70091654D01*
X118446705Y-70091656D01*
X118390845Y-70267750D01*
X118388765Y-70274306D01*
X118366719Y-70470851D01*
X118367235Y-70476995D01*
X118379137Y-70618732D01*
X118383268Y-70667934D01*
X118437783Y-70858050D01*
X118528187Y-71033956D01*
X118651035Y-71188953D01*
X118655728Y-71192947D01*
X118655729Y-71192948D01*
X118785628Y-71303500D01*
X118801650Y-71317136D01*
X118974294Y-71413624D01*
X119162392Y-71474740D01*
X119358777Y-71498158D01*
X119364912Y-71497686D01*
X119364914Y-71497686D01*
X119418233Y-71493583D01*
X119487688Y-71508300D01*
X119538160Y-71558231D01*
X119553900Y-71619212D01*
X119553900Y-71889242D01*
X119533898Y-71957363D01*
X119480242Y-72003856D01*
X119414730Y-72014552D01*
X119387075Y-72011645D01*
X119304576Y-72019153D01*
X119196251Y-72029011D01*
X119196248Y-72029012D01*
X119190112Y-72029570D01*
X119184206Y-72031308D01*
X119184202Y-72031309D01*
X119079076Y-72062249D01*
X119000381Y-72085410D01*
X118994923Y-72088263D01*
X118994919Y-72088265D01*
X118928608Y-72122932D01*
X118825110Y-72177040D01*
X118670975Y-72300968D01*
X118543846Y-72452474D01*
X118540879Y-72457872D01*
X118540875Y-72457877D01*
X118518914Y-72497825D01*
X118448567Y-72625787D01*
X118446706Y-72631654D01*
X118446705Y-72631656D01*
X118390627Y-72808436D01*
X118388765Y-72814306D01*
X118366719Y-73010851D01*
X118383268Y-73207934D01*
X118437783Y-73398050D01*
X118528187Y-73573956D01*
X118651035Y-73728953D01*
X118655728Y-73732947D01*
X118655729Y-73732948D01*
X118786836Y-73844528D01*
X118801650Y-73857136D01*
X118974294Y-73953624D01*
X119162392Y-74014740D01*
X119358777Y-74038158D01*
X119364912Y-74037686D01*
X119364914Y-74037686D01*
X119549830Y-74023457D01*
X119549834Y-74023456D01*
X119555972Y-74022984D01*
X119746463Y-73969798D01*
X119751967Y-73967018D01*
X119751969Y-73967017D01*
X119917495Y-73883404D01*
X119917497Y-73883403D01*
X119922996Y-73880625D01*
X119969198Y-73844528D01*
X120035192Y-73818351D01*
X120081925Y-73822821D01*
X120108569Y-73830562D01*
X120114974Y-73831066D01*
X120114979Y-73831067D01*
X120143442Y-73833307D01*
X120143450Y-73833307D01*
X120145898Y-73833500D01*
X121628902Y-73833500D01*
X121631350Y-73833307D01*
X121631358Y-73833307D01*
X121659821Y-73831067D01*
X121659826Y-73831066D01*
X121666231Y-73830562D01*
X121766169Y-73801528D01*
X121818388Y-73786357D01*
X121818390Y-73786356D01*
X121826001Y-73784145D01*
X121894214Y-73743804D01*
X121962380Y-73703491D01*
X121962383Y-73703489D01*
X121969207Y-73699453D01*
X122086853Y-73581807D01*
X122090889Y-73574983D01*
X122090891Y-73574980D01*
X122167508Y-73445427D01*
X122171545Y-73438601D01*
X122217962Y-73278831D01*
X122220900Y-73241502D01*
X122220900Y-72808498D01*
X122217962Y-72771169D01*
X122171545Y-72611399D01*
X122086853Y-72468193D01*
X122084171Y-72465511D01*
X122058898Y-72401139D01*
X122072800Y-72331516D01*
X122082972Y-72315688D01*
X122086853Y-72311807D01*
X122171545Y-72168601D01*
X122180498Y-72137786D01*
X122189787Y-72105811D01*
X122217962Y-72008831D01*
X122220900Y-71971502D01*
X122220900Y-71538498D01*
X122220707Y-71536042D01*
X122218467Y-71507579D01*
X122218466Y-71507574D01*
X122217962Y-71501169D01*
X122171545Y-71341399D01*
X122086853Y-71198193D01*
X122084171Y-71195511D01*
X122058898Y-71131139D01*
X122072800Y-71061516D01*
X122082972Y-71045688D01*
X122086853Y-71041807D01*
X122171545Y-70898601D01*
X122217962Y-70738831D01*
X122218776Y-70728500D01*
X122220707Y-70703958D01*
X122220707Y-70703950D01*
X122220900Y-70701502D01*
X122220900Y-70268498D01*
X122217962Y-70231169D01*
X122185464Y-70119308D01*
X122173757Y-70079012D01*
X122173756Y-70079010D01*
X122171545Y-70071399D01*
X122086853Y-69928193D01*
X122084171Y-69925511D01*
X122058898Y-69861139D01*
X122072800Y-69791516D01*
X122082972Y-69775688D01*
X122086853Y-69771807D01*
X122171545Y-69628601D01*
X122180498Y-69597786D01*
X122189787Y-69565811D01*
X122217962Y-69468831D01*
X122219715Y-69446568D01*
X122220707Y-69433958D01*
X122220707Y-69433950D01*
X122220900Y-69431502D01*
X122220900Y-68998498D01*
X122217962Y-68961169D01*
X122171545Y-68801399D01*
X122154507Y-68772589D01*
X122090891Y-68665020D01*
X122090889Y-68665017D01*
X122086853Y-68658193D01*
X121969207Y-68540547D01*
X121962383Y-68536511D01*
X121962380Y-68536509D01*
X121832827Y-68459892D01*
X121832828Y-68459892D01*
X121826001Y-68455855D01*
X121818390Y-68453644D01*
X121818388Y-68453643D01*
X121766169Y-68438472D01*
X121666231Y-68409438D01*
X121659826Y-68408934D01*
X121659821Y-68408933D01*
X121631358Y-68406693D01*
X121631350Y-68406693D01*
X121628902Y-68406500D01*
X120532000Y-68406500D01*
X120463879Y-68386498D01*
X120417386Y-68332842D01*
X120406000Y-68280500D01*
X120406000Y-67021427D01*
X120406292Y-67012858D01*
X120409710Y-66962725D01*
X120409710Y-66962721D01*
X120410226Y-66955148D01*
X120399236Y-66892181D01*
X120398275Y-66885665D01*
X120390602Y-66822258D01*
X120387919Y-66815157D01*
X120387278Y-66812548D01*
X120382809Y-66796215D01*
X120382048Y-66793695D01*
X120380743Y-66786217D01*
X120377691Y-66779264D01*
X120355059Y-66727704D01*
X120352568Y-66721599D01*
X120332675Y-66668956D01*
X120332673Y-66668952D01*
X120329987Y-66661844D01*
X120325684Y-66655583D01*
X120324447Y-66653217D01*
X120316220Y-66638437D01*
X120314869Y-66636152D01*
X120311815Y-66629195D01*
X120307195Y-66623175D01*
X120307192Y-66623169D01*
X120272921Y-66578509D01*
X120269041Y-66573168D01*
X120237161Y-66526780D01*
X120237156Y-66526775D01*
X120232857Y-66520519D01*
X120186329Y-66479064D01*
X120181054Y-66474084D01*
X119901450Y-66194480D01*
X119895596Y-66188215D01*
X119895201Y-66187762D01*
X119857561Y-66144615D01*
X119805280Y-66107871D01*
X119799998Y-66103948D01*
X119766994Y-66078070D01*
X119737598Y-66045221D01*
X119706686Y-65995268D01*
X119688752Y-65966287D01*
X119684997Y-65962538D01*
X119658671Y-65897497D01*
X119671842Y-65827733D01*
X119720639Y-65776164D01*
X119789570Y-65759164D01*
X119798973Y-65759929D01*
X119935125Y-65776164D01*
X119993777Y-65783158D01*
X119999912Y-65782686D01*
X119999914Y-65782686D01*
X120184830Y-65768457D01*
X120184834Y-65768456D01*
X120190972Y-65767984D01*
X120381463Y-65714798D01*
X120386967Y-65712018D01*
X120386969Y-65712017D01*
X120552495Y-65628404D01*
X120552497Y-65628403D01*
X120557996Y-65625625D01*
X120713847Y-65503861D01*
X120843078Y-65354145D01*
X120940769Y-65182179D01*
X121003197Y-64994513D01*
X121027985Y-64798295D01*
X121028380Y-64770000D01*
X121009080Y-64573167D01*
X120992360Y-64517786D01*
X120953697Y-64389731D01*
X120951916Y-64383831D01*
X120859066Y-64209204D01*
X120788709Y-64122938D01*
X120737960Y-64060713D01*
X120737957Y-64060710D01*
X120734065Y-64055938D01*
X120705903Y-64032640D01*
X120586425Y-63933799D01*
X120586421Y-63933797D01*
X120581675Y-63929870D01*
X120407701Y-63835802D01*
X120218768Y-63777318D01*
X120212643Y-63776674D01*
X120212642Y-63776674D01*
X120028204Y-63757289D01*
X120028202Y-63757289D01*
X120022075Y-63756645D01*
X119939576Y-63764153D01*
X119831251Y-63774011D01*
X119831248Y-63774012D01*
X119825112Y-63774570D01*
X119819206Y-63776308D01*
X119819202Y-63776309D01*
X119749406Y-63796851D01*
X119635381Y-63830410D01*
X119629918Y-63833266D01*
X119565666Y-63866856D01*
X119496030Y-63880691D01*
X119441173Y-63862454D01*
X119428333Y-63854539D01*
X119428330Y-63854538D01*
X119422101Y-63850698D01*
X119259757Y-63796851D01*
X119252920Y-63796151D01*
X119252918Y-63796150D01*
X119211599Y-63791917D01*
X119158732Y-63786500D01*
X118611268Y-63786500D01*
X118608022Y-63786837D01*
X118608018Y-63786837D01*
X118573917Y-63790375D01*
X118508981Y-63797113D01*
X118502440Y-63799295D01*
X118502441Y-63799295D01*
X118353676Y-63848927D01*
X118353674Y-63848928D01*
X118346732Y-63851244D01*
X118340508Y-63855096D01*
X118340507Y-63855096D01*
X118208787Y-63936607D01*
X118201287Y-63941248D01*
X118196114Y-63946430D01*
X118190380Y-63950975D01*
X118188858Y-63949055D01*
X118136794Y-63977545D01*
X118065974Y-63972544D01*
X118029448Y-63949118D01*
X118028628Y-63950157D01*
X118022882Y-63945619D01*
X118017702Y-63940448D01*
X118011471Y-63936607D01*
X117878331Y-63854538D01*
X117878329Y-63854537D01*
X117872101Y-63850698D01*
X117709757Y-63796851D01*
X117702920Y-63796151D01*
X117702918Y-63796150D01*
X117661599Y-63791917D01*
X117608732Y-63786500D01*
X117061268Y-63786500D01*
X117058022Y-63786837D01*
X117058018Y-63786837D01*
X117023917Y-63790375D01*
X116958981Y-63797113D01*
X116952440Y-63799295D01*
X116952441Y-63799295D01*
X116803676Y-63848927D01*
X116803674Y-63848928D01*
X116796732Y-63851244D01*
X116651287Y-63941248D01*
X116646114Y-63946430D01*
X116603966Y-63988651D01*
X116541683Y-64022730D01*
X116470863Y-64017727D01*
X116425698Y-63988728D01*
X114186450Y-61749480D01*
X114180596Y-61743215D01*
X114165909Y-61726379D01*
X114142561Y-61699615D01*
X114090280Y-61662871D01*
X114084986Y-61658939D01*
X114040693Y-61624209D01*
X114034718Y-61619524D01*
X114027802Y-61616401D01*
X114025516Y-61615017D01*
X114010835Y-61606643D01*
X114008475Y-61605378D01*
X114002261Y-61601010D01*
X113995182Y-61598250D01*
X113995180Y-61598249D01*
X113942725Y-61577798D01*
X113936656Y-61575247D01*
X113878427Y-61548955D01*
X113870960Y-61547571D01*
X113868405Y-61546770D01*
X113852152Y-61542141D01*
X113849572Y-61541478D01*
X113842491Y-61538718D01*
X113834960Y-61537727D01*
X113834958Y-61537726D01*
X113805339Y-61533827D01*
X113779139Y-61530378D01*
X113772641Y-61529348D01*
X113709814Y-61517704D01*
X113702234Y-61518141D01*
X113702233Y-61518141D01*
X113647608Y-61521291D01*
X113640354Y-61521500D01*
X108295660Y-61521500D01*
X108227539Y-61501498D01*
X108206565Y-61484595D01*
X107201450Y-60479480D01*
X107195596Y-60473215D01*
X107195201Y-60472762D01*
X107157561Y-60429615D01*
X107151346Y-60425247D01*
X107145702Y-60420165D01*
X107147328Y-60418359D01*
X107110447Y-60372061D01*
X107103256Y-60301429D01*
X107135393Y-60238123D01*
X107196654Y-60202240D01*
X107227126Y-60198500D01*
X122555500Y-60198500D01*
X122623621Y-60218502D01*
G37*
G04 #@! TD.AperFunction*
G04 #@! TA.AperFunction,Conductor*
G36*
X108818621Y-66818502D02*
G01*
X108865114Y-66872158D01*
X108876500Y-66924500D01*
X108876500Y-67242930D01*
X108875067Y-67261880D01*
X108871801Y-67283349D01*
X108872394Y-67290641D01*
X108872394Y-67290644D01*
X108876085Y-67336018D01*
X108876500Y-67346233D01*
X108876500Y-67354293D01*
X108876973Y-67358350D01*
X108879789Y-67382507D01*
X108880222Y-67386882D01*
X108885303Y-67449345D01*
X108886140Y-67459637D01*
X108888396Y-67466601D01*
X108889587Y-67472560D01*
X108890971Y-67478415D01*
X108891818Y-67485681D01*
X108916735Y-67554327D01*
X108918152Y-67558455D01*
X108940649Y-67627899D01*
X108944446Y-67634156D01*
X108947493Y-67640811D01*
X108947036Y-67641020D01*
X108951853Y-67651072D01*
X108952167Y-67651937D01*
X108952170Y-67651944D01*
X108949194Y-67653024D01*
X108959296Y-67708938D01*
X108932143Y-67774537D01*
X108873835Y-67815042D01*
X108834015Y-67821500D01*
X108017069Y-67821500D01*
X107998121Y-67820067D01*
X107990780Y-67818950D01*
X107983883Y-67817901D01*
X107983881Y-67817901D01*
X107976651Y-67816801D01*
X107969359Y-67817394D01*
X107969356Y-67817394D01*
X107923982Y-67821085D01*
X107913767Y-67821500D01*
X105627583Y-67821500D01*
X105559462Y-67801498D01*
X105512969Y-67747842D01*
X105501904Y-67704488D01*
X105498982Y-67663628D01*
X105498500Y-67656889D01*
X105469597Y-67558455D01*
X105459843Y-67525235D01*
X105459842Y-67525233D01*
X105457304Y-67516589D01*
X105409161Y-67441677D01*
X105383122Y-67401159D01*
X105383120Y-67401156D01*
X105378250Y-67393579D01*
X105372676Y-67388749D01*
X105343525Y-67324922D01*
X105353627Y-67254647D01*
X105373018Y-67224474D01*
X105377859Y-67218888D01*
X105404167Y-67188527D01*
X105416274Y-67174555D01*
X105416276Y-67174552D01*
X105422176Y-67167743D01*
X105426368Y-67158565D01*
X105452548Y-67101238D01*
X105482919Y-67034734D01*
X105493400Y-66961837D01*
X105501347Y-66906568D01*
X105530840Y-66841987D01*
X105590566Y-66803604D01*
X105626064Y-66798500D01*
X108750500Y-66798500D01*
X108818621Y-66818502D01*
G37*
G04 #@! TD.AperFunction*
G04 #@! TA.AperFunction,Conductor*
G36*
X106402461Y-61688502D02*
G01*
X106423431Y-61705401D01*
X107294436Y-62576407D01*
X107328460Y-62638717D01*
X107323395Y-62709533D01*
X107280848Y-62766368D01*
X107214328Y-62791179D01*
X107205339Y-62791500D01*
X105629729Y-62791500D01*
X105561608Y-62771498D01*
X105515115Y-62717842D01*
X105503729Y-62665500D01*
X105503729Y-62650000D01*
X105498500Y-62576889D01*
X105457304Y-62436589D01*
X105430905Y-62395512D01*
X105383122Y-62321159D01*
X105383120Y-62321156D01*
X105378250Y-62313579D01*
X105372676Y-62308749D01*
X105343525Y-62244922D01*
X105353627Y-62174647D01*
X105373018Y-62144474D01*
X105416274Y-62094555D01*
X105416276Y-62094552D01*
X105422176Y-62087743D01*
X105482919Y-61954734D01*
X105503729Y-61810000D01*
X105503729Y-61794500D01*
X105523731Y-61726379D01*
X105577387Y-61679886D01*
X105629729Y-61668500D01*
X106334340Y-61668500D01*
X106402461Y-61688502D01*
G37*
G04 #@! TD.AperFunction*
M02*
