M48
; DRILL file {KiCad (6.0.8)} date Sat May 27 16:58:24 2023
; FORMAT={-:-/ absolute / metric / decimal}
; #@! TF.CreationDate,2023-05-27T16:58:24+02:00
; #@! TF.GenerationSoftware,Kicad,Pcbnew,(6.0.8)
; #@! TF.FileFunction,Plated,1,2,PTH
FMAT,2
METRIC
; #@! TA.AperFunction,Plated,PTH,ViaDrill
T1C0.600
; #@! TA.AperFunction,Plated,PTH,ComponentDrill
T2C0.762
; #@! TA.AperFunction,Plated,PTH,ComponentDrill
T3C1.000
%
G90
G05
T1
X106.172Y-62.23
X106.68Y-74.168
X106.934Y-64.77
X106.934Y-67.437
X108.331Y-74.168
X108.585Y-67.437
X109.093Y-60.96
X109.093Y-64.77
X110.236Y-73.152
X111.252Y-64.77
X111.379Y-60.96
X113.03Y-73.152
X113.665Y-60.96
X114.046Y-66.294
X114.3Y-76.2
X115.57Y-67.818
X115.951Y-60.96
X116.84Y-62.865
X116.84Y-74.93
X117.475Y-70.485
X117.475Y-73.025
X117.983Y-68.326
X118.237Y-60.96
X118.745Y-76.327
X119.38Y-62.865
X119.38Y-70.485
X119.38Y-73.025
X120.015Y-64.77
X120.65Y-60.96
X120.65Y-74.93
X121.031Y-67.818
X121.92Y-63.5
X121.92Y-66.04
T2
X101.6Y-60.96
X101.6Y-63.5
X101.6Y-66.04
X101.6Y-68.58
X101.6Y-71.12
X101.6Y-73.66
X101.6Y-76.2
T3
X104.14Y-60.96
X104.14Y-63.5
X104.14Y-66.04
X104.14Y-68.58
X104.14Y-71.12
X104.14Y-73.66
X104.14Y-76.2
T0
M30
