M48
; DRILL file {KiCad (6.0.8)} date Fri May 19 15:03:56 2023
; FORMAT={-:-/ absolute / metric / decimal}
; #@! TF.CreationDate,2023-05-19T15:03:56+02:00
; #@! TF.GenerationSoftware,Kicad,Pcbnew,(6.0.8)
; #@! TF.FileFunction,Plated,1,2,PTH
FMAT,2
METRIC
; #@! TA.AperFunction,Plated,PTH,ViaDrill
T1C0.600
; #@! TA.AperFunction,Plated,PTH,ComponentDrill
T2C0.762
; #@! TA.AperFunction,Plated,PTH,ComponentDrill
T3C1.000
%
G90
G05
T1
X106.68Y-74.549
X106.934Y-64.77
X106.934Y-67.437
X108.331Y-74.549
X109.093Y-64.77
X109.093Y-67.437
X109.855Y-73.406
X110.998Y-68.326
X111.252Y-64.77
X111.76Y-73.406
X114.3Y-73.66
X114.3Y-76.835
X115.57Y-62.865
X115.951Y-65.786
X116.459Y-75.692
X117.221Y-67.437
X118.237Y-62.865
X118.364Y-76.835
X118.872Y-74.803
X119.126Y-67.437
X119.193Y-69.85
X119.193Y-71.12
X120.463Y-69.85
X120.463Y-71.12
X120.904Y-62.865
X120.971Y-73.025
X121.031Y-67.437
X121.031Y-76.835
X123.19Y-62.865
X123.19Y-64.389
X123.19Y-66.04
X123.317Y-76.835
T2
X101.6Y-63.5
X101.6Y-66.04
X101.6Y-68.58
X101.6Y-71.12
X101.6Y-73.66
X101.6Y-76.2
T3
X104.14Y-63.5
X104.14Y-66.04
X104.14Y-68.58
X104.14Y-71.12
X104.14Y-73.66
X104.14Y-76.2
T0
M30
