%TF.GenerationSoftware,KiCad,Pcbnew,(5.1.6)-1*%
%TF.CreationDate,2021-04-06T00:06:40+02:00*%
%TF.ProjectId,10_Audio_Facile,31305f41-7564-4696-9f5f-466163696c65,rev?*%
%TF.SameCoordinates,Original*%
%TF.FileFunction,Other,Fab,Top*%
%FSLAX46Y46*%
G04 Gerber Fmt 4.6, Leading zero omitted, Abs format (unit mm)*
G04 Created by KiCad (PCBNEW (5.1.6)-1) date 2021-04-06 00:06:40*
%MOMM*%
%LPD*%
G01*
G04 APERTURE LIST*
%TA.AperFunction,Profile*%
%ADD10C,0.050000*%
%TD*%
%ADD11C,0.100000*%
%ADD12C,0.120000*%
%ADD13C,0.150000*%
%ADD14C,0.060000*%
G04 APERTURE END LIST*
D10*
X130810000Y-67310000D02*
X129540000Y-67310000D01*
X130810000Y-64770000D02*
X130810000Y-67310000D01*
X129540000Y-64770000D02*
X130810000Y-64770000D01*
X129540000Y-60960000D02*
X129540000Y-64770000D01*
X129540000Y-67310000D02*
X129540000Y-81280000D01*
X101600000Y-60960000D02*
X129540000Y-60960000D01*
X101600000Y-77470000D02*
X101600000Y-81280000D01*
X100330000Y-77470000D02*
X101600000Y-77470000D01*
X101600000Y-60960000D02*
X101600000Y-64770000D01*
X101600000Y-64770000D02*
X100330000Y-64770000D01*
X129540000Y-81280000D02*
X101600000Y-81280000D01*
X100330000Y-77470000D02*
X100330000Y-64770000D01*
D11*
%TO.C,C1*%
X109200000Y-72720000D02*
X106700000Y-72720000D01*
X106700000Y-72720000D02*
X106700000Y-69520000D01*
X106700000Y-69520000D02*
X109200000Y-69520000D01*
X109200000Y-69520000D02*
X109200000Y-72720000D01*
%TO.C,C2*%
X110890000Y-70320000D02*
X110890000Y-71920000D01*
X110090000Y-70320000D02*
X110890000Y-70320000D01*
X110090000Y-71920000D02*
X110090000Y-70320000D01*
X110890000Y-71920000D02*
X110090000Y-71920000D01*
%TO.C,C3*%
X112795000Y-71920000D02*
X111995000Y-71920000D01*
X111995000Y-71920000D02*
X111995000Y-70320000D01*
X111995000Y-70320000D02*
X112795000Y-70320000D01*
X112795000Y-70320000D02*
X112795000Y-71920000D01*
%TO.C,C4*%
X114700000Y-70320000D02*
X114700000Y-71920000D01*
X113900000Y-70320000D02*
X114700000Y-70320000D01*
X113900000Y-71920000D02*
X113900000Y-70320000D01*
X114700000Y-71920000D02*
X113900000Y-71920000D01*
%TO.C,C5*%
X116605000Y-71920000D02*
X115805000Y-71920000D01*
X115805000Y-71920000D02*
X115805000Y-70320000D01*
X115805000Y-70320000D02*
X116605000Y-70320000D01*
X116605000Y-70320000D02*
X116605000Y-71920000D01*
%TO.C,C6*%
X108350000Y-63970000D02*
X108350000Y-65570000D01*
X107550000Y-63970000D02*
X108350000Y-63970000D01*
X107550000Y-65570000D02*
X107550000Y-63970000D01*
X108350000Y-65570000D02*
X107550000Y-65570000D01*
%TO.C,C7*%
X124244000Y-77362000D02*
X122644000Y-77362000D01*
X124244000Y-76562000D02*
X124244000Y-77362000D01*
X122644000Y-76562000D02*
X124244000Y-76562000D01*
X122644000Y-77362000D02*
X122644000Y-76562000D01*
%TO.C,C8*%
X122644000Y-65678000D02*
X122644000Y-64878000D01*
X122644000Y-64878000D02*
X124244000Y-64878000D01*
X124244000Y-64878000D02*
X124244000Y-65678000D01*
X124244000Y-65678000D02*
X122644000Y-65678000D01*
%TO.C,C9*%
X108350000Y-78270000D02*
X107550000Y-78270000D01*
X107550000Y-78270000D02*
X107550000Y-76670000D01*
X107550000Y-76670000D02*
X108350000Y-76670000D01*
X108350000Y-76670000D02*
X108350000Y-78270000D01*
%TO.C,FB1*%
X109690000Y-65640000D02*
X111290000Y-65640000D01*
X109690000Y-66440000D02*
X109690000Y-65640000D01*
X111290000Y-66440000D02*
X109690000Y-66440000D01*
X111290000Y-65640000D02*
X111290000Y-66440000D01*
%TO.C,FB2*%
X111290000Y-75800000D02*
X111290000Y-76600000D01*
X111290000Y-76600000D02*
X109690000Y-76600000D01*
X109690000Y-76600000D02*
X109690000Y-75800000D01*
X109690000Y-75800000D02*
X111290000Y-75800000D01*
%TO.C,J1*%
X105410000Y-69215000D02*
X104775000Y-69850000D01*
X105410000Y-67310000D02*
X105410000Y-69215000D01*
X102870000Y-67310000D02*
X105410000Y-67310000D01*
X101600000Y-67310000D02*
X102870000Y-67310000D01*
X104775000Y-69850000D02*
X101600000Y-69850000D01*
D12*
X101600000Y-70485000D02*
X101600000Y-66675000D01*
%TO.C,J2*%
X101600000Y-73025000D02*
X101600000Y-69215000D01*
D11*
X104775000Y-72390000D02*
X101600000Y-72390000D01*
X101600000Y-69850000D02*
X102870000Y-69850000D01*
X102870000Y-69850000D02*
X105410000Y-69850000D01*
X105410000Y-69850000D02*
X105410000Y-71755000D01*
X105410000Y-71755000D02*
X104775000Y-72390000D01*
D12*
%TO.C,J3*%
X101600000Y-75565000D02*
X101600000Y-71755000D01*
D11*
X104775000Y-74930000D02*
X101600000Y-74930000D01*
X101600000Y-72390000D02*
X102870000Y-72390000D01*
X102870000Y-72390000D02*
X105410000Y-72390000D01*
X105410000Y-72390000D02*
X105410000Y-74295000D01*
X105410000Y-74295000D02*
X104775000Y-74930000D01*
%TO.C,J4*%
X125730000Y-65405000D02*
X126365000Y-64770000D01*
X125730000Y-67310000D02*
X125730000Y-65405000D01*
X128270000Y-67310000D02*
X125730000Y-67310000D01*
X129540000Y-67310000D02*
X128270000Y-67310000D01*
X126365000Y-64770000D02*
X129540000Y-64770000D01*
D12*
X129540000Y-64135000D02*
X129540000Y-67945000D01*
%TO.C,J5*%
X101600000Y-67945000D02*
X101600000Y-64135000D01*
D11*
X104775000Y-67310000D02*
X101600000Y-67310000D01*
X101600000Y-64770000D02*
X102870000Y-64770000D01*
X102870000Y-64770000D02*
X105410000Y-64770000D01*
X105410000Y-64770000D02*
X105410000Y-66675000D01*
X105410000Y-66675000D02*
X104775000Y-67310000D01*
%TO.C,J6*%
X105410000Y-76835000D02*
X104775000Y-77470000D01*
X105410000Y-74930000D02*
X105410000Y-76835000D01*
X102870000Y-74930000D02*
X105410000Y-74930000D01*
X101600000Y-74930000D02*
X102870000Y-74930000D01*
X104775000Y-77470000D02*
X101600000Y-77470000D01*
D12*
X101600000Y-78105000D02*
X101600000Y-74295000D01*
D11*
%TO.C,R1*%
X124244000Y-74784000D02*
X124244000Y-75584000D01*
X124244000Y-75584000D02*
X122644000Y-75584000D01*
X122644000Y-75584000D02*
X122644000Y-74784000D01*
X122644000Y-74784000D02*
X124244000Y-74784000D01*
%TO.C,R2*%
X122644000Y-66656000D02*
X124244000Y-66656000D01*
X122644000Y-67456000D02*
X122644000Y-66656000D01*
X124244000Y-67456000D02*
X122644000Y-67456000D01*
X124244000Y-66656000D02*
X124244000Y-67456000D01*
%TO.C,U1*%
X122387000Y-73570000D02*
X119462000Y-73570000D01*
X119462000Y-73570000D02*
X119462000Y-68670000D01*
X119462000Y-68670000D02*
X123362000Y-68670000D01*
X123362000Y-68670000D02*
X123362000Y-72595000D01*
X123362000Y-72595000D02*
X122387000Y-73570000D01*
%TD*%
%TO.C,C1*%
D13*
X110682380Y-72191428D02*
X110682380Y-72762857D01*
X110682380Y-72477142D02*
X109682380Y-72477142D01*
X109825238Y-72572380D01*
X109920476Y-72667619D01*
X109968095Y-72762857D01*
X109682380Y-71572380D02*
X109682380Y-71477142D01*
X109730000Y-71381904D01*
X109777619Y-71334285D01*
X109872857Y-71286666D01*
X110063333Y-71239047D01*
X110301428Y-71239047D01*
X110491904Y-71286666D01*
X110587142Y-71334285D01*
X110634761Y-71381904D01*
X110682380Y-71477142D01*
X110682380Y-71572380D01*
X110634761Y-71667619D01*
X110587142Y-71715238D01*
X110491904Y-71762857D01*
X110301428Y-71810476D01*
X110063333Y-71810476D01*
X109872857Y-71762857D01*
X109777619Y-71715238D01*
X109730000Y-71667619D01*
X109682380Y-71572380D01*
X110015714Y-70381904D02*
X110682380Y-70381904D01*
X110015714Y-70810476D02*
X110539523Y-70810476D01*
X110634761Y-70762857D01*
X110682380Y-70667619D01*
X110682380Y-70524761D01*
X110634761Y-70429523D01*
X110587142Y-70381904D01*
X110158571Y-69572380D02*
X110158571Y-69905714D01*
X110682380Y-69905714D02*
X109682380Y-69905714D01*
X109682380Y-69429523D01*
D12*
X108235714Y-71253333D02*
X108273809Y-71291428D01*
X108311904Y-71405714D01*
X108311904Y-71481904D01*
X108273809Y-71596190D01*
X108197619Y-71672380D01*
X108121428Y-71710476D01*
X107969047Y-71748571D01*
X107854761Y-71748571D01*
X107702380Y-71710476D01*
X107626190Y-71672380D01*
X107550000Y-71596190D01*
X107511904Y-71481904D01*
X107511904Y-71405714D01*
X107550000Y-71291428D01*
X107588095Y-71253333D01*
X108311904Y-70491428D02*
X108311904Y-70948571D01*
X108311904Y-70720000D02*
X107511904Y-70720000D01*
X107626190Y-70796190D01*
X107702380Y-70872380D01*
X107740476Y-70948571D01*
%TO.C,C2*%
D13*
X112372380Y-71715238D02*
X112372380Y-72286666D01*
X112372380Y-72000952D02*
X111372380Y-72000952D01*
X111515238Y-72096190D01*
X111610476Y-72191428D01*
X111658095Y-72286666D01*
X111705714Y-70858095D02*
X112372380Y-70858095D01*
X111705714Y-71286666D02*
X112229523Y-71286666D01*
X112324761Y-71239047D01*
X112372380Y-71143809D01*
X112372380Y-71000952D01*
X112324761Y-70905714D01*
X112277142Y-70858095D01*
X111848571Y-70048571D02*
X111848571Y-70381904D01*
X112372380Y-70381904D02*
X111372380Y-70381904D01*
X111372380Y-69905714D01*
D14*
X110632857Y-71186666D02*
X110651904Y-71205714D01*
X110670952Y-71262857D01*
X110670952Y-71300952D01*
X110651904Y-71358095D01*
X110613809Y-71396190D01*
X110575714Y-71415238D01*
X110499523Y-71434285D01*
X110442380Y-71434285D01*
X110366190Y-71415238D01*
X110328095Y-71396190D01*
X110290000Y-71358095D01*
X110270952Y-71300952D01*
X110270952Y-71262857D01*
X110290000Y-71205714D01*
X110309047Y-71186666D01*
X110309047Y-71034285D02*
X110290000Y-71015238D01*
X110270952Y-70977142D01*
X110270952Y-70881904D01*
X110290000Y-70843809D01*
X110309047Y-70824761D01*
X110347142Y-70805714D01*
X110385238Y-70805714D01*
X110442380Y-70824761D01*
X110670952Y-71053333D01*
X110670952Y-70805714D01*
%TO.C,C3*%
D13*
X114277380Y-72667619D02*
X114277380Y-73239047D01*
X114277380Y-72953333D02*
X113277380Y-72953333D01*
X113420238Y-73048571D01*
X113515476Y-73143809D01*
X113563095Y-73239047D01*
X113277380Y-72048571D02*
X113277380Y-71953333D01*
X113325000Y-71858095D01*
X113372619Y-71810476D01*
X113467857Y-71762857D01*
X113658333Y-71715238D01*
X113896428Y-71715238D01*
X114086904Y-71762857D01*
X114182142Y-71810476D01*
X114229761Y-71858095D01*
X114277380Y-71953333D01*
X114277380Y-72048571D01*
X114229761Y-72143809D01*
X114182142Y-72191428D01*
X114086904Y-72239047D01*
X113896428Y-72286666D01*
X113658333Y-72286666D01*
X113467857Y-72239047D01*
X113372619Y-72191428D01*
X113325000Y-72143809D01*
X113277380Y-72048571D01*
X113277380Y-71096190D02*
X113277380Y-71000952D01*
X113325000Y-70905714D01*
X113372619Y-70858095D01*
X113467857Y-70810476D01*
X113658333Y-70762857D01*
X113896428Y-70762857D01*
X114086904Y-70810476D01*
X114182142Y-70858095D01*
X114229761Y-70905714D01*
X114277380Y-71000952D01*
X114277380Y-71096190D01*
X114229761Y-71191428D01*
X114182142Y-71239047D01*
X114086904Y-71286666D01*
X113896428Y-71334285D01*
X113658333Y-71334285D01*
X113467857Y-71286666D01*
X113372619Y-71239047D01*
X113325000Y-71191428D01*
X113277380Y-71096190D01*
X113610714Y-70334285D02*
X114277380Y-70334285D01*
X113705952Y-70334285D02*
X113658333Y-70286666D01*
X113610714Y-70191428D01*
X113610714Y-70048571D01*
X113658333Y-69953333D01*
X113753571Y-69905714D01*
X114277380Y-69905714D01*
X113753571Y-69096190D02*
X113753571Y-69429523D01*
X114277380Y-69429523D02*
X113277380Y-69429523D01*
X113277380Y-68953333D01*
D14*
X112537857Y-71186666D02*
X112556904Y-71205714D01*
X112575952Y-71262857D01*
X112575952Y-71300952D01*
X112556904Y-71358095D01*
X112518809Y-71396190D01*
X112480714Y-71415238D01*
X112404523Y-71434285D01*
X112347380Y-71434285D01*
X112271190Y-71415238D01*
X112233095Y-71396190D01*
X112195000Y-71358095D01*
X112175952Y-71300952D01*
X112175952Y-71262857D01*
X112195000Y-71205714D01*
X112214047Y-71186666D01*
X112175952Y-71053333D02*
X112175952Y-70805714D01*
X112328333Y-70939047D01*
X112328333Y-70881904D01*
X112347380Y-70843809D01*
X112366428Y-70824761D01*
X112404523Y-70805714D01*
X112499761Y-70805714D01*
X112537857Y-70824761D01*
X112556904Y-70843809D01*
X112575952Y-70881904D01*
X112575952Y-70996190D01*
X112556904Y-71034285D01*
X112537857Y-71053333D01*
%TO.C,C4*%
D13*
X116182380Y-71715238D02*
X116182380Y-72286666D01*
X116182380Y-72000952D02*
X115182380Y-72000952D01*
X115325238Y-72096190D01*
X115420476Y-72191428D01*
X115468095Y-72286666D01*
X115515714Y-71286666D02*
X116182380Y-71286666D01*
X115610952Y-71286666D02*
X115563333Y-71239047D01*
X115515714Y-71143809D01*
X115515714Y-71000952D01*
X115563333Y-70905714D01*
X115658571Y-70858095D01*
X116182380Y-70858095D01*
X115658571Y-70048571D02*
X115658571Y-70381904D01*
X116182380Y-70381904D02*
X115182380Y-70381904D01*
X115182380Y-69905714D01*
D14*
X114442857Y-71186666D02*
X114461904Y-71205714D01*
X114480952Y-71262857D01*
X114480952Y-71300952D01*
X114461904Y-71358095D01*
X114423809Y-71396190D01*
X114385714Y-71415238D01*
X114309523Y-71434285D01*
X114252380Y-71434285D01*
X114176190Y-71415238D01*
X114138095Y-71396190D01*
X114100000Y-71358095D01*
X114080952Y-71300952D01*
X114080952Y-71262857D01*
X114100000Y-71205714D01*
X114119047Y-71186666D01*
X114214285Y-70843809D02*
X114480952Y-70843809D01*
X114061904Y-70939047D02*
X114347619Y-71034285D01*
X114347619Y-70786666D01*
%TO.C,C5*%
D13*
X117182619Y-73239047D02*
X117135000Y-73191428D01*
X117087380Y-73096190D01*
X117087380Y-72858095D01*
X117135000Y-72762857D01*
X117182619Y-72715238D01*
X117277857Y-72667619D01*
X117373095Y-72667619D01*
X117515952Y-72715238D01*
X118087380Y-73286666D01*
X118087380Y-72667619D01*
X117182619Y-72286666D02*
X117135000Y-72239047D01*
X117087380Y-72143809D01*
X117087380Y-71905714D01*
X117135000Y-71810476D01*
X117182619Y-71762857D01*
X117277857Y-71715238D01*
X117373095Y-71715238D01*
X117515952Y-71762857D01*
X118087380Y-72334285D01*
X118087380Y-71715238D01*
X117087380Y-71096190D02*
X117087380Y-71000952D01*
X117135000Y-70905714D01*
X117182619Y-70858095D01*
X117277857Y-70810476D01*
X117468333Y-70762857D01*
X117706428Y-70762857D01*
X117896904Y-70810476D01*
X117992142Y-70858095D01*
X118039761Y-70905714D01*
X118087380Y-71000952D01*
X118087380Y-71096190D01*
X118039761Y-71191428D01*
X117992142Y-71239047D01*
X117896904Y-71286666D01*
X117706428Y-71334285D01*
X117468333Y-71334285D01*
X117277857Y-71286666D01*
X117182619Y-71239047D01*
X117135000Y-71191428D01*
X117087380Y-71096190D01*
X117420714Y-70334285D02*
X118420714Y-70334285D01*
X117468333Y-70334285D02*
X117420714Y-70239047D01*
X117420714Y-70048571D01*
X117468333Y-69953333D01*
X117515952Y-69905714D01*
X117611190Y-69858095D01*
X117896904Y-69858095D01*
X117992142Y-69905714D01*
X118039761Y-69953333D01*
X118087380Y-70048571D01*
X118087380Y-70239047D01*
X118039761Y-70334285D01*
X117563571Y-69096190D02*
X117563571Y-69429523D01*
X118087380Y-69429523D02*
X117087380Y-69429523D01*
X117087380Y-68953333D01*
D14*
X116347857Y-71186666D02*
X116366904Y-71205714D01*
X116385952Y-71262857D01*
X116385952Y-71300952D01*
X116366904Y-71358095D01*
X116328809Y-71396190D01*
X116290714Y-71415238D01*
X116214523Y-71434285D01*
X116157380Y-71434285D01*
X116081190Y-71415238D01*
X116043095Y-71396190D01*
X116005000Y-71358095D01*
X115985952Y-71300952D01*
X115985952Y-71262857D01*
X116005000Y-71205714D01*
X116024047Y-71186666D01*
X115985952Y-70824761D02*
X115985952Y-71015238D01*
X116176428Y-71034285D01*
X116157380Y-71015238D01*
X116138333Y-70977142D01*
X116138333Y-70881904D01*
X116157380Y-70843809D01*
X116176428Y-70824761D01*
X116214523Y-70805714D01*
X116309761Y-70805714D01*
X116347857Y-70824761D01*
X116366904Y-70843809D01*
X116385952Y-70881904D01*
X116385952Y-70977142D01*
X116366904Y-71015238D01*
X116347857Y-71034285D01*
%TO.C,C6*%
D13*
X108927619Y-66889047D02*
X108880000Y-66841428D01*
X108832380Y-66746190D01*
X108832380Y-66508095D01*
X108880000Y-66412857D01*
X108927619Y-66365238D01*
X109022857Y-66317619D01*
X109118095Y-66317619D01*
X109260952Y-66365238D01*
X109832380Y-66936666D01*
X109832380Y-66317619D01*
X108927619Y-65936666D02*
X108880000Y-65889047D01*
X108832380Y-65793809D01*
X108832380Y-65555714D01*
X108880000Y-65460476D01*
X108927619Y-65412857D01*
X109022857Y-65365238D01*
X109118095Y-65365238D01*
X109260952Y-65412857D01*
X109832380Y-65984285D01*
X109832380Y-65365238D01*
X108832380Y-64746190D02*
X108832380Y-64650952D01*
X108880000Y-64555714D01*
X108927619Y-64508095D01*
X109022857Y-64460476D01*
X109213333Y-64412857D01*
X109451428Y-64412857D01*
X109641904Y-64460476D01*
X109737142Y-64508095D01*
X109784761Y-64555714D01*
X109832380Y-64650952D01*
X109832380Y-64746190D01*
X109784761Y-64841428D01*
X109737142Y-64889047D01*
X109641904Y-64936666D01*
X109451428Y-64984285D01*
X109213333Y-64984285D01*
X109022857Y-64936666D01*
X108927619Y-64889047D01*
X108880000Y-64841428D01*
X108832380Y-64746190D01*
X109165714Y-63984285D02*
X110165714Y-63984285D01*
X109213333Y-63984285D02*
X109165714Y-63889047D01*
X109165714Y-63698571D01*
X109213333Y-63603333D01*
X109260952Y-63555714D01*
X109356190Y-63508095D01*
X109641904Y-63508095D01*
X109737142Y-63555714D01*
X109784761Y-63603333D01*
X109832380Y-63698571D01*
X109832380Y-63889047D01*
X109784761Y-63984285D01*
X109308571Y-62746190D02*
X109308571Y-63079523D01*
X109832380Y-63079523D02*
X108832380Y-63079523D01*
X108832380Y-62603333D01*
D14*
X108092857Y-64836666D02*
X108111904Y-64855714D01*
X108130952Y-64912857D01*
X108130952Y-64950952D01*
X108111904Y-65008095D01*
X108073809Y-65046190D01*
X108035714Y-65065238D01*
X107959523Y-65084285D01*
X107902380Y-65084285D01*
X107826190Y-65065238D01*
X107788095Y-65046190D01*
X107750000Y-65008095D01*
X107730952Y-64950952D01*
X107730952Y-64912857D01*
X107750000Y-64855714D01*
X107769047Y-64836666D01*
X107730952Y-64493809D02*
X107730952Y-64570000D01*
X107750000Y-64608095D01*
X107769047Y-64627142D01*
X107826190Y-64665238D01*
X107902380Y-64684285D01*
X108054761Y-64684285D01*
X108092857Y-64665238D01*
X108111904Y-64646190D01*
X108130952Y-64608095D01*
X108130952Y-64531904D01*
X108111904Y-64493809D01*
X108092857Y-64474761D01*
X108054761Y-64455714D01*
X107959523Y-64455714D01*
X107921428Y-64474761D01*
X107902380Y-64493809D01*
X107883333Y-64531904D01*
X107883333Y-64608095D01*
X107902380Y-64646190D01*
X107921428Y-64665238D01*
X107959523Y-64684285D01*
%TO.C,C7*%
D13*
X121896380Y-78844380D02*
X121324952Y-78844380D01*
X121610666Y-78844380D02*
X121610666Y-77844380D01*
X121515428Y-77987238D01*
X121420190Y-78082476D01*
X121324952Y-78130095D01*
X122515428Y-77844380D02*
X122610666Y-77844380D01*
X122705904Y-77892000D01*
X122753523Y-77939619D01*
X122801142Y-78034857D01*
X122848761Y-78225333D01*
X122848761Y-78463428D01*
X122801142Y-78653904D01*
X122753523Y-78749142D01*
X122705904Y-78796761D01*
X122610666Y-78844380D01*
X122515428Y-78844380D01*
X122420190Y-78796761D01*
X122372571Y-78749142D01*
X122324952Y-78653904D01*
X122277333Y-78463428D01*
X122277333Y-78225333D01*
X122324952Y-78034857D01*
X122372571Y-77939619D01*
X122420190Y-77892000D01*
X122515428Y-77844380D01*
X123467809Y-77844380D02*
X123563047Y-77844380D01*
X123658285Y-77892000D01*
X123705904Y-77939619D01*
X123753523Y-78034857D01*
X123801142Y-78225333D01*
X123801142Y-78463428D01*
X123753523Y-78653904D01*
X123705904Y-78749142D01*
X123658285Y-78796761D01*
X123563047Y-78844380D01*
X123467809Y-78844380D01*
X123372571Y-78796761D01*
X123324952Y-78749142D01*
X123277333Y-78653904D01*
X123229714Y-78463428D01*
X123229714Y-78225333D01*
X123277333Y-78034857D01*
X123324952Y-77939619D01*
X123372571Y-77892000D01*
X123467809Y-77844380D01*
X124229714Y-78177714D02*
X124229714Y-78844380D01*
X124229714Y-78272952D02*
X124277333Y-78225333D01*
X124372571Y-78177714D01*
X124515428Y-78177714D01*
X124610666Y-78225333D01*
X124658285Y-78320571D01*
X124658285Y-78844380D01*
X125467809Y-78320571D02*
X125134476Y-78320571D01*
X125134476Y-78844380D02*
X125134476Y-77844380D01*
X125610666Y-77844380D01*
D14*
X123377333Y-77104857D02*
X123358285Y-77123904D01*
X123301142Y-77142952D01*
X123263047Y-77142952D01*
X123205904Y-77123904D01*
X123167809Y-77085809D01*
X123148761Y-77047714D01*
X123129714Y-76971523D01*
X123129714Y-76914380D01*
X123148761Y-76838190D01*
X123167809Y-76800095D01*
X123205904Y-76762000D01*
X123263047Y-76742952D01*
X123301142Y-76742952D01*
X123358285Y-76762000D01*
X123377333Y-76781047D01*
X123510666Y-76742952D02*
X123777333Y-76742952D01*
X123605904Y-77142952D01*
%TO.C,C8*%
D13*
X121896380Y-67160380D02*
X121324952Y-67160380D01*
X121610666Y-67160380D02*
X121610666Y-66160380D01*
X121515428Y-66303238D01*
X121420190Y-66398476D01*
X121324952Y-66446095D01*
X122515428Y-66160380D02*
X122610666Y-66160380D01*
X122705904Y-66208000D01*
X122753523Y-66255619D01*
X122801142Y-66350857D01*
X122848761Y-66541333D01*
X122848761Y-66779428D01*
X122801142Y-66969904D01*
X122753523Y-67065142D01*
X122705904Y-67112761D01*
X122610666Y-67160380D01*
X122515428Y-67160380D01*
X122420190Y-67112761D01*
X122372571Y-67065142D01*
X122324952Y-66969904D01*
X122277333Y-66779428D01*
X122277333Y-66541333D01*
X122324952Y-66350857D01*
X122372571Y-66255619D01*
X122420190Y-66208000D01*
X122515428Y-66160380D01*
X123467809Y-66160380D02*
X123563047Y-66160380D01*
X123658285Y-66208000D01*
X123705904Y-66255619D01*
X123753523Y-66350857D01*
X123801142Y-66541333D01*
X123801142Y-66779428D01*
X123753523Y-66969904D01*
X123705904Y-67065142D01*
X123658285Y-67112761D01*
X123563047Y-67160380D01*
X123467809Y-67160380D01*
X123372571Y-67112761D01*
X123324952Y-67065142D01*
X123277333Y-66969904D01*
X123229714Y-66779428D01*
X123229714Y-66541333D01*
X123277333Y-66350857D01*
X123324952Y-66255619D01*
X123372571Y-66208000D01*
X123467809Y-66160380D01*
X124229714Y-66493714D02*
X124229714Y-67160380D01*
X124229714Y-66588952D02*
X124277333Y-66541333D01*
X124372571Y-66493714D01*
X124515428Y-66493714D01*
X124610666Y-66541333D01*
X124658285Y-66636571D01*
X124658285Y-67160380D01*
X125467809Y-66636571D02*
X125134476Y-66636571D01*
X125134476Y-67160380D02*
X125134476Y-66160380D01*
X125610666Y-66160380D01*
D14*
X123377333Y-65420857D02*
X123358285Y-65439904D01*
X123301142Y-65458952D01*
X123263047Y-65458952D01*
X123205904Y-65439904D01*
X123167809Y-65401809D01*
X123148761Y-65363714D01*
X123129714Y-65287523D01*
X123129714Y-65230380D01*
X123148761Y-65154190D01*
X123167809Y-65116095D01*
X123205904Y-65078000D01*
X123263047Y-65058952D01*
X123301142Y-65058952D01*
X123358285Y-65078000D01*
X123377333Y-65097047D01*
X123605904Y-65230380D02*
X123567809Y-65211333D01*
X123548761Y-65192285D01*
X123529714Y-65154190D01*
X123529714Y-65135142D01*
X123548761Y-65097047D01*
X123567809Y-65078000D01*
X123605904Y-65058952D01*
X123682095Y-65058952D01*
X123720190Y-65078000D01*
X123739238Y-65097047D01*
X123758285Y-65135142D01*
X123758285Y-65154190D01*
X123739238Y-65192285D01*
X123720190Y-65211333D01*
X123682095Y-65230380D01*
X123605904Y-65230380D01*
X123567809Y-65249428D01*
X123548761Y-65268476D01*
X123529714Y-65306571D01*
X123529714Y-65382761D01*
X123548761Y-65420857D01*
X123567809Y-65439904D01*
X123605904Y-65458952D01*
X123682095Y-65458952D01*
X123720190Y-65439904D01*
X123739238Y-65420857D01*
X123758285Y-65382761D01*
X123758285Y-65306571D01*
X123739238Y-65268476D01*
X123720190Y-65249428D01*
X123682095Y-65230380D01*
%TO.C,C9*%
D13*
X108927619Y-79589047D02*
X108880000Y-79541428D01*
X108832380Y-79446190D01*
X108832380Y-79208095D01*
X108880000Y-79112857D01*
X108927619Y-79065238D01*
X109022857Y-79017619D01*
X109118095Y-79017619D01*
X109260952Y-79065238D01*
X109832380Y-79636666D01*
X109832380Y-79017619D01*
X108927619Y-78636666D02*
X108880000Y-78589047D01*
X108832380Y-78493809D01*
X108832380Y-78255714D01*
X108880000Y-78160476D01*
X108927619Y-78112857D01*
X109022857Y-78065238D01*
X109118095Y-78065238D01*
X109260952Y-78112857D01*
X109832380Y-78684285D01*
X109832380Y-78065238D01*
X108832380Y-77446190D02*
X108832380Y-77350952D01*
X108880000Y-77255714D01*
X108927619Y-77208095D01*
X109022857Y-77160476D01*
X109213333Y-77112857D01*
X109451428Y-77112857D01*
X109641904Y-77160476D01*
X109737142Y-77208095D01*
X109784761Y-77255714D01*
X109832380Y-77350952D01*
X109832380Y-77446190D01*
X109784761Y-77541428D01*
X109737142Y-77589047D01*
X109641904Y-77636666D01*
X109451428Y-77684285D01*
X109213333Y-77684285D01*
X109022857Y-77636666D01*
X108927619Y-77589047D01*
X108880000Y-77541428D01*
X108832380Y-77446190D01*
X109165714Y-76684285D02*
X110165714Y-76684285D01*
X109213333Y-76684285D02*
X109165714Y-76589047D01*
X109165714Y-76398571D01*
X109213333Y-76303333D01*
X109260952Y-76255714D01*
X109356190Y-76208095D01*
X109641904Y-76208095D01*
X109737142Y-76255714D01*
X109784761Y-76303333D01*
X109832380Y-76398571D01*
X109832380Y-76589047D01*
X109784761Y-76684285D01*
X109308571Y-75446190D02*
X109308571Y-75779523D01*
X109832380Y-75779523D02*
X108832380Y-75779523D01*
X108832380Y-75303333D01*
D14*
X108092857Y-77536666D02*
X108111904Y-77555714D01*
X108130952Y-77612857D01*
X108130952Y-77650952D01*
X108111904Y-77708095D01*
X108073809Y-77746190D01*
X108035714Y-77765238D01*
X107959523Y-77784285D01*
X107902380Y-77784285D01*
X107826190Y-77765238D01*
X107788095Y-77746190D01*
X107750000Y-77708095D01*
X107730952Y-77650952D01*
X107730952Y-77612857D01*
X107750000Y-77555714D01*
X107769047Y-77536666D01*
X108130952Y-77346190D02*
X108130952Y-77270000D01*
X108111904Y-77231904D01*
X108092857Y-77212857D01*
X108035714Y-77174761D01*
X107959523Y-77155714D01*
X107807142Y-77155714D01*
X107769047Y-77174761D01*
X107750000Y-77193809D01*
X107730952Y-77231904D01*
X107730952Y-77308095D01*
X107750000Y-77346190D01*
X107769047Y-77365238D01*
X107807142Y-77384285D01*
X107902380Y-77384285D01*
X107940476Y-77365238D01*
X107959523Y-77346190D01*
X107978571Y-77308095D01*
X107978571Y-77231904D01*
X107959523Y-77193809D01*
X107940476Y-77174761D01*
X107902380Y-77155714D01*
%TO.C,FB1*%
D13*
X106418571Y-64538571D02*
X106085238Y-64538571D01*
X106085238Y-65062380D02*
X106085238Y-64062380D01*
X106561428Y-64062380D01*
X107323333Y-65014761D02*
X107228095Y-65062380D01*
X107037619Y-65062380D01*
X106942380Y-65014761D01*
X106894761Y-64919523D01*
X106894761Y-64538571D01*
X106942380Y-64443333D01*
X107037619Y-64395714D01*
X107228095Y-64395714D01*
X107323333Y-64443333D01*
X107370952Y-64538571D01*
X107370952Y-64633809D01*
X106894761Y-64729047D01*
X107799523Y-65062380D02*
X107799523Y-64395714D01*
X107799523Y-64586190D02*
X107847142Y-64490952D01*
X107894761Y-64443333D01*
X107990000Y-64395714D01*
X108085238Y-64395714D01*
X108418571Y-65062380D02*
X108418571Y-64395714D01*
X108418571Y-64586190D02*
X108466190Y-64490952D01*
X108513809Y-64443333D01*
X108609047Y-64395714D01*
X108704285Y-64395714D01*
X109037619Y-65062380D02*
X109037619Y-64395714D01*
X109037619Y-64062380D02*
X108990000Y-64110000D01*
X109037619Y-64157619D01*
X109085238Y-64110000D01*
X109037619Y-64062380D01*
X109037619Y-64157619D01*
X109370952Y-64395714D02*
X109751904Y-64395714D01*
X109513809Y-64062380D02*
X109513809Y-64919523D01*
X109561428Y-65014761D01*
X109656666Y-65062380D01*
X109751904Y-65062380D01*
X110466190Y-65014761D02*
X110370952Y-65062380D01*
X110180476Y-65062380D01*
X110085238Y-65014761D01*
X110037619Y-64919523D01*
X110037619Y-64538571D01*
X110085238Y-64443333D01*
X110180476Y-64395714D01*
X110370952Y-64395714D01*
X110466190Y-64443333D01*
X110513809Y-64538571D01*
X110513809Y-64633809D01*
X110037619Y-64729047D01*
X110704285Y-65157619D02*
X111466190Y-65157619D01*
X112037619Y-64538571D02*
X112180476Y-64586190D01*
X112228095Y-64633809D01*
X112275714Y-64729047D01*
X112275714Y-64871904D01*
X112228095Y-64967142D01*
X112180476Y-65014761D01*
X112085238Y-65062380D01*
X111704285Y-65062380D01*
X111704285Y-64062380D01*
X112037619Y-64062380D01*
X112132857Y-64110000D01*
X112180476Y-64157619D01*
X112228095Y-64252857D01*
X112228095Y-64348095D01*
X112180476Y-64443333D01*
X112132857Y-64490952D01*
X112037619Y-64538571D01*
X111704285Y-64538571D01*
X113085238Y-65014761D02*
X112990000Y-65062380D01*
X112799523Y-65062380D01*
X112704285Y-65014761D01*
X112656666Y-64919523D01*
X112656666Y-64538571D01*
X112704285Y-64443333D01*
X112799523Y-64395714D01*
X112990000Y-64395714D01*
X113085238Y-64443333D01*
X113132857Y-64538571D01*
X113132857Y-64633809D01*
X112656666Y-64729047D01*
X113990000Y-65062380D02*
X113990000Y-64538571D01*
X113942380Y-64443333D01*
X113847142Y-64395714D01*
X113656666Y-64395714D01*
X113561428Y-64443333D01*
X113990000Y-65014761D02*
X113894761Y-65062380D01*
X113656666Y-65062380D01*
X113561428Y-65014761D01*
X113513809Y-64919523D01*
X113513809Y-64824285D01*
X113561428Y-64729047D01*
X113656666Y-64681428D01*
X113894761Y-64681428D01*
X113990000Y-64633809D01*
X114894761Y-65062380D02*
X114894761Y-64062380D01*
X114894761Y-65014761D02*
X114799523Y-65062380D01*
X114609047Y-65062380D01*
X114513809Y-65014761D01*
X114466190Y-64967142D01*
X114418571Y-64871904D01*
X114418571Y-64586190D01*
X114466190Y-64490952D01*
X114513809Y-64443333D01*
X114609047Y-64395714D01*
X114799523Y-64395714D01*
X114894761Y-64443333D01*
D14*
X110156666Y-66011428D02*
X110023333Y-66011428D01*
X110023333Y-66220952D02*
X110023333Y-65820952D01*
X110213809Y-65820952D01*
X110499523Y-66011428D02*
X110556666Y-66030476D01*
X110575714Y-66049523D01*
X110594761Y-66087619D01*
X110594761Y-66144761D01*
X110575714Y-66182857D01*
X110556666Y-66201904D01*
X110518571Y-66220952D01*
X110366190Y-66220952D01*
X110366190Y-65820952D01*
X110499523Y-65820952D01*
X110537619Y-65840000D01*
X110556666Y-65859047D01*
X110575714Y-65897142D01*
X110575714Y-65935238D01*
X110556666Y-65973333D01*
X110537619Y-65992380D01*
X110499523Y-66011428D01*
X110366190Y-66011428D01*
X110975714Y-66220952D02*
X110747142Y-66220952D01*
X110861428Y-66220952D02*
X110861428Y-65820952D01*
X110823333Y-65878095D01*
X110785238Y-65916190D01*
X110747142Y-65935238D01*
%TO.C,FB2*%
D13*
X106418571Y-74698571D02*
X106085238Y-74698571D01*
X106085238Y-75222380D02*
X106085238Y-74222380D01*
X106561428Y-74222380D01*
X107323333Y-75174761D02*
X107228095Y-75222380D01*
X107037619Y-75222380D01*
X106942380Y-75174761D01*
X106894761Y-75079523D01*
X106894761Y-74698571D01*
X106942380Y-74603333D01*
X107037619Y-74555714D01*
X107228095Y-74555714D01*
X107323333Y-74603333D01*
X107370952Y-74698571D01*
X107370952Y-74793809D01*
X106894761Y-74889047D01*
X107799523Y-75222380D02*
X107799523Y-74555714D01*
X107799523Y-74746190D02*
X107847142Y-74650952D01*
X107894761Y-74603333D01*
X107990000Y-74555714D01*
X108085238Y-74555714D01*
X108418571Y-75222380D02*
X108418571Y-74555714D01*
X108418571Y-74746190D02*
X108466190Y-74650952D01*
X108513809Y-74603333D01*
X108609047Y-74555714D01*
X108704285Y-74555714D01*
X109037619Y-75222380D02*
X109037619Y-74555714D01*
X109037619Y-74222380D02*
X108990000Y-74270000D01*
X109037619Y-74317619D01*
X109085238Y-74270000D01*
X109037619Y-74222380D01*
X109037619Y-74317619D01*
X109370952Y-74555714D02*
X109751904Y-74555714D01*
X109513809Y-74222380D02*
X109513809Y-75079523D01*
X109561428Y-75174761D01*
X109656666Y-75222380D01*
X109751904Y-75222380D01*
X110466190Y-75174761D02*
X110370952Y-75222380D01*
X110180476Y-75222380D01*
X110085238Y-75174761D01*
X110037619Y-75079523D01*
X110037619Y-74698571D01*
X110085238Y-74603333D01*
X110180476Y-74555714D01*
X110370952Y-74555714D01*
X110466190Y-74603333D01*
X110513809Y-74698571D01*
X110513809Y-74793809D01*
X110037619Y-74889047D01*
X110704285Y-75317619D02*
X111466190Y-75317619D01*
X112037619Y-74698571D02*
X112180476Y-74746190D01*
X112228095Y-74793809D01*
X112275714Y-74889047D01*
X112275714Y-75031904D01*
X112228095Y-75127142D01*
X112180476Y-75174761D01*
X112085238Y-75222380D01*
X111704285Y-75222380D01*
X111704285Y-74222380D01*
X112037619Y-74222380D01*
X112132857Y-74270000D01*
X112180476Y-74317619D01*
X112228095Y-74412857D01*
X112228095Y-74508095D01*
X112180476Y-74603333D01*
X112132857Y-74650952D01*
X112037619Y-74698571D01*
X111704285Y-74698571D01*
X113085238Y-75174761D02*
X112990000Y-75222380D01*
X112799523Y-75222380D01*
X112704285Y-75174761D01*
X112656666Y-75079523D01*
X112656666Y-74698571D01*
X112704285Y-74603333D01*
X112799523Y-74555714D01*
X112990000Y-74555714D01*
X113085238Y-74603333D01*
X113132857Y-74698571D01*
X113132857Y-74793809D01*
X112656666Y-74889047D01*
X113990000Y-75222380D02*
X113990000Y-74698571D01*
X113942380Y-74603333D01*
X113847142Y-74555714D01*
X113656666Y-74555714D01*
X113561428Y-74603333D01*
X113990000Y-75174761D02*
X113894761Y-75222380D01*
X113656666Y-75222380D01*
X113561428Y-75174761D01*
X113513809Y-75079523D01*
X113513809Y-74984285D01*
X113561428Y-74889047D01*
X113656666Y-74841428D01*
X113894761Y-74841428D01*
X113990000Y-74793809D01*
X114894761Y-75222380D02*
X114894761Y-74222380D01*
X114894761Y-75174761D02*
X114799523Y-75222380D01*
X114609047Y-75222380D01*
X114513809Y-75174761D01*
X114466190Y-75127142D01*
X114418571Y-75031904D01*
X114418571Y-74746190D01*
X114466190Y-74650952D01*
X114513809Y-74603333D01*
X114609047Y-74555714D01*
X114799523Y-74555714D01*
X114894761Y-74603333D01*
D14*
X110156666Y-76171428D02*
X110023333Y-76171428D01*
X110023333Y-76380952D02*
X110023333Y-75980952D01*
X110213809Y-75980952D01*
X110499523Y-76171428D02*
X110556666Y-76190476D01*
X110575714Y-76209523D01*
X110594761Y-76247619D01*
X110594761Y-76304761D01*
X110575714Y-76342857D01*
X110556666Y-76361904D01*
X110518571Y-76380952D01*
X110366190Y-76380952D01*
X110366190Y-75980952D01*
X110499523Y-75980952D01*
X110537619Y-76000000D01*
X110556666Y-76019047D01*
X110575714Y-76057142D01*
X110575714Y-76095238D01*
X110556666Y-76133333D01*
X110537619Y-76152380D01*
X110499523Y-76171428D01*
X110366190Y-76171428D01*
X110747142Y-76019047D02*
X110766190Y-76000000D01*
X110804285Y-75980952D01*
X110899523Y-75980952D01*
X110937619Y-76000000D01*
X110956666Y-76019047D01*
X110975714Y-76057142D01*
X110975714Y-76095238D01*
X110956666Y-76152380D01*
X110728095Y-76380952D01*
X110975714Y-76380952D01*
%TO.C,J1*%
D13*
X91511904Y-68937142D02*
X91464285Y-68984761D01*
X91321428Y-69032380D01*
X91226190Y-69032380D01*
X91083333Y-68984761D01*
X90988095Y-68889523D01*
X90940476Y-68794285D01*
X90892857Y-68603809D01*
X90892857Y-68460952D01*
X90940476Y-68270476D01*
X90988095Y-68175238D01*
X91083333Y-68080000D01*
X91226190Y-68032380D01*
X91321428Y-68032380D01*
X91464285Y-68080000D01*
X91511904Y-68127619D01*
X92083333Y-69032380D02*
X91988095Y-68984761D01*
X91940476Y-68937142D01*
X91892857Y-68841904D01*
X91892857Y-68556190D01*
X91940476Y-68460952D01*
X91988095Y-68413333D01*
X92083333Y-68365714D01*
X92226190Y-68365714D01*
X92321428Y-68413333D01*
X92369047Y-68460952D01*
X92416666Y-68556190D01*
X92416666Y-68841904D01*
X92369047Y-68937142D01*
X92321428Y-68984761D01*
X92226190Y-69032380D01*
X92083333Y-69032380D01*
X92845238Y-68365714D02*
X92845238Y-69032380D01*
X92845238Y-68460952D02*
X92892857Y-68413333D01*
X92988095Y-68365714D01*
X93130952Y-68365714D01*
X93226190Y-68413333D01*
X93273809Y-68508571D01*
X93273809Y-69032380D01*
X93750000Y-68365714D02*
X93750000Y-69032380D01*
X93750000Y-68460952D02*
X93797619Y-68413333D01*
X93892857Y-68365714D01*
X94035714Y-68365714D01*
X94130952Y-68413333D01*
X94178571Y-68508571D01*
X94178571Y-69032380D01*
X94416666Y-69127619D02*
X95178571Y-69127619D01*
X95607142Y-68032380D02*
X95702380Y-68032380D01*
X95797619Y-68080000D01*
X95845238Y-68127619D01*
X95892857Y-68222857D01*
X95940476Y-68413333D01*
X95940476Y-68651428D01*
X95892857Y-68841904D01*
X95845238Y-68937142D01*
X95797619Y-68984761D01*
X95702380Y-69032380D01*
X95607142Y-69032380D01*
X95511904Y-68984761D01*
X95464285Y-68937142D01*
X95416666Y-68841904D01*
X95369047Y-68651428D01*
X95369047Y-68413333D01*
X95416666Y-68222857D01*
X95464285Y-68127619D01*
X95511904Y-68080000D01*
X95607142Y-68032380D01*
X96892857Y-69032380D02*
X96321428Y-69032380D01*
X96607142Y-69032380D02*
X96607142Y-68032380D01*
X96511904Y-68175238D01*
X96416666Y-68270476D01*
X96321428Y-68318095D01*
X97226190Y-69032380D02*
X97750000Y-68365714D01*
X97226190Y-68365714D02*
X97750000Y-69032380D01*
X98321428Y-68032380D02*
X98416666Y-68032380D01*
X98511904Y-68080000D01*
X98559523Y-68127619D01*
X98607142Y-68222857D01*
X98654761Y-68413333D01*
X98654761Y-68651428D01*
X98607142Y-68841904D01*
X98559523Y-68937142D01*
X98511904Y-68984761D01*
X98416666Y-69032380D01*
X98321428Y-69032380D01*
X98226190Y-68984761D01*
X98178571Y-68937142D01*
X98130952Y-68841904D01*
X98083333Y-68651428D01*
X98083333Y-68413333D01*
X98130952Y-68222857D01*
X98178571Y-68127619D01*
X98226190Y-68080000D01*
X98321428Y-68032380D01*
X99607142Y-69032380D02*
X99035714Y-69032380D01*
X99321428Y-69032380D02*
X99321428Y-68032380D01*
X99226190Y-68175238D01*
X99130952Y-68270476D01*
X99035714Y-68318095D01*
X103806666Y-68032380D02*
X103806666Y-68746666D01*
X103759047Y-68889523D01*
X103663809Y-68984761D01*
X103520952Y-69032380D01*
X103425714Y-69032380D01*
X104806666Y-69032380D02*
X104235238Y-69032380D01*
X104520952Y-69032380D02*
X104520952Y-68032380D01*
X104425714Y-68175238D01*
X104330476Y-68270476D01*
X104235238Y-68318095D01*
%TO.C,J2*%
X91511904Y-71477142D02*
X91464285Y-71524761D01*
X91321428Y-71572380D01*
X91226190Y-71572380D01*
X91083333Y-71524761D01*
X90988095Y-71429523D01*
X90940476Y-71334285D01*
X90892857Y-71143809D01*
X90892857Y-71000952D01*
X90940476Y-70810476D01*
X90988095Y-70715238D01*
X91083333Y-70620000D01*
X91226190Y-70572380D01*
X91321428Y-70572380D01*
X91464285Y-70620000D01*
X91511904Y-70667619D01*
X92083333Y-71572380D02*
X91988095Y-71524761D01*
X91940476Y-71477142D01*
X91892857Y-71381904D01*
X91892857Y-71096190D01*
X91940476Y-71000952D01*
X91988095Y-70953333D01*
X92083333Y-70905714D01*
X92226190Y-70905714D01*
X92321428Y-70953333D01*
X92369047Y-71000952D01*
X92416666Y-71096190D01*
X92416666Y-71381904D01*
X92369047Y-71477142D01*
X92321428Y-71524761D01*
X92226190Y-71572380D01*
X92083333Y-71572380D01*
X92845238Y-70905714D02*
X92845238Y-71572380D01*
X92845238Y-71000952D02*
X92892857Y-70953333D01*
X92988095Y-70905714D01*
X93130952Y-70905714D01*
X93226190Y-70953333D01*
X93273809Y-71048571D01*
X93273809Y-71572380D01*
X93750000Y-70905714D02*
X93750000Y-71572380D01*
X93750000Y-71000952D02*
X93797619Y-70953333D01*
X93892857Y-70905714D01*
X94035714Y-70905714D01*
X94130952Y-70953333D01*
X94178571Y-71048571D01*
X94178571Y-71572380D01*
X94416666Y-71667619D02*
X95178571Y-71667619D01*
X95607142Y-70572380D02*
X95702380Y-70572380D01*
X95797619Y-70620000D01*
X95845238Y-70667619D01*
X95892857Y-70762857D01*
X95940476Y-70953333D01*
X95940476Y-71191428D01*
X95892857Y-71381904D01*
X95845238Y-71477142D01*
X95797619Y-71524761D01*
X95702380Y-71572380D01*
X95607142Y-71572380D01*
X95511904Y-71524761D01*
X95464285Y-71477142D01*
X95416666Y-71381904D01*
X95369047Y-71191428D01*
X95369047Y-70953333D01*
X95416666Y-70762857D01*
X95464285Y-70667619D01*
X95511904Y-70620000D01*
X95607142Y-70572380D01*
X96892857Y-71572380D02*
X96321428Y-71572380D01*
X96607142Y-71572380D02*
X96607142Y-70572380D01*
X96511904Y-70715238D01*
X96416666Y-70810476D01*
X96321428Y-70858095D01*
X97226190Y-71572380D02*
X97750000Y-70905714D01*
X97226190Y-70905714D02*
X97750000Y-71572380D01*
X98321428Y-70572380D02*
X98416666Y-70572380D01*
X98511904Y-70620000D01*
X98559523Y-70667619D01*
X98607142Y-70762857D01*
X98654761Y-70953333D01*
X98654761Y-71191428D01*
X98607142Y-71381904D01*
X98559523Y-71477142D01*
X98511904Y-71524761D01*
X98416666Y-71572380D01*
X98321428Y-71572380D01*
X98226190Y-71524761D01*
X98178571Y-71477142D01*
X98130952Y-71381904D01*
X98083333Y-71191428D01*
X98083333Y-70953333D01*
X98130952Y-70762857D01*
X98178571Y-70667619D01*
X98226190Y-70620000D01*
X98321428Y-70572380D01*
X99607142Y-71572380D02*
X99035714Y-71572380D01*
X99321428Y-71572380D02*
X99321428Y-70572380D01*
X99226190Y-70715238D01*
X99130952Y-70810476D01*
X99035714Y-70858095D01*
X103806666Y-70572380D02*
X103806666Y-71286666D01*
X103759047Y-71429523D01*
X103663809Y-71524761D01*
X103520952Y-71572380D01*
X103425714Y-71572380D01*
X104235238Y-70667619D02*
X104282857Y-70620000D01*
X104378095Y-70572380D01*
X104616190Y-70572380D01*
X104711428Y-70620000D01*
X104759047Y-70667619D01*
X104806666Y-70762857D01*
X104806666Y-70858095D01*
X104759047Y-71000952D01*
X104187619Y-71572380D01*
X104806666Y-71572380D01*
%TO.C,J3*%
X91511904Y-74017142D02*
X91464285Y-74064761D01*
X91321428Y-74112380D01*
X91226190Y-74112380D01*
X91083333Y-74064761D01*
X90988095Y-73969523D01*
X90940476Y-73874285D01*
X90892857Y-73683809D01*
X90892857Y-73540952D01*
X90940476Y-73350476D01*
X90988095Y-73255238D01*
X91083333Y-73160000D01*
X91226190Y-73112380D01*
X91321428Y-73112380D01*
X91464285Y-73160000D01*
X91511904Y-73207619D01*
X92083333Y-74112380D02*
X91988095Y-74064761D01*
X91940476Y-74017142D01*
X91892857Y-73921904D01*
X91892857Y-73636190D01*
X91940476Y-73540952D01*
X91988095Y-73493333D01*
X92083333Y-73445714D01*
X92226190Y-73445714D01*
X92321428Y-73493333D01*
X92369047Y-73540952D01*
X92416666Y-73636190D01*
X92416666Y-73921904D01*
X92369047Y-74017142D01*
X92321428Y-74064761D01*
X92226190Y-74112380D01*
X92083333Y-74112380D01*
X92845238Y-73445714D02*
X92845238Y-74112380D01*
X92845238Y-73540952D02*
X92892857Y-73493333D01*
X92988095Y-73445714D01*
X93130952Y-73445714D01*
X93226190Y-73493333D01*
X93273809Y-73588571D01*
X93273809Y-74112380D01*
X93750000Y-73445714D02*
X93750000Y-74112380D01*
X93750000Y-73540952D02*
X93797619Y-73493333D01*
X93892857Y-73445714D01*
X94035714Y-73445714D01*
X94130952Y-73493333D01*
X94178571Y-73588571D01*
X94178571Y-74112380D01*
X94416666Y-74207619D02*
X95178571Y-74207619D01*
X95607142Y-73112380D02*
X95702380Y-73112380D01*
X95797619Y-73160000D01*
X95845238Y-73207619D01*
X95892857Y-73302857D01*
X95940476Y-73493333D01*
X95940476Y-73731428D01*
X95892857Y-73921904D01*
X95845238Y-74017142D01*
X95797619Y-74064761D01*
X95702380Y-74112380D01*
X95607142Y-74112380D01*
X95511904Y-74064761D01*
X95464285Y-74017142D01*
X95416666Y-73921904D01*
X95369047Y-73731428D01*
X95369047Y-73493333D01*
X95416666Y-73302857D01*
X95464285Y-73207619D01*
X95511904Y-73160000D01*
X95607142Y-73112380D01*
X96892857Y-74112380D02*
X96321428Y-74112380D01*
X96607142Y-74112380D02*
X96607142Y-73112380D01*
X96511904Y-73255238D01*
X96416666Y-73350476D01*
X96321428Y-73398095D01*
X97226190Y-74112380D02*
X97750000Y-73445714D01*
X97226190Y-73445714D02*
X97750000Y-74112380D01*
X98321428Y-73112380D02*
X98416666Y-73112380D01*
X98511904Y-73160000D01*
X98559523Y-73207619D01*
X98607142Y-73302857D01*
X98654761Y-73493333D01*
X98654761Y-73731428D01*
X98607142Y-73921904D01*
X98559523Y-74017142D01*
X98511904Y-74064761D01*
X98416666Y-74112380D01*
X98321428Y-74112380D01*
X98226190Y-74064761D01*
X98178571Y-74017142D01*
X98130952Y-73921904D01*
X98083333Y-73731428D01*
X98083333Y-73493333D01*
X98130952Y-73302857D01*
X98178571Y-73207619D01*
X98226190Y-73160000D01*
X98321428Y-73112380D01*
X99607142Y-74112380D02*
X99035714Y-74112380D01*
X99321428Y-74112380D02*
X99321428Y-73112380D01*
X99226190Y-73255238D01*
X99130952Y-73350476D01*
X99035714Y-73398095D01*
X103806666Y-73112380D02*
X103806666Y-73826666D01*
X103759047Y-73969523D01*
X103663809Y-74064761D01*
X103520952Y-74112380D01*
X103425714Y-74112380D01*
X104187619Y-73112380D02*
X104806666Y-73112380D01*
X104473333Y-73493333D01*
X104616190Y-73493333D01*
X104711428Y-73540952D01*
X104759047Y-73588571D01*
X104806666Y-73683809D01*
X104806666Y-73921904D01*
X104759047Y-74017142D01*
X104711428Y-74064761D01*
X104616190Y-74112380D01*
X104330476Y-74112380D01*
X104235238Y-74064761D01*
X104187619Y-74017142D01*
%TO.C,J4*%
X132151904Y-66397142D02*
X132104285Y-66444761D01*
X131961428Y-66492380D01*
X131866190Y-66492380D01*
X131723333Y-66444761D01*
X131628095Y-66349523D01*
X131580476Y-66254285D01*
X131532857Y-66063809D01*
X131532857Y-65920952D01*
X131580476Y-65730476D01*
X131628095Y-65635238D01*
X131723333Y-65540000D01*
X131866190Y-65492380D01*
X131961428Y-65492380D01*
X132104285Y-65540000D01*
X132151904Y-65587619D01*
X132723333Y-66492380D02*
X132628095Y-66444761D01*
X132580476Y-66397142D01*
X132532857Y-66301904D01*
X132532857Y-66016190D01*
X132580476Y-65920952D01*
X132628095Y-65873333D01*
X132723333Y-65825714D01*
X132866190Y-65825714D01*
X132961428Y-65873333D01*
X133009047Y-65920952D01*
X133056666Y-66016190D01*
X133056666Y-66301904D01*
X133009047Y-66397142D01*
X132961428Y-66444761D01*
X132866190Y-66492380D01*
X132723333Y-66492380D01*
X133485238Y-65825714D02*
X133485238Y-66492380D01*
X133485238Y-65920952D02*
X133532857Y-65873333D01*
X133628095Y-65825714D01*
X133770952Y-65825714D01*
X133866190Y-65873333D01*
X133913809Y-65968571D01*
X133913809Y-66492380D01*
X134390000Y-65825714D02*
X134390000Y-66492380D01*
X134390000Y-65920952D02*
X134437619Y-65873333D01*
X134532857Y-65825714D01*
X134675714Y-65825714D01*
X134770952Y-65873333D01*
X134818571Y-65968571D01*
X134818571Y-66492380D01*
X135056666Y-66587619D02*
X135818571Y-66587619D01*
X136247142Y-65492380D02*
X136342380Y-65492380D01*
X136437619Y-65540000D01*
X136485238Y-65587619D01*
X136532857Y-65682857D01*
X136580476Y-65873333D01*
X136580476Y-66111428D01*
X136532857Y-66301904D01*
X136485238Y-66397142D01*
X136437619Y-66444761D01*
X136342380Y-66492380D01*
X136247142Y-66492380D01*
X136151904Y-66444761D01*
X136104285Y-66397142D01*
X136056666Y-66301904D01*
X136009047Y-66111428D01*
X136009047Y-65873333D01*
X136056666Y-65682857D01*
X136104285Y-65587619D01*
X136151904Y-65540000D01*
X136247142Y-65492380D01*
X137532857Y-66492380D02*
X136961428Y-66492380D01*
X137247142Y-66492380D02*
X137247142Y-65492380D01*
X137151904Y-65635238D01*
X137056666Y-65730476D01*
X136961428Y-65778095D01*
X137866190Y-66492380D02*
X138390000Y-65825714D01*
X137866190Y-65825714D02*
X138390000Y-66492380D01*
X138961428Y-65492380D02*
X139056666Y-65492380D01*
X139151904Y-65540000D01*
X139199523Y-65587619D01*
X139247142Y-65682857D01*
X139294761Y-65873333D01*
X139294761Y-66111428D01*
X139247142Y-66301904D01*
X139199523Y-66397142D01*
X139151904Y-66444761D01*
X139056666Y-66492380D01*
X138961428Y-66492380D01*
X138866190Y-66444761D01*
X138818571Y-66397142D01*
X138770952Y-66301904D01*
X138723333Y-66111428D01*
X138723333Y-65873333D01*
X138770952Y-65682857D01*
X138818571Y-65587619D01*
X138866190Y-65540000D01*
X138961428Y-65492380D01*
X140247142Y-66492380D02*
X139675714Y-66492380D01*
X139961428Y-66492380D02*
X139961428Y-65492380D01*
X139866190Y-65635238D01*
X139770952Y-65730476D01*
X139675714Y-65778095D01*
X126666666Y-65492380D02*
X126666666Y-66206666D01*
X126619047Y-66349523D01*
X126523809Y-66444761D01*
X126380952Y-66492380D01*
X126285714Y-66492380D01*
X127571428Y-65825714D02*
X127571428Y-66492380D01*
X127333333Y-65444761D02*
X127095238Y-66159047D01*
X127714285Y-66159047D01*
%TO.C,J5*%
X91511904Y-66397142D02*
X91464285Y-66444761D01*
X91321428Y-66492380D01*
X91226190Y-66492380D01*
X91083333Y-66444761D01*
X90988095Y-66349523D01*
X90940476Y-66254285D01*
X90892857Y-66063809D01*
X90892857Y-65920952D01*
X90940476Y-65730476D01*
X90988095Y-65635238D01*
X91083333Y-65540000D01*
X91226190Y-65492380D01*
X91321428Y-65492380D01*
X91464285Y-65540000D01*
X91511904Y-65587619D01*
X92083333Y-66492380D02*
X91988095Y-66444761D01*
X91940476Y-66397142D01*
X91892857Y-66301904D01*
X91892857Y-66016190D01*
X91940476Y-65920952D01*
X91988095Y-65873333D01*
X92083333Y-65825714D01*
X92226190Y-65825714D01*
X92321428Y-65873333D01*
X92369047Y-65920952D01*
X92416666Y-66016190D01*
X92416666Y-66301904D01*
X92369047Y-66397142D01*
X92321428Y-66444761D01*
X92226190Y-66492380D01*
X92083333Y-66492380D01*
X92845238Y-65825714D02*
X92845238Y-66492380D01*
X92845238Y-65920952D02*
X92892857Y-65873333D01*
X92988095Y-65825714D01*
X93130952Y-65825714D01*
X93226190Y-65873333D01*
X93273809Y-65968571D01*
X93273809Y-66492380D01*
X93750000Y-65825714D02*
X93750000Y-66492380D01*
X93750000Y-65920952D02*
X93797619Y-65873333D01*
X93892857Y-65825714D01*
X94035714Y-65825714D01*
X94130952Y-65873333D01*
X94178571Y-65968571D01*
X94178571Y-66492380D01*
X94416666Y-66587619D02*
X95178571Y-66587619D01*
X95607142Y-65492380D02*
X95702380Y-65492380D01*
X95797619Y-65540000D01*
X95845238Y-65587619D01*
X95892857Y-65682857D01*
X95940476Y-65873333D01*
X95940476Y-66111428D01*
X95892857Y-66301904D01*
X95845238Y-66397142D01*
X95797619Y-66444761D01*
X95702380Y-66492380D01*
X95607142Y-66492380D01*
X95511904Y-66444761D01*
X95464285Y-66397142D01*
X95416666Y-66301904D01*
X95369047Y-66111428D01*
X95369047Y-65873333D01*
X95416666Y-65682857D01*
X95464285Y-65587619D01*
X95511904Y-65540000D01*
X95607142Y-65492380D01*
X96892857Y-66492380D02*
X96321428Y-66492380D01*
X96607142Y-66492380D02*
X96607142Y-65492380D01*
X96511904Y-65635238D01*
X96416666Y-65730476D01*
X96321428Y-65778095D01*
X97226190Y-66492380D02*
X97750000Y-65825714D01*
X97226190Y-65825714D02*
X97750000Y-66492380D01*
X98321428Y-65492380D02*
X98416666Y-65492380D01*
X98511904Y-65540000D01*
X98559523Y-65587619D01*
X98607142Y-65682857D01*
X98654761Y-65873333D01*
X98654761Y-66111428D01*
X98607142Y-66301904D01*
X98559523Y-66397142D01*
X98511904Y-66444761D01*
X98416666Y-66492380D01*
X98321428Y-66492380D01*
X98226190Y-66444761D01*
X98178571Y-66397142D01*
X98130952Y-66301904D01*
X98083333Y-66111428D01*
X98083333Y-65873333D01*
X98130952Y-65682857D01*
X98178571Y-65587619D01*
X98226190Y-65540000D01*
X98321428Y-65492380D01*
X99607142Y-66492380D02*
X99035714Y-66492380D01*
X99321428Y-66492380D02*
X99321428Y-65492380D01*
X99226190Y-65635238D01*
X99130952Y-65730476D01*
X99035714Y-65778095D01*
X103806666Y-65492380D02*
X103806666Y-66206666D01*
X103759047Y-66349523D01*
X103663809Y-66444761D01*
X103520952Y-66492380D01*
X103425714Y-66492380D01*
X104759047Y-65492380D02*
X104282857Y-65492380D01*
X104235238Y-65968571D01*
X104282857Y-65920952D01*
X104378095Y-65873333D01*
X104616190Y-65873333D01*
X104711428Y-65920952D01*
X104759047Y-65968571D01*
X104806666Y-66063809D01*
X104806666Y-66301904D01*
X104759047Y-66397142D01*
X104711428Y-66444761D01*
X104616190Y-66492380D01*
X104378095Y-66492380D01*
X104282857Y-66444761D01*
X104235238Y-66397142D01*
%TO.C,J6*%
X91511904Y-76557142D02*
X91464285Y-76604761D01*
X91321428Y-76652380D01*
X91226190Y-76652380D01*
X91083333Y-76604761D01*
X90988095Y-76509523D01*
X90940476Y-76414285D01*
X90892857Y-76223809D01*
X90892857Y-76080952D01*
X90940476Y-75890476D01*
X90988095Y-75795238D01*
X91083333Y-75700000D01*
X91226190Y-75652380D01*
X91321428Y-75652380D01*
X91464285Y-75700000D01*
X91511904Y-75747619D01*
X92083333Y-76652380D02*
X91988095Y-76604761D01*
X91940476Y-76557142D01*
X91892857Y-76461904D01*
X91892857Y-76176190D01*
X91940476Y-76080952D01*
X91988095Y-76033333D01*
X92083333Y-75985714D01*
X92226190Y-75985714D01*
X92321428Y-76033333D01*
X92369047Y-76080952D01*
X92416666Y-76176190D01*
X92416666Y-76461904D01*
X92369047Y-76557142D01*
X92321428Y-76604761D01*
X92226190Y-76652380D01*
X92083333Y-76652380D01*
X92845238Y-75985714D02*
X92845238Y-76652380D01*
X92845238Y-76080952D02*
X92892857Y-76033333D01*
X92988095Y-75985714D01*
X93130952Y-75985714D01*
X93226190Y-76033333D01*
X93273809Y-76128571D01*
X93273809Y-76652380D01*
X93750000Y-75985714D02*
X93750000Y-76652380D01*
X93750000Y-76080952D02*
X93797619Y-76033333D01*
X93892857Y-75985714D01*
X94035714Y-75985714D01*
X94130952Y-76033333D01*
X94178571Y-76128571D01*
X94178571Y-76652380D01*
X94416666Y-76747619D02*
X95178571Y-76747619D01*
X95607142Y-75652380D02*
X95702380Y-75652380D01*
X95797619Y-75700000D01*
X95845238Y-75747619D01*
X95892857Y-75842857D01*
X95940476Y-76033333D01*
X95940476Y-76271428D01*
X95892857Y-76461904D01*
X95845238Y-76557142D01*
X95797619Y-76604761D01*
X95702380Y-76652380D01*
X95607142Y-76652380D01*
X95511904Y-76604761D01*
X95464285Y-76557142D01*
X95416666Y-76461904D01*
X95369047Y-76271428D01*
X95369047Y-76033333D01*
X95416666Y-75842857D01*
X95464285Y-75747619D01*
X95511904Y-75700000D01*
X95607142Y-75652380D01*
X96892857Y-76652380D02*
X96321428Y-76652380D01*
X96607142Y-76652380D02*
X96607142Y-75652380D01*
X96511904Y-75795238D01*
X96416666Y-75890476D01*
X96321428Y-75938095D01*
X97226190Y-76652380D02*
X97750000Y-75985714D01*
X97226190Y-75985714D02*
X97750000Y-76652380D01*
X98321428Y-75652380D02*
X98416666Y-75652380D01*
X98511904Y-75700000D01*
X98559523Y-75747619D01*
X98607142Y-75842857D01*
X98654761Y-76033333D01*
X98654761Y-76271428D01*
X98607142Y-76461904D01*
X98559523Y-76557142D01*
X98511904Y-76604761D01*
X98416666Y-76652380D01*
X98321428Y-76652380D01*
X98226190Y-76604761D01*
X98178571Y-76557142D01*
X98130952Y-76461904D01*
X98083333Y-76271428D01*
X98083333Y-76033333D01*
X98130952Y-75842857D01*
X98178571Y-75747619D01*
X98226190Y-75700000D01*
X98321428Y-75652380D01*
X99607142Y-76652380D02*
X99035714Y-76652380D01*
X99321428Y-76652380D02*
X99321428Y-75652380D01*
X99226190Y-75795238D01*
X99130952Y-75890476D01*
X99035714Y-75938095D01*
X103806666Y-75652380D02*
X103806666Y-76366666D01*
X103759047Y-76509523D01*
X103663809Y-76604761D01*
X103520952Y-76652380D01*
X103425714Y-76652380D01*
X104711428Y-75652380D02*
X104520952Y-75652380D01*
X104425714Y-75700000D01*
X104378095Y-75747619D01*
X104282857Y-75890476D01*
X104235238Y-76080952D01*
X104235238Y-76461904D01*
X104282857Y-76557142D01*
X104330476Y-76604761D01*
X104425714Y-76652380D01*
X104616190Y-76652380D01*
X104711428Y-76604761D01*
X104759047Y-76557142D01*
X104806666Y-76461904D01*
X104806666Y-76223809D01*
X104759047Y-76128571D01*
X104711428Y-76080952D01*
X104616190Y-76033333D01*
X104425714Y-76033333D01*
X104330476Y-76080952D01*
X104282857Y-76128571D01*
X104235238Y-76223809D01*
%TO.C,R1*%
X122848761Y-74206380D02*
X122277333Y-74206380D01*
X122563047Y-74206380D02*
X122563047Y-73206380D01*
X122467809Y-73349238D01*
X122372571Y-73444476D01*
X122277333Y-73492095D01*
X123467809Y-73206380D02*
X123563047Y-73206380D01*
X123658285Y-73254000D01*
X123705904Y-73301619D01*
X123753523Y-73396857D01*
X123801142Y-73587333D01*
X123801142Y-73825428D01*
X123753523Y-74015904D01*
X123705904Y-74111142D01*
X123658285Y-74158761D01*
X123563047Y-74206380D01*
X123467809Y-74206380D01*
X123372571Y-74158761D01*
X123324952Y-74111142D01*
X123277333Y-74015904D01*
X123229714Y-73825428D01*
X123229714Y-73587333D01*
X123277333Y-73396857D01*
X123324952Y-73301619D01*
X123372571Y-73254000D01*
X123467809Y-73206380D01*
X124229714Y-74206380D02*
X124229714Y-73206380D01*
X124324952Y-73825428D02*
X124610666Y-74206380D01*
X124610666Y-73539714D02*
X124229714Y-73920666D01*
D14*
X123377333Y-75364952D02*
X123244000Y-75174476D01*
X123148761Y-75364952D02*
X123148761Y-74964952D01*
X123301142Y-74964952D01*
X123339238Y-74984000D01*
X123358285Y-75003047D01*
X123377333Y-75041142D01*
X123377333Y-75098285D01*
X123358285Y-75136380D01*
X123339238Y-75155428D01*
X123301142Y-75174476D01*
X123148761Y-75174476D01*
X123758285Y-75364952D02*
X123529714Y-75364952D01*
X123644000Y-75364952D02*
X123644000Y-74964952D01*
X123605904Y-75022095D01*
X123567809Y-75060190D01*
X123529714Y-75079238D01*
%TO.C,R2*%
D13*
X122848761Y-66078380D02*
X122277333Y-66078380D01*
X122563047Y-66078380D02*
X122563047Y-65078380D01*
X122467809Y-65221238D01*
X122372571Y-65316476D01*
X122277333Y-65364095D01*
X123467809Y-65078380D02*
X123563047Y-65078380D01*
X123658285Y-65126000D01*
X123705904Y-65173619D01*
X123753523Y-65268857D01*
X123801142Y-65459333D01*
X123801142Y-65697428D01*
X123753523Y-65887904D01*
X123705904Y-65983142D01*
X123658285Y-66030761D01*
X123563047Y-66078380D01*
X123467809Y-66078380D01*
X123372571Y-66030761D01*
X123324952Y-65983142D01*
X123277333Y-65887904D01*
X123229714Y-65697428D01*
X123229714Y-65459333D01*
X123277333Y-65268857D01*
X123324952Y-65173619D01*
X123372571Y-65126000D01*
X123467809Y-65078380D01*
X124229714Y-66078380D02*
X124229714Y-65078380D01*
X124324952Y-65697428D02*
X124610666Y-66078380D01*
X124610666Y-65411714D02*
X124229714Y-65792666D01*
D14*
X123377333Y-67236952D02*
X123244000Y-67046476D01*
X123148761Y-67236952D02*
X123148761Y-66836952D01*
X123301142Y-66836952D01*
X123339238Y-66856000D01*
X123358285Y-66875047D01*
X123377333Y-66913142D01*
X123377333Y-66970285D01*
X123358285Y-67008380D01*
X123339238Y-67027428D01*
X123301142Y-67046476D01*
X123148761Y-67046476D01*
X123529714Y-66875047D02*
X123548761Y-66856000D01*
X123586857Y-66836952D01*
X123682095Y-66836952D01*
X123720190Y-66856000D01*
X123739238Y-66875047D01*
X123758285Y-66913142D01*
X123758285Y-66951238D01*
X123739238Y-67008380D01*
X123510666Y-67236952D01*
X123758285Y-67236952D01*
%TO.C,U1*%
D13*
X116912000Y-68172380D02*
X116912000Y-67172380D01*
X117292952Y-67172380D01*
X117388190Y-67220000D01*
X117435809Y-67267619D01*
X117483428Y-67362857D01*
X117483428Y-67505714D01*
X117435809Y-67600952D01*
X117388190Y-67648571D01*
X117292952Y-67696190D01*
X116912000Y-67696190D01*
X117864380Y-67886666D02*
X118340571Y-67886666D01*
X117769142Y-68172380D02*
X118102476Y-67172380D01*
X118435809Y-68172380D01*
X118769142Y-68172380D02*
X118769142Y-67172380D01*
X119102476Y-67886666D01*
X119435809Y-67172380D01*
X119435809Y-68172380D01*
X120054857Y-67600952D02*
X119959619Y-67553333D01*
X119912000Y-67505714D01*
X119864380Y-67410476D01*
X119864380Y-67362857D01*
X119912000Y-67267619D01*
X119959619Y-67220000D01*
X120054857Y-67172380D01*
X120245333Y-67172380D01*
X120340571Y-67220000D01*
X120388190Y-67267619D01*
X120435809Y-67362857D01*
X120435809Y-67410476D01*
X120388190Y-67505714D01*
X120340571Y-67553333D01*
X120245333Y-67600952D01*
X120054857Y-67600952D01*
X119959619Y-67648571D01*
X119912000Y-67696190D01*
X119864380Y-67791428D01*
X119864380Y-67981904D01*
X119912000Y-68077142D01*
X119959619Y-68124761D01*
X120054857Y-68172380D01*
X120245333Y-68172380D01*
X120340571Y-68124761D01*
X120388190Y-68077142D01*
X120435809Y-67981904D01*
X120435809Y-67791428D01*
X120388190Y-67696190D01*
X120340571Y-67648571D01*
X120245333Y-67600952D01*
X120769142Y-67172380D02*
X121388190Y-67172380D01*
X121054857Y-67553333D01*
X121197714Y-67553333D01*
X121292952Y-67600952D01*
X121340571Y-67648571D01*
X121388190Y-67743809D01*
X121388190Y-67981904D01*
X121340571Y-68077142D01*
X121292952Y-68124761D01*
X121197714Y-68172380D01*
X120912000Y-68172380D01*
X120816761Y-68124761D01*
X120769142Y-68077142D01*
X122007238Y-67172380D02*
X122102476Y-67172380D01*
X122197714Y-67220000D01*
X122245333Y-67267619D01*
X122292952Y-67362857D01*
X122340571Y-67553333D01*
X122340571Y-67791428D01*
X122292952Y-67981904D01*
X122245333Y-68077142D01*
X122197714Y-68124761D01*
X122102476Y-68172380D01*
X122007238Y-68172380D01*
X121912000Y-68124761D01*
X121864380Y-68077142D01*
X121816761Y-67981904D01*
X121769142Y-67791428D01*
X121769142Y-67553333D01*
X121816761Y-67362857D01*
X121864380Y-67267619D01*
X121912000Y-67220000D01*
X122007238Y-67172380D01*
X122721523Y-67267619D02*
X122769142Y-67220000D01*
X122864380Y-67172380D01*
X123102476Y-67172380D01*
X123197714Y-67220000D01*
X123245333Y-67267619D01*
X123292952Y-67362857D01*
X123292952Y-67458095D01*
X123245333Y-67600952D01*
X122673904Y-68172380D01*
X123292952Y-68172380D01*
X123673904Y-67886666D02*
X124150095Y-67886666D01*
X123578666Y-68172380D02*
X123912000Y-67172380D01*
X124245333Y-68172380D01*
X124531047Y-67886666D02*
X125007238Y-67886666D01*
X124435809Y-68172380D02*
X124769142Y-67172380D01*
X125102476Y-68172380D01*
X125388190Y-68124761D02*
X125531047Y-68172380D01*
X125769142Y-68172380D01*
X125864380Y-68124761D01*
X125912000Y-68077142D01*
X125959619Y-67981904D01*
X125959619Y-67886666D01*
X125912000Y-67791428D01*
X125864380Y-67743809D01*
X125769142Y-67696190D01*
X125578666Y-67648571D01*
X125483428Y-67600952D01*
X125435809Y-67553333D01*
X125388190Y-67458095D01*
X125388190Y-67362857D01*
X125435809Y-67267619D01*
X125483428Y-67220000D01*
X125578666Y-67172380D01*
X125816761Y-67172380D01*
X125959619Y-67220000D01*
X120665333Y-70583333D02*
X120665333Y-71376666D01*
X120712000Y-71470000D01*
X120758666Y-71516666D01*
X120852000Y-71563333D01*
X121038666Y-71563333D01*
X121132000Y-71516666D01*
X121178666Y-71470000D01*
X121225333Y-71376666D01*
X121225333Y-70583333D01*
X122205333Y-71563333D02*
X121645333Y-71563333D01*
X121925333Y-71563333D02*
X121925333Y-70583333D01*
X121832000Y-70723333D01*
X121738666Y-70816666D01*
X121645333Y-70863333D01*
%TD*%
M02*
