%TF.GenerationSoftware,KiCad,Pcbnew,(5.1.9)-1*%
%TF.CreationDate,2021-05-26T17:20:17+02:00*%
%TF.ProjectId,10_Audio_Facile,31305f41-7564-4696-9f5f-466163696c65,rev?*%
%TF.SameCoordinates,Original*%
%TF.FileFunction,Soldermask,Top*%
%TF.FilePolarity,Negative*%
%FSLAX46Y46*%
G04 Gerber Fmt 4.6, Leading zero omitted, Abs format (unit mm)*
G04 Created by KiCad (PCBNEW (5.1.9)-1) date 2021-05-26 17:20:17*
%MOMM*%
%LPD*%
G01*
G04 APERTURE LIST*
%TA.AperFunction,Profile*%
%ADD10C,0.050000*%
%TD*%
%ADD11C,1.624000*%
G04 APERTURE END LIST*
D10*
X130810000Y-67310000D02*
X129540000Y-67310000D01*
X130810000Y-64770000D02*
X130810000Y-67310000D01*
X129540000Y-64770000D02*
X130810000Y-64770000D01*
X129540000Y-60960000D02*
X129540000Y-64770000D01*
X129540000Y-67310000D02*
X129540000Y-81280000D01*
X101600000Y-60960000D02*
X129540000Y-60960000D01*
X101600000Y-77470000D02*
X101600000Y-81280000D01*
X100330000Y-77470000D02*
X101600000Y-77470000D01*
X101600000Y-60960000D02*
X101600000Y-64770000D01*
X101600000Y-64770000D02*
X100330000Y-64770000D01*
X129540000Y-81280000D02*
X101600000Y-81280000D01*
X100330000Y-77470000D02*
X100330000Y-64770000D01*
%TO.C,C1*%
G36*
G01*
X109057457Y-73370000D02*
X106842543Y-73370000D01*
G75*
G02*
X106575000Y-73102457I0J267543D01*
G01*
X106575000Y-72112543D01*
G75*
G02*
X106842543Y-71845000I267543J0D01*
G01*
X109057457Y-71845000D01*
G75*
G02*
X109325000Y-72112543I0J-267543D01*
G01*
X109325000Y-73102457D01*
G75*
G02*
X109057457Y-73370000I-267543J0D01*
G01*
G37*
G36*
G01*
X109057457Y-70395000D02*
X106842543Y-70395000D01*
G75*
G02*
X106575000Y-70127457I0J267543D01*
G01*
X106575000Y-69137543D01*
G75*
G02*
X106842543Y-68870000I267543J0D01*
G01*
X109057457Y-68870000D01*
G75*
G02*
X109325000Y-69137543I0J-267543D01*
G01*
X109325000Y-70127457D01*
G75*
G02*
X109057457Y-70395000I-267543J0D01*
G01*
G37*
%TD*%
%TO.C,C2*%
G36*
G01*
X110752500Y-70820000D02*
X110227500Y-70820000D01*
G75*
G02*
X109965000Y-70557500I0J262500D01*
G01*
X109965000Y-69932500D01*
G75*
G02*
X110227500Y-69670000I262500J0D01*
G01*
X110752500Y-69670000D01*
G75*
G02*
X111015000Y-69932500I0J-262500D01*
G01*
X111015000Y-70557500D01*
G75*
G02*
X110752500Y-70820000I-262500J0D01*
G01*
G37*
G36*
G01*
X110752500Y-72570000D02*
X110227500Y-72570000D01*
G75*
G02*
X109965000Y-72307500I0J262500D01*
G01*
X109965000Y-71682500D01*
G75*
G02*
X110227500Y-71420000I262500J0D01*
G01*
X110752500Y-71420000D01*
G75*
G02*
X111015000Y-71682500I0J-262500D01*
G01*
X111015000Y-72307500D01*
G75*
G02*
X110752500Y-72570000I-262500J0D01*
G01*
G37*
%TD*%
%TO.C,C3*%
G36*
G01*
X112657500Y-72570000D02*
X112132500Y-72570000D01*
G75*
G02*
X111870000Y-72307500I0J262500D01*
G01*
X111870000Y-71682500D01*
G75*
G02*
X112132500Y-71420000I262500J0D01*
G01*
X112657500Y-71420000D01*
G75*
G02*
X112920000Y-71682500I0J-262500D01*
G01*
X112920000Y-72307500D01*
G75*
G02*
X112657500Y-72570000I-262500J0D01*
G01*
G37*
G36*
G01*
X112657500Y-70820000D02*
X112132500Y-70820000D01*
G75*
G02*
X111870000Y-70557500I0J262500D01*
G01*
X111870000Y-69932500D01*
G75*
G02*
X112132500Y-69670000I262500J0D01*
G01*
X112657500Y-69670000D01*
G75*
G02*
X112920000Y-69932500I0J-262500D01*
G01*
X112920000Y-70557500D01*
G75*
G02*
X112657500Y-70820000I-262500J0D01*
G01*
G37*
%TD*%
%TO.C,C4*%
G36*
G01*
X114562500Y-70820000D02*
X114037500Y-70820000D01*
G75*
G02*
X113775000Y-70557500I0J262500D01*
G01*
X113775000Y-69932500D01*
G75*
G02*
X114037500Y-69670000I262500J0D01*
G01*
X114562500Y-69670000D01*
G75*
G02*
X114825000Y-69932500I0J-262500D01*
G01*
X114825000Y-70557500D01*
G75*
G02*
X114562500Y-70820000I-262500J0D01*
G01*
G37*
G36*
G01*
X114562500Y-72570000D02*
X114037500Y-72570000D01*
G75*
G02*
X113775000Y-72307500I0J262500D01*
G01*
X113775000Y-71682500D01*
G75*
G02*
X114037500Y-71420000I262500J0D01*
G01*
X114562500Y-71420000D01*
G75*
G02*
X114825000Y-71682500I0J-262500D01*
G01*
X114825000Y-72307500D01*
G75*
G02*
X114562500Y-72570000I-262500J0D01*
G01*
G37*
%TD*%
%TO.C,C5*%
G36*
G01*
X116467500Y-72570000D02*
X115942500Y-72570000D01*
G75*
G02*
X115680000Y-72307500I0J262500D01*
G01*
X115680000Y-71682500D01*
G75*
G02*
X115942500Y-71420000I262500J0D01*
G01*
X116467500Y-71420000D01*
G75*
G02*
X116730000Y-71682500I0J-262500D01*
G01*
X116730000Y-72307500D01*
G75*
G02*
X116467500Y-72570000I-262500J0D01*
G01*
G37*
G36*
G01*
X116467500Y-70820000D02*
X115942500Y-70820000D01*
G75*
G02*
X115680000Y-70557500I0J262500D01*
G01*
X115680000Y-69932500D01*
G75*
G02*
X115942500Y-69670000I262500J0D01*
G01*
X116467500Y-69670000D01*
G75*
G02*
X116730000Y-69932500I0J-262500D01*
G01*
X116730000Y-70557500D01*
G75*
G02*
X116467500Y-70820000I-262500J0D01*
G01*
G37*
%TD*%
%TO.C,C6*%
G36*
G01*
X108212500Y-64470000D02*
X107687500Y-64470000D01*
G75*
G02*
X107425000Y-64207500I0J262500D01*
G01*
X107425000Y-63582500D01*
G75*
G02*
X107687500Y-63320000I262500J0D01*
G01*
X108212500Y-63320000D01*
G75*
G02*
X108475000Y-63582500I0J-262500D01*
G01*
X108475000Y-64207500D01*
G75*
G02*
X108212500Y-64470000I-262500J0D01*
G01*
G37*
G36*
G01*
X108212500Y-66220000D02*
X107687500Y-66220000D01*
G75*
G02*
X107425000Y-65957500I0J262500D01*
G01*
X107425000Y-65332500D01*
G75*
G02*
X107687500Y-65070000I262500J0D01*
G01*
X108212500Y-65070000D01*
G75*
G02*
X108475000Y-65332500I0J-262500D01*
G01*
X108475000Y-65957500D01*
G75*
G02*
X108212500Y-66220000I-262500J0D01*
G01*
G37*
%TD*%
%TO.C,C7*%
G36*
G01*
X123744000Y-77224500D02*
X123744000Y-76699500D01*
G75*
G02*
X124006500Y-76437000I262500J0D01*
G01*
X124631500Y-76437000D01*
G75*
G02*
X124894000Y-76699500I0J-262500D01*
G01*
X124894000Y-77224500D01*
G75*
G02*
X124631500Y-77487000I-262500J0D01*
G01*
X124006500Y-77487000D01*
G75*
G02*
X123744000Y-77224500I0J262500D01*
G01*
G37*
G36*
G01*
X121994000Y-77224500D02*
X121994000Y-76699500D01*
G75*
G02*
X122256500Y-76437000I262500J0D01*
G01*
X122881500Y-76437000D01*
G75*
G02*
X123144000Y-76699500I0J-262500D01*
G01*
X123144000Y-77224500D01*
G75*
G02*
X122881500Y-77487000I-262500J0D01*
G01*
X122256500Y-77487000D01*
G75*
G02*
X121994000Y-77224500I0J262500D01*
G01*
G37*
%TD*%
%TO.C,C8*%
G36*
G01*
X121994000Y-65540500D02*
X121994000Y-65015500D01*
G75*
G02*
X122256500Y-64753000I262500J0D01*
G01*
X122881500Y-64753000D01*
G75*
G02*
X123144000Y-65015500I0J-262500D01*
G01*
X123144000Y-65540500D01*
G75*
G02*
X122881500Y-65803000I-262500J0D01*
G01*
X122256500Y-65803000D01*
G75*
G02*
X121994000Y-65540500I0J262500D01*
G01*
G37*
G36*
G01*
X123744000Y-65540500D02*
X123744000Y-65015500D01*
G75*
G02*
X124006500Y-64753000I262500J0D01*
G01*
X124631500Y-64753000D01*
G75*
G02*
X124894000Y-65015500I0J-262500D01*
G01*
X124894000Y-65540500D01*
G75*
G02*
X124631500Y-65803000I-262500J0D01*
G01*
X124006500Y-65803000D01*
G75*
G02*
X123744000Y-65540500I0J262500D01*
G01*
G37*
%TD*%
%TO.C,C9*%
G36*
G01*
X108212500Y-78920000D02*
X107687500Y-78920000D01*
G75*
G02*
X107425000Y-78657500I0J262500D01*
G01*
X107425000Y-78032500D01*
G75*
G02*
X107687500Y-77770000I262500J0D01*
G01*
X108212500Y-77770000D01*
G75*
G02*
X108475000Y-78032500I0J-262500D01*
G01*
X108475000Y-78657500D01*
G75*
G02*
X108212500Y-78920000I-262500J0D01*
G01*
G37*
G36*
G01*
X108212500Y-77170000D02*
X107687500Y-77170000D01*
G75*
G02*
X107425000Y-76907500I0J262500D01*
G01*
X107425000Y-76282500D01*
G75*
G02*
X107687500Y-76020000I262500J0D01*
G01*
X108212500Y-76020000D01*
G75*
G02*
X108475000Y-76282500I0J-262500D01*
G01*
X108475000Y-76907500D01*
G75*
G02*
X108212500Y-77170000I-262500J0D01*
G01*
G37*
%TD*%
%TO.C,FB1*%
G36*
G01*
X110190000Y-65777500D02*
X110190000Y-66302500D01*
G75*
G02*
X109927500Y-66565000I-262500J0D01*
G01*
X109302500Y-66565000D01*
G75*
G02*
X109040000Y-66302500I0J262500D01*
G01*
X109040000Y-65777500D01*
G75*
G02*
X109302500Y-65515000I262500J0D01*
G01*
X109927500Y-65515000D01*
G75*
G02*
X110190000Y-65777500I0J-262500D01*
G01*
G37*
G36*
G01*
X111940000Y-65777500D02*
X111940000Y-66302500D01*
G75*
G02*
X111677500Y-66565000I-262500J0D01*
G01*
X111052500Y-66565000D01*
G75*
G02*
X110790000Y-66302500I0J262500D01*
G01*
X110790000Y-65777500D01*
G75*
G02*
X111052500Y-65515000I262500J0D01*
G01*
X111677500Y-65515000D01*
G75*
G02*
X111940000Y-65777500I0J-262500D01*
G01*
G37*
%TD*%
%TO.C,FB2*%
G36*
G01*
X111940000Y-75937500D02*
X111940000Y-76462500D01*
G75*
G02*
X111677500Y-76725000I-262500J0D01*
G01*
X111052500Y-76725000D01*
G75*
G02*
X110790000Y-76462500I0J262500D01*
G01*
X110790000Y-75937500D01*
G75*
G02*
X111052500Y-75675000I262500J0D01*
G01*
X111677500Y-75675000D01*
G75*
G02*
X111940000Y-75937500I0J-262500D01*
G01*
G37*
G36*
G01*
X110190000Y-75937500D02*
X110190000Y-76462500D01*
G75*
G02*
X109927500Y-76725000I-262500J0D01*
G01*
X109302500Y-76725000D01*
G75*
G02*
X109040000Y-76462500I0J262500D01*
G01*
X109040000Y-75937500D01*
G75*
G02*
X109302500Y-75675000I262500J0D01*
G01*
X109927500Y-75675000D01*
G75*
G02*
X110190000Y-75937500I0J-262500D01*
G01*
G37*
%TD*%
%TO.C,J1*%
G36*
G01*
X104182000Y-67730000D02*
X104182000Y-69430000D01*
G75*
G02*
X104132000Y-69480000I-50000J0D01*
G01*
X101608000Y-69480000D01*
G75*
G02*
X101558000Y-69430000I0J50000D01*
G01*
X101558000Y-67730000D01*
G75*
G02*
X101608000Y-67680000I50000J0D01*
G01*
X104132000Y-67680000D01*
G75*
G02*
X104182000Y-67730000I0J-50000D01*
G01*
G37*
G36*
G01*
X104182000Y-67730000D02*
X104182000Y-69430000D01*
G75*
G02*
X104132000Y-69480000I-50000J0D01*
G01*
X101608000Y-69480000D01*
G75*
G02*
X101558000Y-69430000I0J50000D01*
G01*
X101558000Y-67730000D01*
G75*
G02*
X101608000Y-67680000I50000J0D01*
G01*
X104132000Y-67680000D01*
G75*
G02*
X104182000Y-67730000I0J-50000D01*
G01*
G37*
D11*
X101600000Y-68580000D03*
G36*
G01*
X105040000Y-67730000D02*
X105040000Y-69430000D01*
G75*
G02*
X104990000Y-69480000I-50000J0D01*
G01*
X103290000Y-69480000D01*
G75*
G02*
X103240000Y-69430000I0J50000D01*
G01*
X103240000Y-67730000D01*
G75*
G02*
X103290000Y-67680000I50000J0D01*
G01*
X104990000Y-67680000D01*
G75*
G02*
X105040000Y-67730000I0J-50000D01*
G01*
G37*
%TD*%
%TO.C,J2*%
G36*
G01*
X105040000Y-70270000D02*
X105040000Y-71970000D01*
G75*
G02*
X104990000Y-72020000I-50000J0D01*
G01*
X103290000Y-72020000D01*
G75*
G02*
X103240000Y-71970000I0J50000D01*
G01*
X103240000Y-70270000D01*
G75*
G02*
X103290000Y-70220000I50000J0D01*
G01*
X104990000Y-70220000D01*
G75*
G02*
X105040000Y-70270000I0J-50000D01*
G01*
G37*
X101600000Y-71120000D03*
G36*
G01*
X104182000Y-70270000D02*
X104182000Y-71970000D01*
G75*
G02*
X104132000Y-72020000I-50000J0D01*
G01*
X101608000Y-72020000D01*
G75*
G02*
X101558000Y-71970000I0J50000D01*
G01*
X101558000Y-70270000D01*
G75*
G02*
X101608000Y-70220000I50000J0D01*
G01*
X104132000Y-70220000D01*
G75*
G02*
X104182000Y-70270000I0J-50000D01*
G01*
G37*
G36*
G01*
X104182000Y-70270000D02*
X104182000Y-71970000D01*
G75*
G02*
X104132000Y-72020000I-50000J0D01*
G01*
X101608000Y-72020000D01*
G75*
G02*
X101558000Y-71970000I0J50000D01*
G01*
X101558000Y-70270000D01*
G75*
G02*
X101608000Y-70220000I50000J0D01*
G01*
X104132000Y-70220000D01*
G75*
G02*
X104182000Y-70270000I0J-50000D01*
G01*
G37*
%TD*%
%TO.C,J3*%
G36*
G01*
X105040000Y-72810000D02*
X105040000Y-74510000D01*
G75*
G02*
X104990000Y-74560000I-50000J0D01*
G01*
X103290000Y-74560000D01*
G75*
G02*
X103240000Y-74510000I0J50000D01*
G01*
X103240000Y-72810000D01*
G75*
G02*
X103290000Y-72760000I50000J0D01*
G01*
X104990000Y-72760000D01*
G75*
G02*
X105040000Y-72810000I0J-50000D01*
G01*
G37*
X101600000Y-73660000D03*
G36*
G01*
X104182000Y-72810000D02*
X104182000Y-74510000D01*
G75*
G02*
X104132000Y-74560000I-50000J0D01*
G01*
X101608000Y-74560000D01*
G75*
G02*
X101558000Y-74510000I0J50000D01*
G01*
X101558000Y-72810000D01*
G75*
G02*
X101608000Y-72760000I50000J0D01*
G01*
X104132000Y-72760000D01*
G75*
G02*
X104182000Y-72810000I0J-50000D01*
G01*
G37*
G36*
G01*
X104182000Y-72810000D02*
X104182000Y-74510000D01*
G75*
G02*
X104132000Y-74560000I-50000J0D01*
G01*
X101608000Y-74560000D01*
G75*
G02*
X101558000Y-74510000I0J50000D01*
G01*
X101558000Y-72810000D01*
G75*
G02*
X101608000Y-72760000I50000J0D01*
G01*
X104132000Y-72760000D01*
G75*
G02*
X104182000Y-72810000I0J-50000D01*
G01*
G37*
%TD*%
%TO.C,J4*%
G36*
G01*
X126958000Y-66890000D02*
X126958000Y-65190000D01*
G75*
G02*
X127008000Y-65140000I50000J0D01*
G01*
X129532000Y-65140000D01*
G75*
G02*
X129582000Y-65190000I0J-50000D01*
G01*
X129582000Y-66890000D01*
G75*
G02*
X129532000Y-66940000I-50000J0D01*
G01*
X127008000Y-66940000D01*
G75*
G02*
X126958000Y-66890000I0J50000D01*
G01*
G37*
G36*
G01*
X126958000Y-66890000D02*
X126958000Y-65190000D01*
G75*
G02*
X127008000Y-65140000I50000J0D01*
G01*
X129532000Y-65140000D01*
G75*
G02*
X129582000Y-65190000I0J-50000D01*
G01*
X129582000Y-66890000D01*
G75*
G02*
X129532000Y-66940000I-50000J0D01*
G01*
X127008000Y-66940000D01*
G75*
G02*
X126958000Y-66890000I0J50000D01*
G01*
G37*
X129540000Y-66040000D03*
G36*
G01*
X126100000Y-66890000D02*
X126100000Y-65190000D01*
G75*
G02*
X126150000Y-65140000I50000J0D01*
G01*
X127850000Y-65140000D01*
G75*
G02*
X127900000Y-65190000I0J-50000D01*
G01*
X127900000Y-66890000D01*
G75*
G02*
X127850000Y-66940000I-50000J0D01*
G01*
X126150000Y-66940000D01*
G75*
G02*
X126100000Y-66890000I0J50000D01*
G01*
G37*
%TD*%
%TO.C,J5*%
G36*
G01*
X105040000Y-65190000D02*
X105040000Y-66890000D01*
G75*
G02*
X104990000Y-66940000I-50000J0D01*
G01*
X103290000Y-66940000D01*
G75*
G02*
X103240000Y-66890000I0J50000D01*
G01*
X103240000Y-65190000D01*
G75*
G02*
X103290000Y-65140000I50000J0D01*
G01*
X104990000Y-65140000D01*
G75*
G02*
X105040000Y-65190000I0J-50000D01*
G01*
G37*
X101600000Y-66040000D03*
G36*
G01*
X104182000Y-65190000D02*
X104182000Y-66890000D01*
G75*
G02*
X104132000Y-66940000I-50000J0D01*
G01*
X101608000Y-66940000D01*
G75*
G02*
X101558000Y-66890000I0J50000D01*
G01*
X101558000Y-65190000D01*
G75*
G02*
X101608000Y-65140000I50000J0D01*
G01*
X104132000Y-65140000D01*
G75*
G02*
X104182000Y-65190000I0J-50000D01*
G01*
G37*
G36*
G01*
X104182000Y-65190000D02*
X104182000Y-66890000D01*
G75*
G02*
X104132000Y-66940000I-50000J0D01*
G01*
X101608000Y-66940000D01*
G75*
G02*
X101558000Y-66890000I0J50000D01*
G01*
X101558000Y-65190000D01*
G75*
G02*
X101608000Y-65140000I50000J0D01*
G01*
X104132000Y-65140000D01*
G75*
G02*
X104182000Y-65190000I0J-50000D01*
G01*
G37*
%TD*%
%TO.C,J6*%
G36*
G01*
X104182000Y-75350000D02*
X104182000Y-77050000D01*
G75*
G02*
X104132000Y-77100000I-50000J0D01*
G01*
X101608000Y-77100000D01*
G75*
G02*
X101558000Y-77050000I0J50000D01*
G01*
X101558000Y-75350000D01*
G75*
G02*
X101608000Y-75300000I50000J0D01*
G01*
X104132000Y-75300000D01*
G75*
G02*
X104182000Y-75350000I0J-50000D01*
G01*
G37*
G36*
G01*
X104182000Y-75350000D02*
X104182000Y-77050000D01*
G75*
G02*
X104132000Y-77100000I-50000J0D01*
G01*
X101608000Y-77100000D01*
G75*
G02*
X101558000Y-77050000I0J50000D01*
G01*
X101558000Y-75350000D01*
G75*
G02*
X101608000Y-75300000I50000J0D01*
G01*
X104132000Y-75300000D01*
G75*
G02*
X104182000Y-75350000I0J-50000D01*
G01*
G37*
X101600000Y-76200000D03*
G36*
G01*
X105040000Y-75350000D02*
X105040000Y-77050000D01*
G75*
G02*
X104990000Y-77100000I-50000J0D01*
G01*
X103290000Y-77100000D01*
G75*
G02*
X103240000Y-77050000I0J50000D01*
G01*
X103240000Y-75350000D01*
G75*
G02*
X103290000Y-75300000I50000J0D01*
G01*
X104990000Y-75300000D01*
G75*
G02*
X105040000Y-75350000I0J-50000D01*
G01*
G37*
%TD*%
%TO.C,U1*%
G36*
G01*
X124912000Y-72850000D02*
X124912000Y-73200000D01*
G75*
G02*
X124737000Y-73375000I-175000J0D01*
G01*
X123337000Y-73375000D01*
G75*
G02*
X123162000Y-73200000I0J175000D01*
G01*
X123162000Y-72850000D01*
G75*
G02*
X123337000Y-72675000I175000J0D01*
G01*
X124737000Y-72675000D01*
G75*
G02*
X124912000Y-72850000I0J-175000D01*
G01*
G37*
G36*
G01*
X124912000Y-71580000D02*
X124912000Y-71930000D01*
G75*
G02*
X124737000Y-72105000I-175000J0D01*
G01*
X123337000Y-72105000D01*
G75*
G02*
X123162000Y-71930000I0J175000D01*
G01*
X123162000Y-71580000D01*
G75*
G02*
X123337000Y-71405000I175000J0D01*
G01*
X124737000Y-71405000D01*
G75*
G02*
X124912000Y-71580000I0J-175000D01*
G01*
G37*
G36*
G01*
X124912000Y-70310000D02*
X124912000Y-70660000D01*
G75*
G02*
X124737000Y-70835000I-175000J0D01*
G01*
X123337000Y-70835000D01*
G75*
G02*
X123162000Y-70660000I0J175000D01*
G01*
X123162000Y-70310000D01*
G75*
G02*
X123337000Y-70135000I175000J0D01*
G01*
X124737000Y-70135000D01*
G75*
G02*
X124912000Y-70310000I0J-175000D01*
G01*
G37*
G36*
G01*
X124912000Y-69040000D02*
X124912000Y-69390000D01*
G75*
G02*
X124737000Y-69565000I-175000J0D01*
G01*
X123337000Y-69565000D01*
G75*
G02*
X123162000Y-69390000I0J175000D01*
G01*
X123162000Y-69040000D01*
G75*
G02*
X123337000Y-68865000I175000J0D01*
G01*
X124737000Y-68865000D01*
G75*
G02*
X124912000Y-69040000I0J-175000D01*
G01*
G37*
G36*
G01*
X119662000Y-69040000D02*
X119662000Y-69390000D01*
G75*
G02*
X119487000Y-69565000I-175000J0D01*
G01*
X118087000Y-69565000D01*
G75*
G02*
X117912000Y-69390000I0J175000D01*
G01*
X117912000Y-69040000D01*
G75*
G02*
X118087000Y-68865000I175000J0D01*
G01*
X119487000Y-68865000D01*
G75*
G02*
X119662000Y-69040000I0J-175000D01*
G01*
G37*
G36*
G01*
X119662000Y-70310000D02*
X119662000Y-70660000D01*
G75*
G02*
X119487000Y-70835000I-175000J0D01*
G01*
X118087000Y-70835000D01*
G75*
G02*
X117912000Y-70660000I0J175000D01*
G01*
X117912000Y-70310000D01*
G75*
G02*
X118087000Y-70135000I175000J0D01*
G01*
X119487000Y-70135000D01*
G75*
G02*
X119662000Y-70310000I0J-175000D01*
G01*
G37*
G36*
G01*
X119662000Y-71580000D02*
X119662000Y-71930000D01*
G75*
G02*
X119487000Y-72105000I-175000J0D01*
G01*
X118087000Y-72105000D01*
G75*
G02*
X117912000Y-71930000I0J175000D01*
G01*
X117912000Y-71580000D01*
G75*
G02*
X118087000Y-71405000I175000J0D01*
G01*
X119487000Y-71405000D01*
G75*
G02*
X119662000Y-71580000I0J-175000D01*
G01*
G37*
G36*
G01*
X119662000Y-72850000D02*
X119662000Y-73200000D01*
G75*
G02*
X119487000Y-73375000I-175000J0D01*
G01*
X118087000Y-73375000D01*
G75*
G02*
X117912000Y-73200000I0J175000D01*
G01*
X117912000Y-72850000D01*
G75*
G02*
X118087000Y-72675000I175000J0D01*
G01*
X119487000Y-72675000D01*
G75*
G02*
X119662000Y-72850000I0J-175000D01*
G01*
G37*
%TD*%
M02*
