G04 #@! TF.GenerationSoftware,KiCad,Pcbnew,(6.0.8)*
G04 #@! TF.CreationDate,2023-05-19T15:03:30+02:00*
G04 #@! TF.ProjectId,10_Audio_Facile,31305f41-7564-4696-9f5f-466163696c65,rev?*
G04 #@! TF.SameCoordinates,Original*
G04 #@! TF.FileFunction,Copper,L2,Bot*
G04 #@! TF.FilePolarity,Positive*
%FSLAX46Y46*%
G04 Gerber Fmt 4.6, Leading zero omitted, Abs format (unit mm)*
G04 Created by KiCad (PCBNEW (6.0.8)) date 2023-05-19 15:03:30*
%MOMM*%
%LPD*%
G01*
G04 APERTURE LIST*
G04 Aperture macros list*
%AMFreePoly0*
4,1,19,2.294749,0.844703,2.473926,0.804652,2.640323,0.727060,2.786177,0.615546,2.904682,0.475314,2.990310,0.312906,3.039066,0.135899,3.048675,-0.047448,3.018688,-0.228582,2.950505,-0.399051,2.847308,-0.550902,2.713909,-0.677050,2.556534,-0.771611,2.382525,-0.830171,2.200000,-0.850000,-0.850000,-0.850000,-0.850000,0.850000,2.200000,0.850000,2.294749,0.844703,2.294749,0.844703,
$1*%
G04 Aperture macros list end*
G04 #@! TA.AperFunction,ComponentPad*
%ADD10FreePoly0,180.000000*%
G04 #@! TD*
G04 #@! TA.AperFunction,ComponentPad*
%ADD11C,1.524000*%
G04 #@! TD*
G04 #@! TA.AperFunction,ViaPad*
%ADD12C,1.000000*%
G04 #@! TD*
G04 #@! TA.AperFunction,Conductor*
%ADD13C,0.400000*%
G04 #@! TD*
G04 APERTURE END LIST*
D10*
X104140000Y-63500000D03*
D11*
X101600000Y-63500000D03*
D10*
X104140000Y-68580000D03*
D11*
X101600000Y-68580000D03*
D10*
X104140000Y-71120000D03*
D11*
X101600000Y-71120000D03*
D10*
X104140000Y-73660000D03*
D11*
X101600000Y-73660000D03*
D10*
X104140000Y-66040000D03*
D11*
X101600000Y-66040000D03*
D10*
X104140000Y-76200000D03*
D11*
X101600000Y-76200000D03*
D12*
X123190000Y-66040000D03*
X123190000Y-64389000D03*
X115570000Y-62865000D03*
X123317000Y-76835000D03*
X121031000Y-76835000D03*
X118364000Y-76835000D03*
X116459000Y-75692000D03*
X110998000Y-68326000D03*
X109093000Y-67437000D03*
X106934000Y-67437000D03*
X111252000Y-64770000D03*
X109093000Y-64770000D03*
X106934000Y-64770000D03*
X123190000Y-62865000D03*
X120904000Y-62865000D03*
X118237000Y-62865000D03*
X121031000Y-67437000D03*
X119126000Y-67437000D03*
X117221000Y-67437000D03*
X115951000Y-65786000D03*
X118872000Y-74803000D03*
X114300000Y-76835000D03*
X114300000Y-73660000D03*
X108331000Y-74549000D03*
X109855000Y-73406000D03*
X111760000Y-73406000D03*
X106680000Y-74549000D03*
X119193400Y-69850000D03*
X120463400Y-69850000D03*
X120463400Y-71120000D03*
X119193400Y-71120000D03*
X120971400Y-73025000D03*
D13*
X116967000Y-73025000D02*
X120971400Y-73025000D01*
X115062000Y-71120000D02*
X116967000Y-73025000D01*
X104140000Y-71120000D02*
X115062000Y-71120000D01*
X120463400Y-69850000D02*
X120463400Y-71120000D01*
X119193400Y-69850000D02*
X120463400Y-69850000D01*
X120463400Y-71120000D02*
X119193400Y-71120000D01*
G04 #@! TA.AperFunction,Conductor*
G36*
X123893621Y-62123502D02*
G01*
X123940114Y-62177158D01*
X123951500Y-62229500D01*
X123951500Y-77470500D01*
X123931498Y-77538621D01*
X123877842Y-77585114D01*
X123825500Y-77596500D01*
X105465198Y-77596500D01*
X105397077Y-77576498D01*
X105350584Y-77522842D01*
X105340480Y-77452568D01*
X105369974Y-77387987D01*
X105416274Y-77334555D01*
X105416276Y-77334552D01*
X105422176Y-77327743D01*
X105482919Y-77194734D01*
X105503729Y-77050000D01*
X105503729Y-76277581D01*
X105503925Y-76270548D01*
X105506514Y-76224243D01*
X105506514Y-76224238D01*
X105506704Y-76220840D01*
X105503902Y-76167377D01*
X105503729Y-76160782D01*
X105503729Y-75350000D01*
X105498500Y-75276889D01*
X105457304Y-75136589D01*
X105392194Y-75035276D01*
X105383122Y-75021159D01*
X105383120Y-75021156D01*
X105378250Y-75013579D01*
X105371440Y-75007678D01*
X105274555Y-74923726D01*
X105274552Y-74923724D01*
X105267743Y-74917824D01*
X105134734Y-74857081D01*
X104990000Y-74836271D01*
X102234500Y-74836271D01*
X102166379Y-74816269D01*
X102119886Y-74762613D01*
X102108500Y-74710271D01*
X102108500Y-72609729D01*
X102128502Y-72541608D01*
X102182158Y-72495115D01*
X102234500Y-72483729D01*
X104990000Y-72483729D01*
X105021986Y-72481441D01*
X105056373Y-72478982D01*
X105056374Y-72478982D01*
X105063111Y-72478500D01*
X105142618Y-72455155D01*
X105194765Y-72439843D01*
X105194767Y-72439842D01*
X105203411Y-72437304D01*
X105242730Y-72412035D01*
X105318841Y-72363122D01*
X105318844Y-72363120D01*
X105326421Y-72358250D01*
X105362598Y-72316500D01*
X105416274Y-72254555D01*
X105416276Y-72254552D01*
X105422176Y-72247743D01*
X105482919Y-72114734D01*
X105503729Y-71970000D01*
X105503729Y-71954500D01*
X105523731Y-71886379D01*
X105577387Y-71839886D01*
X105629729Y-71828500D01*
X114716340Y-71828500D01*
X114784461Y-71848502D01*
X114805435Y-71865405D01*
X116445550Y-73505520D01*
X116451404Y-73511785D01*
X116489439Y-73555385D01*
X116495657Y-73559755D01*
X116541697Y-73592112D01*
X116546993Y-73596045D01*
X116597282Y-73635477D01*
X116604204Y-73638602D01*
X116606452Y-73639964D01*
X116621185Y-73648368D01*
X116623524Y-73649622D01*
X116629739Y-73653990D01*
X116636815Y-73656749D01*
X116636819Y-73656751D01*
X116689269Y-73677200D01*
X116695334Y-73679749D01*
X116753573Y-73706045D01*
X116761038Y-73707429D01*
X116763582Y-73708226D01*
X116779848Y-73712859D01*
X116782428Y-73713521D01*
X116789509Y-73716282D01*
X116797042Y-73717274D01*
X116797043Y-73717274D01*
X116829699Y-73721573D01*
X116852857Y-73724622D01*
X116859355Y-73725650D01*
X116922187Y-73737296D01*
X116929767Y-73736859D01*
X116929768Y-73736859D01*
X116984393Y-73733709D01*
X116991647Y-73733500D01*
X120201419Y-73733500D01*
X120269540Y-73753502D01*
X120283082Y-73763546D01*
X120393050Y-73857136D01*
X120565694Y-73953624D01*
X120753792Y-74014740D01*
X120950177Y-74038158D01*
X120956312Y-74037686D01*
X120956314Y-74037686D01*
X121141230Y-74023457D01*
X121141234Y-74023456D01*
X121147372Y-74022984D01*
X121337863Y-73969798D01*
X121343367Y-73967018D01*
X121343369Y-73967017D01*
X121508895Y-73883404D01*
X121508897Y-73883403D01*
X121514396Y-73880625D01*
X121645546Y-73778160D01*
X121665391Y-73762655D01*
X121670247Y-73758861D01*
X121799478Y-73609145D01*
X121897169Y-73437179D01*
X121959597Y-73249513D01*
X121984385Y-73053295D01*
X121984780Y-73025000D01*
X121965480Y-72828167D01*
X121908316Y-72638831D01*
X121815466Y-72464204D01*
X121723498Y-72351440D01*
X121694360Y-72315713D01*
X121694357Y-72315710D01*
X121690465Y-72310938D01*
X121685716Y-72307009D01*
X121542825Y-72188799D01*
X121542821Y-72188797D01*
X121538075Y-72184870D01*
X121364101Y-72090802D01*
X121175168Y-72032318D01*
X121169043Y-72031674D01*
X121169042Y-72031674D01*
X120984604Y-72012289D01*
X120984602Y-72012289D01*
X120978475Y-72011645D01*
X120895976Y-72019153D01*
X120787651Y-72029011D01*
X120787648Y-72029012D01*
X120781512Y-72029570D01*
X120775606Y-72031308D01*
X120775602Y-72031309D01*
X120670476Y-72062249D01*
X120591781Y-72085410D01*
X120586323Y-72088263D01*
X120586319Y-72088265D01*
X120520008Y-72122932D01*
X120416510Y-72177040D01*
X120277636Y-72288698D01*
X120212016Y-72315793D01*
X120198686Y-72316500D01*
X117312660Y-72316500D01*
X117244539Y-72296498D01*
X117223565Y-72279595D01*
X115583450Y-70639480D01*
X115577596Y-70633215D01*
X115577201Y-70632762D01*
X115539561Y-70589615D01*
X115487280Y-70552871D01*
X115481986Y-70548939D01*
X115437693Y-70514209D01*
X115431718Y-70509524D01*
X115424802Y-70506401D01*
X115422516Y-70505017D01*
X115407835Y-70496643D01*
X115405475Y-70495378D01*
X115399261Y-70491010D01*
X115392182Y-70488250D01*
X115392180Y-70488249D01*
X115339725Y-70467798D01*
X115333656Y-70465247D01*
X115275427Y-70438955D01*
X115267960Y-70437571D01*
X115265405Y-70436770D01*
X115249152Y-70432141D01*
X115246572Y-70431478D01*
X115239491Y-70428718D01*
X115231960Y-70427727D01*
X115231958Y-70427726D01*
X115202339Y-70423827D01*
X115176139Y-70420378D01*
X115169641Y-70419348D01*
X115106814Y-70407704D01*
X115099234Y-70408141D01*
X115099233Y-70408141D01*
X115044608Y-70411291D01*
X115037354Y-70411500D01*
X105629729Y-70411500D01*
X105561608Y-70391498D01*
X105515115Y-70337842D01*
X105503729Y-70285500D01*
X105503729Y-70270000D01*
X105498500Y-70196889D01*
X105457304Y-70056589D01*
X105392194Y-69955276D01*
X105383122Y-69941159D01*
X105383120Y-69941156D01*
X105378250Y-69933579D01*
X105372676Y-69928749D01*
X105343525Y-69864922D01*
X105353627Y-69794647D01*
X105373018Y-69764474D01*
X105416274Y-69714555D01*
X105416276Y-69714552D01*
X105422176Y-69707743D01*
X105482919Y-69574734D01*
X105503729Y-69430000D01*
X105503729Y-68657581D01*
X105503925Y-68650548D01*
X105506514Y-68604243D01*
X105506514Y-68604238D01*
X105506704Y-68600840D01*
X105503902Y-68547377D01*
X105503729Y-68540782D01*
X105503729Y-67730000D01*
X105498500Y-67656889D01*
X105457304Y-67516589D01*
X105392194Y-67415276D01*
X105383122Y-67401159D01*
X105383120Y-67401156D01*
X105378250Y-67393579D01*
X105372676Y-67388749D01*
X105343525Y-67324922D01*
X105353627Y-67254647D01*
X105373018Y-67224474D01*
X105416274Y-67174555D01*
X105416276Y-67174552D01*
X105422176Y-67167743D01*
X105482919Y-67034734D01*
X105503729Y-66890000D01*
X105503729Y-66117581D01*
X105503925Y-66110548D01*
X105506514Y-66064243D01*
X105506514Y-66064238D01*
X105506704Y-66060840D01*
X105503902Y-66007377D01*
X105503729Y-66000782D01*
X105503729Y-65190000D01*
X105498500Y-65116889D01*
X105457304Y-64976589D01*
X105392194Y-64875276D01*
X105383122Y-64861159D01*
X105383120Y-64861156D01*
X105378250Y-64853579D01*
X105372676Y-64848749D01*
X105343525Y-64784922D01*
X105353627Y-64714647D01*
X105373018Y-64684474D01*
X105416274Y-64634555D01*
X105416276Y-64634552D01*
X105422176Y-64627743D01*
X105482919Y-64494734D01*
X105503729Y-64350000D01*
X105503729Y-63577581D01*
X105503925Y-63570548D01*
X105506514Y-63524243D01*
X105506514Y-63524238D01*
X105506704Y-63520840D01*
X105503902Y-63467377D01*
X105503729Y-63460782D01*
X105503729Y-62650000D01*
X105498500Y-62576889D01*
X105457304Y-62436589D01*
X105378250Y-62313579D01*
X105374379Y-62310225D01*
X105345703Y-62247433D01*
X105355806Y-62177159D01*
X105402298Y-62123503D01*
X105470420Y-62103500D01*
X123825500Y-62103500D01*
X123893621Y-62123502D01*
G37*
G04 #@! TD.AperFunction*
M02*
