M48
; DRILL file {KiCad (5.1.6)-1} date 04/06/21 00:06:43
; FORMAT={-:-/ absolute / inch / decimal}
; #@! TF.CreationDate,2021-04-06T00:06:43+02:00
; #@! TF.GenerationSoftware,Kicad,Pcbnew,(5.1.6)-1
; #@! TF.FileFunction,Plated,1,2,PTH
FMAT,2
INCH
T1C0.0236
T2C0.0300
T3C0.0394
%
G90
G05
T1
X4.05Y-2.5
X4.05Y-3.1
X4.15Y-2.5
X4.15Y-3.1
X4.25Y-2.665
X4.25Y-2.95
X4.35Y-2.5
X4.35Y-2.67
X4.35Y-2.9
X4.35Y-3.1
X4.425Y-2.67
X4.45Y-2.5
X4.45Y-2.9
X4.45Y-3.1
X4.525Y-2.675
X4.525Y-2.905
X4.55Y-2.5
X4.55Y-3.1
X4.6Y-2.6
X4.6Y-3.0
X4.65Y-2.5
X4.65Y-2.65
X4.65Y-2.95
X4.65Y-3.1
X4.7Y-2.55
X4.7Y-3.05
X4.735Y-2.95
X4.75Y-2.5
X4.75Y-2.65
X4.75Y-2.75
X4.75Y-2.8
X4.75Y-3.1
X4.8Y-2.75
X4.8Y-2.8
X4.82Y-2.875
X4.85Y-2.5
X4.85Y-3.1
X4.945Y-2.915
X4.95Y-2.5
X4.95Y-3.0
X4.95Y-3.1
X5.05Y-2.5
X5.05Y-2.7
X5.05Y-2.8
X5.05Y-2.9
X5.05Y-3.0
X5.05Y-3.1
T2
X4.0Y-2.8
X4.0Y-2.7
X4.0Y-3.0
X4.0Y-2.6
X4.0Y-2.9
X5.1Y-2.6
T3
X5.0Y-2.6
X4.1Y-2.8
X4.1Y-2.7
X4.1Y-3.0
X4.1Y-2.6
X4.1Y-2.9
T0
M30
