%TF.GenerationSoftware,KiCad,Pcbnew,(6.0.8)*%
%TF.CreationDate,2023-05-19T15:03:57+02:00*%
%TF.ProjectId,10_Audio_Facile,31305f41-7564-4696-9f5f-466163696c65,rev?*%
%TF.SameCoordinates,Original*%
%TF.FileFunction,Drillmap*%
%TF.FilePolarity,Positive*%
%FSLAX45Y45*%
G04 Gerber Fmt 4.5, Leading zero omitted, Abs format (unit mm)*
G04 Created by KiCad (PCBNEW (6.0.8)) date 2023-05-19 15:03:57*
%MOMM*%
%LPD*%
G01*
G04 APERTURE LIST*
%ADD10C,0.050000*%
%ADD11C,0.200000*%
G04 APERTURE END LIST*
D10*
X12446000Y-7810500D02*
X10160000Y-7810500D01*
X12446000Y-6159500D02*
X12446000Y-7810500D01*
X10160000Y-7747000D02*
X10160000Y-7810500D01*
X10160000Y-7747000D02*
X10160000Y-6159500D01*
X10160000Y-6159500D02*
X12446000Y-6159500D01*
D11*
X10415119Y-8123476D02*
X10415119Y-7923476D01*
X10462738Y-7923476D01*
X10491310Y-7933000D01*
X10510357Y-7952048D01*
X10519881Y-7971095D01*
X10529405Y-8009190D01*
X10529405Y-8037762D01*
X10519881Y-8075857D01*
X10510357Y-8094905D01*
X10491310Y-8113952D01*
X10462738Y-8123476D01*
X10415119Y-8123476D01*
X10615119Y-8123476D02*
X10615119Y-7990143D01*
X10615119Y-8028238D02*
X10624643Y-8009190D01*
X10634167Y-7999667D01*
X10653214Y-7990143D01*
X10672262Y-7990143D01*
X10738929Y-8123476D02*
X10738929Y-7990143D01*
X10738929Y-7923476D02*
X10729405Y-7933000D01*
X10738929Y-7942524D01*
X10748452Y-7933000D01*
X10738929Y-7923476D01*
X10738929Y-7942524D01*
X10862738Y-8123476D02*
X10843690Y-8113952D01*
X10834167Y-8094905D01*
X10834167Y-7923476D01*
X10967500Y-8123476D02*
X10948452Y-8113952D01*
X10938929Y-8094905D01*
X10938929Y-7923476D01*
X11196071Y-8123476D02*
X11196071Y-7923476D01*
X11262738Y-8066333D01*
X11329405Y-7923476D01*
X11329405Y-8123476D01*
X11510357Y-8123476D02*
X11510357Y-8018714D01*
X11500833Y-7999667D01*
X11481786Y-7990143D01*
X11443690Y-7990143D01*
X11424643Y-7999667D01*
X11510357Y-8113952D02*
X11491309Y-8123476D01*
X11443690Y-8123476D01*
X11424643Y-8113952D01*
X11415119Y-8094905D01*
X11415119Y-8075857D01*
X11424643Y-8056809D01*
X11443690Y-8047286D01*
X11491309Y-8047286D01*
X11510357Y-8037762D01*
X11605595Y-7990143D02*
X11605595Y-8190143D01*
X11605595Y-7999667D02*
X11624643Y-7990143D01*
X11662738Y-7990143D01*
X11681786Y-7999667D01*
X11691309Y-8009190D01*
X11700833Y-8028238D01*
X11700833Y-8085381D01*
X11691309Y-8104428D01*
X11681786Y-8113952D01*
X11662738Y-8123476D01*
X11624643Y-8123476D01*
X11605595Y-8113952D01*
X11786548Y-8104428D02*
X11796071Y-8113952D01*
X11786548Y-8123476D01*
X11777024Y-8113952D01*
X11786548Y-8104428D01*
X11786548Y-8123476D01*
X11786548Y-7999667D02*
X11796071Y-8009190D01*
X11786548Y-8018714D01*
X11777024Y-8009190D01*
X11786548Y-7999667D01*
X11786548Y-8018714D01*
M02*
