%TF.GenerationSoftware,KiCad,Pcbnew,(5.1.9)-1*%
%TF.CreationDate,2021-05-26T17:20:17+02:00*%
%TF.ProjectId,10_Audio_Facile,31305f41-7564-4696-9f5f-466163696c65,rev?*%
%TF.SameCoordinates,Original*%
%TF.FileFunction,Legend,Top*%
%TF.FilePolarity,Positive*%
%FSLAX46Y46*%
G04 Gerber Fmt 4.6, Leading zero omitted, Abs format (unit mm)*
G04 Created by KiCad (PCBNEW (5.1.9)-1) date 2021-05-26 17:20:17*
%MOMM*%
%LPD*%
G01*
G04 APERTURE LIST*
%ADD10C,0.150000*%
%ADD11C,0.120000*%
%TA.AperFunction,Profile*%
%ADD12C,0.050000*%
%TD*%
G04 APERTURE END LIST*
D10*
X106322761Y-71905714D02*
X106370380Y-71762857D01*
X106370380Y-71524761D01*
X106322761Y-71429523D01*
X106275142Y-71381904D01*
X106179904Y-71334285D01*
X106084666Y-71334285D01*
X105989428Y-71381904D01*
X105941809Y-71429523D01*
X105894190Y-71524761D01*
X105846571Y-71715238D01*
X105798952Y-71810476D01*
X105751333Y-71858095D01*
X105656095Y-71905714D01*
X105560857Y-71905714D01*
X105465619Y-71858095D01*
X105418000Y-71810476D01*
X105370380Y-71715238D01*
X105370380Y-71477142D01*
X105418000Y-71334285D01*
X106370380Y-70905714D02*
X105370380Y-70905714D01*
X105370380Y-70667619D01*
X105418000Y-70524761D01*
X105513238Y-70429523D01*
X105608476Y-70381904D01*
X105798952Y-70334285D01*
X105941809Y-70334285D01*
X106132285Y-70381904D01*
X106227523Y-70429523D01*
X106322761Y-70524761D01*
X106370380Y-70667619D01*
X106370380Y-70905714D01*
X102767047Y-63079380D02*
X102957523Y-63079380D01*
X103052761Y-63127000D01*
X103148000Y-63222238D01*
X103195619Y-63412714D01*
X103195619Y-63746047D01*
X103148000Y-63936523D01*
X103052761Y-64031761D01*
X102957523Y-64079380D01*
X102767047Y-64079380D01*
X102671809Y-64031761D01*
X102576571Y-63936523D01*
X102528952Y-63746047D01*
X102528952Y-63412714D01*
X102576571Y-63222238D01*
X102671809Y-63127000D01*
X102767047Y-63079380D01*
X103624190Y-63079380D02*
X103624190Y-63888904D01*
X103671809Y-63984142D01*
X103719428Y-64031761D01*
X103814666Y-64079380D01*
X104005142Y-64079380D01*
X104100380Y-64031761D01*
X104148000Y-63984142D01*
X104195619Y-63888904D01*
X104195619Y-63079380D01*
X104528952Y-63079380D02*
X105100380Y-63079380D01*
X104814666Y-64079380D02*
X104814666Y-63079380D01*
X105195619Y-64174619D02*
X105957523Y-64174619D01*
X106195619Y-64079380D02*
X106195619Y-63079380D01*
X106576571Y-63079380D01*
X106671809Y-63127000D01*
X106719428Y-63174619D01*
X106767047Y-63269857D01*
X106767047Y-63412714D01*
X106719428Y-63507952D01*
X106671809Y-63555571D01*
X106576571Y-63603190D01*
X106195619Y-63603190D01*
X106489523Y-67397380D02*
X106013333Y-67397380D01*
X105965714Y-67873571D01*
X106013333Y-67825952D01*
X106108571Y-67778333D01*
X106346666Y-67778333D01*
X106441904Y-67825952D01*
X106489523Y-67873571D01*
X106537142Y-67968809D01*
X106537142Y-68206904D01*
X106489523Y-68302142D01*
X106441904Y-68349761D01*
X106346666Y-68397380D01*
X106108571Y-68397380D01*
X106013333Y-68349761D01*
X105965714Y-68302142D01*
X106822857Y-67397380D02*
X107156190Y-68397380D01*
X107489523Y-67397380D01*
D11*
X108331000Y-74168000D02*
X105664000Y-74041000D01*
D10*
X102870238Y-77811380D02*
X103060714Y-77811380D01*
X103155952Y-77859000D01*
X103251190Y-77954238D01*
X103298809Y-78144714D01*
X103298809Y-78478047D01*
X103251190Y-78668523D01*
X103155952Y-78763761D01*
X103060714Y-78811380D01*
X102870238Y-78811380D01*
X102775000Y-78763761D01*
X102679761Y-78668523D01*
X102632142Y-78478047D01*
X102632142Y-78144714D01*
X102679761Y-77954238D01*
X102775000Y-77859000D01*
X102870238Y-77811380D01*
X103727380Y-77811380D02*
X103727380Y-78620904D01*
X103775000Y-78716142D01*
X103822619Y-78763761D01*
X103917857Y-78811380D01*
X104108333Y-78811380D01*
X104203571Y-78763761D01*
X104251190Y-78716142D01*
X104298809Y-78620904D01*
X104298809Y-77811380D01*
X104632142Y-77811380D02*
X105203571Y-77811380D01*
X104917857Y-78811380D02*
X104917857Y-77811380D01*
X105298809Y-78906619D02*
X106060714Y-78906619D01*
X106298809Y-78811380D02*
X106298809Y-77811380D01*
X106870238Y-78811380D01*
X106870238Y-77811380D01*
X126476190Y-68778380D02*
X126476190Y-67778380D01*
X126952380Y-68778380D02*
X126952380Y-67778380D01*
X127523809Y-68778380D01*
X127523809Y-67778380D01*
D11*
X127000000Y-73152000D02*
X126873000Y-73152000D01*
X127000000Y-72771000D02*
X127000000Y-73152000D01*
X125730000Y-72771000D02*
X127000000Y-72771000D01*
X125730000Y-73152000D02*
X125730000Y-72771000D01*
X126873000Y-73152000D02*
X125730000Y-73152000D01*
X125730000Y-73152000D02*
X126873000Y-73152000D01*
D10*
X109220095Y-73922000D02*
X109124857Y-73874380D01*
X108982000Y-73874380D01*
X108839142Y-73922000D01*
X108743904Y-74017238D01*
X108696285Y-74112476D01*
X108648666Y-74302952D01*
X108648666Y-74445809D01*
X108696285Y-74636285D01*
X108743904Y-74731523D01*
X108839142Y-74826761D01*
X108982000Y-74874380D01*
X109077238Y-74874380D01*
X109220095Y-74826761D01*
X109267714Y-74779142D01*
X109267714Y-74445809D01*
X109077238Y-74445809D01*
X109696285Y-74874380D02*
X109696285Y-73874380D01*
X110267714Y-74874380D01*
X110267714Y-73874380D01*
X110743904Y-74874380D02*
X110743904Y-73874380D01*
X110982000Y-73874380D01*
X111124857Y-73922000D01*
X111220095Y-74017238D01*
X111267714Y-74112476D01*
X111315333Y-74302952D01*
X111315333Y-74445809D01*
X111267714Y-74636285D01*
X111220095Y-74731523D01*
X111124857Y-74826761D01*
X110982000Y-74874380D01*
X110743904Y-74874380D01*
D12*
X130810000Y-67310000D02*
X129540000Y-67310000D01*
X130810000Y-64770000D02*
X130810000Y-67310000D01*
X129540000Y-64770000D02*
X130810000Y-64770000D01*
X129540000Y-60960000D02*
X129540000Y-64770000D01*
X129540000Y-67310000D02*
X129540000Y-81280000D01*
X101600000Y-60960000D02*
X129540000Y-60960000D01*
X101600000Y-77470000D02*
X101600000Y-81280000D01*
X100330000Y-77470000D02*
X101600000Y-77470000D01*
X101600000Y-60960000D02*
X101600000Y-64770000D01*
X101600000Y-64770000D02*
X100330000Y-64770000D01*
X129540000Y-81280000D02*
X101600000Y-81280000D01*
X100330000Y-77470000D02*
X100330000Y-64770000D01*
D11*
%TO.C,C1*%
X109310000Y-71722064D02*
X109310000Y-70517936D01*
X106590000Y-71722064D02*
X106590000Y-70517936D01*
%TO.C,C2*%
X109980000Y-71291267D02*
X109980000Y-70948733D01*
X111000000Y-71291267D02*
X111000000Y-70948733D01*
%TO.C,C3*%
X112905000Y-71291267D02*
X112905000Y-70948733D01*
X111885000Y-71291267D02*
X111885000Y-70948733D01*
%TO.C,C4*%
X113790000Y-71291267D02*
X113790000Y-70948733D01*
X114810000Y-71291267D02*
X114810000Y-70948733D01*
%TO.C,C5*%
X116715000Y-71291267D02*
X116715000Y-70948733D01*
X115695000Y-71291267D02*
X115695000Y-70948733D01*
%TO.C,C6*%
X107440000Y-64941267D02*
X107440000Y-64598733D01*
X108460000Y-64941267D02*
X108460000Y-64598733D01*
%TO.C,C7*%
X123272733Y-76452000D02*
X123615267Y-76452000D01*
X123272733Y-77472000D02*
X123615267Y-77472000D01*
%TO.C,C8*%
X123272733Y-65788000D02*
X123615267Y-65788000D01*
X123272733Y-64768000D02*
X123615267Y-64768000D01*
%TO.C,C9*%
X108460000Y-77641267D02*
X108460000Y-77298733D01*
X107440000Y-77641267D02*
X107440000Y-77298733D01*
%TO.C,FB1*%
X110661267Y-66550000D02*
X110318733Y-66550000D01*
X110661267Y-65530000D02*
X110318733Y-65530000D01*
%TO.C,FB2*%
X110661267Y-75690000D02*
X110318733Y-75690000D01*
X110661267Y-76710000D02*
X110318733Y-76710000D01*
%TO.C,J1*%
X105470000Y-67250000D02*
X102810000Y-67250000D01*
X105470000Y-67310000D02*
X105470000Y-67250000D01*
X102810000Y-67310000D02*
X102810000Y-67250000D01*
X105470000Y-67310000D02*
X102810000Y-67310000D01*
X105470000Y-68580000D02*
X105470000Y-69910000D01*
X105470000Y-69910000D02*
X104140000Y-69910000D01*
%TO.C,J2*%
X105470000Y-72450000D02*
X104140000Y-72450000D01*
X105470000Y-71120000D02*
X105470000Y-72450000D01*
X105470000Y-69850000D02*
X102810000Y-69850000D01*
X102810000Y-69850000D02*
X102810000Y-69790000D01*
X105470000Y-69850000D02*
X105470000Y-69790000D01*
X105470000Y-69790000D02*
X102810000Y-69790000D01*
%TO.C,J3*%
X105470000Y-74990000D02*
X104140000Y-74990000D01*
X105470000Y-73660000D02*
X105470000Y-74990000D01*
X105470000Y-72390000D02*
X102810000Y-72390000D01*
X102810000Y-72390000D02*
X102810000Y-72330000D01*
X105470000Y-72390000D02*
X105470000Y-72330000D01*
X105470000Y-72330000D02*
X102810000Y-72330000D01*
%TO.C,J4*%
X125670000Y-67370000D02*
X128330000Y-67370000D01*
X125670000Y-67310000D02*
X125670000Y-67370000D01*
X128330000Y-67310000D02*
X128330000Y-67370000D01*
X125670000Y-67310000D02*
X128330000Y-67310000D01*
X125670000Y-66040000D02*
X125670000Y-64710000D01*
X125670000Y-64710000D02*
X127000000Y-64710000D01*
%TO.C,J5*%
X105470000Y-67370000D02*
X104140000Y-67370000D01*
X105470000Y-66040000D02*
X105470000Y-67370000D01*
X105470000Y-64770000D02*
X102810000Y-64770000D01*
X102810000Y-64770000D02*
X102810000Y-64710000D01*
X105470000Y-64770000D02*
X105470000Y-64710000D01*
X105470000Y-64710000D02*
X102810000Y-64710000D01*
%TO.C,J6*%
X105470000Y-74870000D02*
X102810000Y-74870000D01*
X105470000Y-74930000D02*
X105470000Y-74870000D01*
X102810000Y-74930000D02*
X102810000Y-74870000D01*
X105470000Y-74930000D02*
X102810000Y-74930000D01*
X105470000Y-76200000D02*
X105470000Y-77530000D01*
X105470000Y-77530000D02*
X104140000Y-77530000D01*
%TO.C,U1*%
X121412000Y-73680000D02*
X124862000Y-73680000D01*
X121412000Y-73680000D02*
X119462000Y-73680000D01*
X121412000Y-68560000D02*
X123362000Y-68560000D01*
X121412000Y-68560000D02*
X119462000Y-68560000D01*
%TD*%
M02*
