%TF.GenerationSoftware,KiCad,Pcbnew,(5.1.6)-1*%
%TF.CreationDate,2021-04-06T00:06:40+02:00*%
%TF.ProjectId,10_Audio_Facile,31305f41-7564-4696-9f5f-466163696c65,rev?*%
%TF.SameCoordinates,Original*%
%TF.FileFunction,Copper,L2,Bot*%
%TF.FilePolarity,Positive*%
%FSLAX46Y46*%
G04 Gerber Fmt 4.6, Leading zero omitted, Abs format (unit mm)*
G04 Created by KiCad (PCBNEW (5.1.6)-1) date 2021-04-06 00:06:40*
%MOMM*%
%LPD*%
G01*
G04 APERTURE LIST*
%TA.AperFunction,Profile*%
%ADD10C,0.050000*%
%TD*%
%TA.AperFunction,SMDPad,CuDef*%
%ADD11R,2.524000X1.700000*%
%TD*%
%TA.AperFunction,ComponentPad*%
%ADD12C,1.524000*%
%TD*%
%TA.AperFunction,ComponentPad*%
%ADD13R,1.700000X1.700000*%
%TD*%
%TA.AperFunction,ViaPad*%
%ADD14C,1.000000*%
%TD*%
%TA.AperFunction,Conductor*%
%ADD15C,0.400000*%
%TD*%
%TA.AperFunction,Conductor*%
%ADD16C,0.254000*%
%TD*%
G04 APERTURE END LIST*
D10*
X130810000Y-67310000D02*
X129540000Y-67310000D01*
X130810000Y-64770000D02*
X130810000Y-67310000D01*
X129540000Y-64770000D02*
X130810000Y-64770000D01*
X129540000Y-60960000D02*
X129540000Y-64770000D01*
X129540000Y-67310000D02*
X129540000Y-81280000D01*
X101600000Y-60960000D02*
X129540000Y-60960000D01*
X101600000Y-77470000D02*
X101600000Y-81280000D01*
X100330000Y-77470000D02*
X101600000Y-77470000D01*
X101600000Y-60960000D02*
X101600000Y-64770000D01*
X101600000Y-64770000D02*
X100330000Y-64770000D01*
X129540000Y-81280000D02*
X101600000Y-81280000D01*
X100330000Y-77470000D02*
X100330000Y-64770000D01*
D11*
%TO.P,J1,1*%
%TO.N,5V*%
X102870000Y-68580000D03*
D12*
X101600000Y-68580000D03*
D13*
X104140000Y-68580000D03*
%TD*%
%TO.P,J2,1*%
%TO.N,SD*%
X104140000Y-71120000D03*
D12*
X101600000Y-71120000D03*
D11*
X102870000Y-71120000D03*
%TD*%
D13*
%TO.P,J3,1*%
%TO.N,GND*%
X104140000Y-73660000D03*
D12*
X101600000Y-73660000D03*
D11*
X102870000Y-73660000D03*
%TD*%
%TO.P,J4,1*%
%TO.N,IN*%
X128270000Y-66040000D03*
D12*
X129540000Y-66040000D03*
D13*
X127000000Y-66040000D03*
%TD*%
%TO.P,J5,1*%
%TO.N,OUT_P*%
X104140000Y-66040000D03*
D12*
X101600000Y-66040000D03*
D11*
X102870000Y-66040000D03*
%TD*%
%TO.P,J6,1*%
%TO.N,OUT_N*%
X102870000Y-76200000D03*
D12*
X101600000Y-76200000D03*
D13*
X104140000Y-76200000D03*
%TD*%
D14*
%TO.N,GND*%
X128270000Y-78740000D03*
X110490000Y-73660000D03*
X113030000Y-73660000D03*
X114935000Y-73787000D03*
X107950000Y-74930000D03*
X105410000Y-78740000D03*
X102870000Y-78740000D03*
X110490000Y-78740000D03*
X113030000Y-78740000D03*
X115570000Y-78740000D03*
X118110000Y-78740000D03*
X120650000Y-78740000D03*
X123190000Y-78740000D03*
X125730000Y-78740000D03*
X116840000Y-76200000D03*
X118110000Y-74930000D03*
X120269000Y-74930000D03*
X120650000Y-69850000D03*
X121920000Y-69850000D03*
X121920000Y-71120000D03*
X120650000Y-71120000D03*
X110490000Y-67818000D03*
X112395000Y-67818000D03*
X114935000Y-67945000D03*
X128270000Y-76200000D03*
X128270000Y-73660000D03*
X128270000Y-71120000D03*
X128270000Y-68580000D03*
X128270000Y-63500000D03*
X125730000Y-63500000D03*
X123190000Y-63500000D03*
X120650000Y-63500000D03*
X118110000Y-63500000D03*
X115570000Y-63500000D03*
X113030000Y-63500000D03*
X110490000Y-63500000D03*
X105410000Y-63500000D03*
X102870000Y-63500000D03*
X116840000Y-66040000D03*
X118110000Y-67310000D03*
X120650000Y-67310000D03*
X119380000Y-64770000D03*
X119380000Y-77470000D03*
X125730000Y-76200000D03*
X125603000Y-74041000D03*
X107950000Y-67691000D03*
%TO.N,SD*%
X122428000Y-73025000D03*
%TD*%
D15*
%TO.N,GND*%
X102870000Y-73660000D02*
X104140000Y-73660000D01*
X102870000Y-78740000D02*
X128270000Y-78740000D01*
X128270000Y-78740000D02*
X128270000Y-68580000D01*
X125730000Y-76200000D02*
X125730000Y-78740000D01*
X120650000Y-74930000D02*
X120650000Y-78740000D01*
X116840000Y-76200000D02*
X118110000Y-74930000D01*
X118110000Y-74930000D02*
X120650000Y-74930000D01*
X119380000Y-77470000D02*
X118110000Y-78740000D01*
X115570000Y-73660000D02*
X110490000Y-73660000D01*
X109220000Y-74930000D02*
X110490000Y-73660000D01*
X107950000Y-74930000D02*
X109220000Y-74930000D01*
X116840000Y-73660000D02*
X118110000Y-74930000D01*
X115570000Y-73660000D02*
X116840000Y-73660000D01*
X121920000Y-71120000D02*
X120650000Y-71120000D01*
X120650000Y-69850000D02*
X121920000Y-69850000D01*
X121920000Y-69850000D02*
X121920000Y-71120000D01*
X120650000Y-69850000D02*
X120650000Y-67310000D01*
X120650000Y-67310000D02*
X118110000Y-67310000D01*
X102870000Y-63500000D02*
X128270000Y-63500000D01*
X116840000Y-66040000D02*
X118110000Y-67310000D01*
X119380000Y-64770000D02*
X118110000Y-63500000D01*
X120650000Y-63500000D02*
X120650000Y-67310000D01*
X125603000Y-76073000D02*
X125730000Y-76200000D01*
X125603000Y-74041000D02*
X125603000Y-76073000D01*
X112268000Y-67691000D02*
X112395000Y-67818000D01*
X107950000Y-67691000D02*
X112268000Y-67691000D01*
X112522000Y-67945000D02*
X112395000Y-67818000D01*
X114935000Y-67945000D02*
X112522000Y-67945000D01*
X112395000Y-67818000D02*
X110490000Y-67818000D01*
X117475000Y-67945000D02*
X118110000Y-67310000D01*
X114935000Y-67945000D02*
X117475000Y-67945000D01*
%TO.N,5V*%
X102870000Y-68580000D02*
X104140000Y-68580000D01*
%TO.N,OUT_P*%
X102870000Y-66040000D02*
X104140000Y-66040000D01*
%TO.N,IN*%
X128270000Y-66040000D02*
X127000000Y-66040000D01*
%TO.N,OUT_N*%
X102870000Y-76200000D02*
X104140000Y-76200000D01*
%TO.N,SD*%
X102870000Y-71120000D02*
X104140000Y-71120000D01*
X122428000Y-73025000D02*
X118745000Y-73025000D01*
X118745000Y-73025000D02*
X116840000Y-71120000D01*
X104140000Y-71120000D02*
X116840000Y-71120000D01*
%TD*%
D16*
%TO.N,GND*%
G36*
X128880001Y-64551928D02*
G01*
X126150000Y-64551928D01*
X126025518Y-64564188D01*
X125905820Y-64600498D01*
X125795506Y-64659463D01*
X125698815Y-64738815D01*
X125619463Y-64835506D01*
X125560498Y-64945820D01*
X125524188Y-65065518D01*
X125511928Y-65190000D01*
X125511928Y-66890000D01*
X125524188Y-67014482D01*
X125560498Y-67134180D01*
X125619463Y-67244494D01*
X125698815Y-67341185D01*
X125795506Y-67420537D01*
X125905820Y-67479502D01*
X126025518Y-67515812D01*
X126150000Y-67528072D01*
X128880000Y-67528072D01*
X128880001Y-80620000D01*
X102260000Y-80620000D01*
X102260000Y-77688072D01*
X104990000Y-77688072D01*
X105114482Y-77675812D01*
X105234180Y-77639502D01*
X105344494Y-77580537D01*
X105441185Y-77501185D01*
X105520537Y-77404494D01*
X105579502Y-77294180D01*
X105615812Y-77174482D01*
X105628072Y-77050000D01*
X105628072Y-75350000D01*
X105615812Y-75225518D01*
X105579502Y-75105820D01*
X105520537Y-74995506D01*
X105441185Y-74898815D01*
X105344494Y-74819463D01*
X105234180Y-74760498D01*
X105114482Y-74724188D01*
X104990000Y-74711928D01*
X101608000Y-74711928D01*
X101483518Y-74724188D01*
X101363820Y-74760498D01*
X101253506Y-74819463D01*
X101213153Y-74852580D01*
X101192510Y-74856686D01*
X100990000Y-74940569D01*
X100990000Y-72379431D01*
X101192510Y-72463314D01*
X101213153Y-72467420D01*
X101253506Y-72500537D01*
X101363820Y-72559502D01*
X101483518Y-72595812D01*
X101608000Y-72608072D01*
X104990000Y-72608072D01*
X105114482Y-72595812D01*
X105234180Y-72559502D01*
X105344494Y-72500537D01*
X105441185Y-72421185D01*
X105520537Y-72324494D01*
X105579502Y-72214180D01*
X105615812Y-72094482D01*
X105628072Y-71970000D01*
X105628072Y-71955000D01*
X116494133Y-71955000D01*
X118125563Y-73586432D01*
X118151709Y-73618291D01*
X118183568Y-73644437D01*
X118183570Y-73644439D01*
X118278854Y-73722636D01*
X118423913Y-73800172D01*
X118581311Y-73847918D01*
X118745000Y-73864040D01*
X118786018Y-73860000D01*
X121657868Y-73860000D01*
X121704480Y-73906612D01*
X121890376Y-74030824D01*
X122096933Y-74116383D01*
X122316212Y-74160000D01*
X122539788Y-74160000D01*
X122759067Y-74116383D01*
X122965624Y-74030824D01*
X123151520Y-73906612D01*
X123309612Y-73748520D01*
X123433824Y-73562624D01*
X123519383Y-73356067D01*
X123563000Y-73136788D01*
X123563000Y-72913212D01*
X123519383Y-72693933D01*
X123433824Y-72487376D01*
X123309612Y-72301480D01*
X123151520Y-72143388D01*
X122965624Y-72019176D01*
X122759067Y-71933617D01*
X122539788Y-71890000D01*
X122316212Y-71890000D01*
X122096933Y-71933617D01*
X121890376Y-72019176D01*
X121704480Y-72143388D01*
X121657868Y-72190000D01*
X119090869Y-72190000D01*
X117459446Y-70558579D01*
X117433291Y-70526709D01*
X117306146Y-70422364D01*
X117161087Y-70344828D01*
X117003689Y-70297082D01*
X116881019Y-70285000D01*
X116881018Y-70285000D01*
X116840000Y-70280960D01*
X116798982Y-70285000D01*
X105628072Y-70285000D01*
X105628072Y-70270000D01*
X105615812Y-70145518D01*
X105579502Y-70025820D01*
X105520537Y-69915506D01*
X105466778Y-69850000D01*
X105520537Y-69784494D01*
X105579502Y-69674180D01*
X105615812Y-69554482D01*
X105628072Y-69430000D01*
X105628072Y-67730000D01*
X105615812Y-67605518D01*
X105579502Y-67485820D01*
X105520537Y-67375506D01*
X105466778Y-67310000D01*
X105520537Y-67244494D01*
X105579502Y-67134180D01*
X105615812Y-67014482D01*
X105628072Y-66890000D01*
X105628072Y-65190000D01*
X105615812Y-65065518D01*
X105579502Y-64945820D01*
X105520537Y-64835506D01*
X105441185Y-64738815D01*
X105344494Y-64659463D01*
X105234180Y-64600498D01*
X105114482Y-64564188D01*
X104990000Y-64551928D01*
X102260000Y-64551928D01*
X102260000Y-61620000D01*
X128880000Y-61620000D01*
X128880001Y-64551928D01*
G37*
X128880001Y-64551928D02*
X126150000Y-64551928D01*
X126025518Y-64564188D01*
X125905820Y-64600498D01*
X125795506Y-64659463D01*
X125698815Y-64738815D01*
X125619463Y-64835506D01*
X125560498Y-64945820D01*
X125524188Y-65065518D01*
X125511928Y-65190000D01*
X125511928Y-66890000D01*
X125524188Y-67014482D01*
X125560498Y-67134180D01*
X125619463Y-67244494D01*
X125698815Y-67341185D01*
X125795506Y-67420537D01*
X125905820Y-67479502D01*
X126025518Y-67515812D01*
X126150000Y-67528072D01*
X128880000Y-67528072D01*
X128880001Y-80620000D01*
X102260000Y-80620000D01*
X102260000Y-77688072D01*
X104990000Y-77688072D01*
X105114482Y-77675812D01*
X105234180Y-77639502D01*
X105344494Y-77580537D01*
X105441185Y-77501185D01*
X105520537Y-77404494D01*
X105579502Y-77294180D01*
X105615812Y-77174482D01*
X105628072Y-77050000D01*
X105628072Y-75350000D01*
X105615812Y-75225518D01*
X105579502Y-75105820D01*
X105520537Y-74995506D01*
X105441185Y-74898815D01*
X105344494Y-74819463D01*
X105234180Y-74760498D01*
X105114482Y-74724188D01*
X104990000Y-74711928D01*
X101608000Y-74711928D01*
X101483518Y-74724188D01*
X101363820Y-74760498D01*
X101253506Y-74819463D01*
X101213153Y-74852580D01*
X101192510Y-74856686D01*
X100990000Y-74940569D01*
X100990000Y-72379431D01*
X101192510Y-72463314D01*
X101213153Y-72467420D01*
X101253506Y-72500537D01*
X101363820Y-72559502D01*
X101483518Y-72595812D01*
X101608000Y-72608072D01*
X104990000Y-72608072D01*
X105114482Y-72595812D01*
X105234180Y-72559502D01*
X105344494Y-72500537D01*
X105441185Y-72421185D01*
X105520537Y-72324494D01*
X105579502Y-72214180D01*
X105615812Y-72094482D01*
X105628072Y-71970000D01*
X105628072Y-71955000D01*
X116494133Y-71955000D01*
X118125563Y-73586432D01*
X118151709Y-73618291D01*
X118183568Y-73644437D01*
X118183570Y-73644439D01*
X118278854Y-73722636D01*
X118423913Y-73800172D01*
X118581311Y-73847918D01*
X118745000Y-73864040D01*
X118786018Y-73860000D01*
X121657868Y-73860000D01*
X121704480Y-73906612D01*
X121890376Y-74030824D01*
X122096933Y-74116383D01*
X122316212Y-74160000D01*
X122539788Y-74160000D01*
X122759067Y-74116383D01*
X122965624Y-74030824D01*
X123151520Y-73906612D01*
X123309612Y-73748520D01*
X123433824Y-73562624D01*
X123519383Y-73356067D01*
X123563000Y-73136788D01*
X123563000Y-72913212D01*
X123519383Y-72693933D01*
X123433824Y-72487376D01*
X123309612Y-72301480D01*
X123151520Y-72143388D01*
X122965624Y-72019176D01*
X122759067Y-71933617D01*
X122539788Y-71890000D01*
X122316212Y-71890000D01*
X122096933Y-71933617D01*
X121890376Y-72019176D01*
X121704480Y-72143388D01*
X121657868Y-72190000D01*
X119090869Y-72190000D01*
X117459446Y-70558579D01*
X117433291Y-70526709D01*
X117306146Y-70422364D01*
X117161087Y-70344828D01*
X117003689Y-70297082D01*
X116881019Y-70285000D01*
X116881018Y-70285000D01*
X116840000Y-70280960D01*
X116798982Y-70285000D01*
X105628072Y-70285000D01*
X105628072Y-70270000D01*
X105615812Y-70145518D01*
X105579502Y-70025820D01*
X105520537Y-69915506D01*
X105466778Y-69850000D01*
X105520537Y-69784494D01*
X105579502Y-69674180D01*
X105615812Y-69554482D01*
X105628072Y-69430000D01*
X105628072Y-67730000D01*
X105615812Y-67605518D01*
X105579502Y-67485820D01*
X105520537Y-67375506D01*
X105466778Y-67310000D01*
X105520537Y-67244494D01*
X105579502Y-67134180D01*
X105615812Y-67014482D01*
X105628072Y-66890000D01*
X105628072Y-65190000D01*
X105615812Y-65065518D01*
X105579502Y-64945820D01*
X105520537Y-64835506D01*
X105441185Y-64738815D01*
X105344494Y-64659463D01*
X105234180Y-64600498D01*
X105114482Y-64564188D01*
X104990000Y-64551928D01*
X102260000Y-64551928D01*
X102260000Y-61620000D01*
X128880000Y-61620000D01*
X128880001Y-64551928D01*
%TD*%
M02*
