G04 #@! TF.GenerationSoftware,KiCad,Pcbnew,(6.0.8)*
G04 #@! TF.CreationDate,2023-05-19T15:03:30+02:00*
G04 #@! TF.ProjectId,10_Audio_Facile,31305f41-7564-4696-9f5f-466163696c65,rev?*
G04 #@! TF.SameCoordinates,Original*
G04 #@! TF.FileFunction,Legend,Top*
G04 #@! TF.FilePolarity,Positive*
%FSLAX46Y46*%
G04 Gerber Fmt 4.6, Leading zero omitted, Abs format (unit mm)*
G04 Created by KiCad (PCBNEW (6.0.8)) date 2023-05-19 15:03:30*
%MOMM*%
%LPD*%
G01*
G04 APERTURE LIST*
G04 Aperture macros list*
%AMRoundRect*
0 Rectangle with rounded corners*
0 $1 Rounding radius*
0 $2 $3 $4 $5 $6 $7 $8 $9 X,Y pos of 4 corners*
0 Add a 4 corners polygon primitive as box body*
4,1,4,$2,$3,$4,$5,$6,$7,$8,$9,$2,$3,0*
0 Add four circle primitives for the rounded corners*
1,1,$1+$1,$2,$3*
1,1,$1+$1,$4,$5*
1,1,$1+$1,$6,$7*
1,1,$1+$1,$8,$9*
0 Add four rect primitives between the rounded corners*
20,1,$1+$1,$2,$3,$4,$5,0*
20,1,$1+$1,$4,$5,$6,$7,0*
20,1,$1+$1,$6,$7,$8,$9,0*
20,1,$1+$1,$8,$9,$2,$3,0*%
%AMFreePoly0*
4,1,39,2.202791,0.899922,2.297540,0.894625,2.305656,0.893499,2.484833,0.853448,2.495057,0.849967,2.661454,0.772375,2.670692,0.766781,2.816546,0.655267,2.824367,0.647819,2.942872,0.507587,2.948911,0.498633,3.034539,0.336225,3.038515,0.326184,3.087271,0.149177,3.088997,0.138516,3.098606,-0.044831,3.098004,-0.055614,3.068017,-0.236748,3.065112,-0.247150,2.996929,-0.417619,
2.991859,-0.427155,2.888662,-0.579006,2.881662,-0.587231,2.748263,-0.713379,2.739661,-0.719908,2.582286,-0.814469,2.572482,-0.818999,2.398473,-0.877559,2.387925,-0.879879,2.205400,-0.899708,2.200000,-0.900000,-0.850000,-0.900000,-0.885355,-0.885355,-0.900000,-0.850000,-0.900000,0.850000,-0.885355,0.885355,-0.850000,0.900000,2.200000,0.900000,2.202791,0.899922,2.202791,0.899922,
$1*%
G04 Aperture macros list end*
%ADD10C,0.150000*%
%ADD11C,0.120000*%
%ADD12RoundRect,0.268750X0.218750X0.256250X-0.218750X0.256250X-0.218750X-0.256250X0.218750X-0.256250X0*%
%ADD13RoundRect,0.275000X0.225000X0.250000X-0.225000X0.250000X-0.225000X-0.250000X0.225000X-0.250000X0*%
%ADD14RoundRect,0.275000X-0.225000X-0.250000X0.225000X-0.250000X0.225000X0.250000X-0.225000X0.250000X0*%
%ADD15RoundRect,0.275000X0.250000X-0.225000X0.250000X0.225000X-0.250000X0.225000X-0.250000X-0.225000X0*%
%ADD16RoundRect,0.300000X1.100000X-0.325000X1.100000X0.325000X-1.100000X0.325000X-1.100000X-0.325000X0*%
%ADD17FreePoly0,180.000000*%
%ADD18C,1.624000*%
%ADD19RoundRect,0.200000X0.675000X0.150000X-0.675000X0.150000X-0.675000X-0.150000X0.675000X-0.150000X0*%
G04 APERTURE END LIST*
D10*
X105918095Y-73795000D02*
X105822857Y-73747380D01*
X105680000Y-73747380D01*
X105537142Y-73795000D01*
X105441904Y-73890238D01*
X105394285Y-73985476D01*
X105346666Y-74175952D01*
X105346666Y-74318809D01*
X105394285Y-74509285D01*
X105441904Y-74604523D01*
X105537142Y-74699761D01*
X105680000Y-74747380D01*
X105775238Y-74747380D01*
X105918095Y-74699761D01*
X105965714Y-74652142D01*
X105965714Y-74318809D01*
X105775238Y-74318809D01*
X106394285Y-74747380D02*
X106394285Y-73747380D01*
X106965714Y-74747380D01*
X106965714Y-73747380D01*
X107441904Y-74747380D02*
X107441904Y-73747380D01*
X107680000Y-73747380D01*
X107822857Y-73795000D01*
X107918095Y-73890238D01*
X107965714Y-73985476D01*
X108013333Y-74175952D01*
X108013333Y-74318809D01*
X107965714Y-74509285D01*
X107918095Y-74604523D01*
X107822857Y-74699761D01*
X107680000Y-74747380D01*
X107441904Y-74747380D01*
X105981523Y-67778380D02*
X105505333Y-67778380D01*
X105457714Y-68254571D01*
X105505333Y-68206952D01*
X105600571Y-68159333D01*
X105838666Y-68159333D01*
X105933904Y-68206952D01*
X105981523Y-68254571D01*
X106029142Y-68349809D01*
X106029142Y-68587904D01*
X105981523Y-68683142D01*
X105933904Y-68730761D01*
X105838666Y-68778380D01*
X105600571Y-68778380D01*
X105505333Y-68730761D01*
X105457714Y-68683142D01*
X106314857Y-67778380D02*
X106648190Y-68778380D01*
X106981523Y-67778380D01*
X106283190Y-63952380D02*
X106283190Y-62952380D01*
X106759380Y-63952380D02*
X106759380Y-62952380D01*
X107330809Y-63952380D01*
X107330809Y-62952380D01*
X106323047Y-65492380D02*
X106513523Y-65492380D01*
X106608761Y-65540000D01*
X106704000Y-65635238D01*
X106751619Y-65825714D01*
X106751619Y-66159047D01*
X106704000Y-66349523D01*
X106608761Y-66444761D01*
X106513523Y-66492380D01*
X106323047Y-66492380D01*
X106227809Y-66444761D01*
X106132571Y-66349523D01*
X106084952Y-66159047D01*
X106084952Y-65825714D01*
X106132571Y-65635238D01*
X106227809Y-65540000D01*
X106323047Y-65492380D01*
X107180190Y-65492380D02*
X107180190Y-66301904D01*
X107227809Y-66397142D01*
X107275428Y-66444761D01*
X107370666Y-66492380D01*
X107561142Y-66492380D01*
X107656380Y-66444761D01*
X107704000Y-66397142D01*
X107751619Y-66301904D01*
X107751619Y-65492380D01*
X108084952Y-65492380D02*
X108656380Y-65492380D01*
X108370666Y-66492380D02*
X108370666Y-65492380D01*
X108751619Y-66587619D02*
X109513523Y-66587619D01*
X109751619Y-66492380D02*
X109751619Y-65492380D01*
X110132571Y-65492380D01*
X110227809Y-65540000D01*
X110275428Y-65587619D01*
X110323047Y-65682857D01*
X110323047Y-65825714D01*
X110275428Y-65920952D01*
X110227809Y-65968571D01*
X110132571Y-66016190D01*
X109751619Y-66016190D01*
X105791238Y-76414380D02*
X105981714Y-76414380D01*
X106076952Y-76462000D01*
X106172190Y-76557238D01*
X106219809Y-76747714D01*
X106219809Y-77081047D01*
X106172190Y-77271523D01*
X106076952Y-77366761D01*
X105981714Y-77414380D01*
X105791238Y-77414380D01*
X105696000Y-77366761D01*
X105600761Y-77271523D01*
X105553142Y-77081047D01*
X105553142Y-76747714D01*
X105600761Y-76557238D01*
X105696000Y-76462000D01*
X105791238Y-76414380D01*
X106648380Y-76414380D02*
X106648380Y-77223904D01*
X106696000Y-77319142D01*
X106743619Y-77366761D01*
X106838857Y-77414380D01*
X107029333Y-77414380D01*
X107124571Y-77366761D01*
X107172190Y-77319142D01*
X107219809Y-77223904D01*
X107219809Y-76414380D01*
X107553142Y-76414380D02*
X108124571Y-76414380D01*
X107838857Y-77414380D02*
X107838857Y-76414380D01*
X108219809Y-77509619D02*
X108981714Y-77509619D01*
X109219809Y-77414380D02*
X109219809Y-76414380D01*
X109791238Y-77414380D01*
X109791238Y-76414380D01*
X112831666Y-68795571D02*
X112498333Y-68795571D01*
X112498333Y-69319380D02*
X112498333Y-68319380D01*
X112974523Y-68319380D01*
X113688809Y-68795571D02*
X113831666Y-68843190D01*
X113879285Y-68890809D01*
X113926904Y-68986047D01*
X113926904Y-69128904D01*
X113879285Y-69224142D01*
X113831666Y-69271761D01*
X113736428Y-69319380D01*
X113355476Y-69319380D01*
X113355476Y-68319380D01*
X113688809Y-68319380D01*
X113784047Y-68367000D01*
X113831666Y-68414619D01*
X113879285Y-68509857D01*
X113879285Y-68605095D01*
X113831666Y-68700333D01*
X113784047Y-68747952D01*
X113688809Y-68795571D01*
X113355476Y-68795571D01*
X114879285Y-69319380D02*
X114307857Y-69319380D01*
X114593571Y-69319380D02*
X114593571Y-68319380D01*
X114498333Y-68462238D01*
X114403095Y-68557476D01*
X114307857Y-68605095D01*
X120102333Y-66684142D02*
X120054714Y-66731761D01*
X119911857Y-66779380D01*
X119816619Y-66779380D01*
X119673761Y-66731761D01*
X119578523Y-66636523D01*
X119530904Y-66541285D01*
X119483285Y-66350809D01*
X119483285Y-66207952D01*
X119530904Y-66017476D01*
X119578523Y-65922238D01*
X119673761Y-65827000D01*
X119816619Y-65779380D01*
X119911857Y-65779380D01*
X120054714Y-65827000D01*
X120102333Y-65874619D01*
X120673761Y-66207952D02*
X120578523Y-66160333D01*
X120530904Y-66112714D01*
X120483285Y-66017476D01*
X120483285Y-65969857D01*
X120530904Y-65874619D01*
X120578523Y-65827000D01*
X120673761Y-65779380D01*
X120864238Y-65779380D01*
X120959476Y-65827000D01*
X121007095Y-65874619D01*
X121054714Y-65969857D01*
X121054714Y-66017476D01*
X121007095Y-66112714D01*
X120959476Y-66160333D01*
X120864238Y-66207952D01*
X120673761Y-66207952D01*
X120578523Y-66255571D01*
X120530904Y-66303190D01*
X120483285Y-66398428D01*
X120483285Y-66588904D01*
X120530904Y-66684142D01*
X120578523Y-66731761D01*
X120673761Y-66779380D01*
X120864238Y-66779380D01*
X120959476Y-66731761D01*
X121007095Y-66684142D01*
X121054714Y-66588904D01*
X121054714Y-66398428D01*
X121007095Y-66303190D01*
X120959476Y-66255571D01*
X120864238Y-66207952D01*
X120991333Y-76564742D02*
X120943714Y-76612361D01*
X120800857Y-76659980D01*
X120705619Y-76659980D01*
X120562761Y-76612361D01*
X120467523Y-76517123D01*
X120419904Y-76421885D01*
X120372285Y-76231409D01*
X120372285Y-76088552D01*
X120419904Y-75898076D01*
X120467523Y-75802838D01*
X120562761Y-75707600D01*
X120705619Y-75659980D01*
X120800857Y-75659980D01*
X120943714Y-75707600D01*
X120991333Y-75755219D01*
X121324666Y-75659980D02*
X121991333Y-75659980D01*
X121562761Y-76659980D01*
X113498333Y-64713142D02*
X113450714Y-64760761D01*
X113307857Y-64808380D01*
X113212619Y-64808380D01*
X113069761Y-64760761D01*
X112974523Y-64665523D01*
X112926904Y-64570285D01*
X112879285Y-64379809D01*
X112879285Y-64236952D01*
X112926904Y-64046476D01*
X112974523Y-63951238D01*
X113069761Y-63856000D01*
X113212619Y-63808380D01*
X113307857Y-63808380D01*
X113450714Y-63856000D01*
X113498333Y-63903619D01*
X114355476Y-63808380D02*
X114165000Y-63808380D01*
X114069761Y-63856000D01*
X114022142Y-63903619D01*
X113926904Y-64046476D01*
X113879285Y-64236952D01*
X113879285Y-64617904D01*
X113926904Y-64713142D01*
X113974523Y-64760761D01*
X114069761Y-64808380D01*
X114260238Y-64808380D01*
X114355476Y-64760761D01*
X114403095Y-64713142D01*
X114450714Y-64617904D01*
X114450714Y-64379809D01*
X114403095Y-64284571D01*
X114355476Y-64236952D01*
X114260238Y-64189333D01*
X114069761Y-64189333D01*
X113974523Y-64236952D01*
X113926904Y-64284571D01*
X113879285Y-64379809D01*
D11*
X111922779Y-74420000D02*
X111597221Y-74420000D01*
X111922779Y-75440000D02*
X111597221Y-75440000D01*
X113827779Y-66927000D02*
X113502221Y-66927000D01*
X113827779Y-67947000D02*
X113502221Y-67947000D01*
X111900580Y-76325000D02*
X111619420Y-76325000D01*
X111900580Y-77345000D02*
X111619420Y-77345000D01*
X120409580Y-64387000D02*
X120128420Y-64387000D01*
X120409580Y-65407000D02*
X120128420Y-65407000D01*
X121298580Y-74267600D02*
X121017420Y-74267600D01*
X121298580Y-75287600D02*
X121017420Y-75287600D01*
X113524420Y-66296000D02*
X113805580Y-66296000D01*
X113524420Y-65276000D02*
X113805580Y-65276000D01*
X115775200Y-71260580D02*
X115775200Y-70979420D01*
X114755200Y-71260580D02*
X114755200Y-70979420D01*
X114098800Y-71260580D02*
X114098800Y-70979420D01*
X113078800Y-71260580D02*
X113078800Y-70979420D01*
X112422400Y-71260580D02*
X112422400Y-70979420D01*
X111402400Y-71260580D02*
X111402400Y-70979420D01*
X110746000Y-71260580D02*
X110746000Y-70979420D01*
X109726000Y-71260580D02*
X109726000Y-70979420D01*
X106336000Y-71831252D02*
X106336000Y-70408748D01*
X109056000Y-71831252D02*
X109056000Y-70408748D01*
X119938800Y-68560000D02*
X121888800Y-68560000D01*
X119938800Y-73680000D02*
X117988800Y-73680000D01*
X119938800Y-68560000D02*
X117988800Y-68560000D01*
X119938800Y-73680000D02*
X123388800Y-73680000D01*
%LPC*%
D12*
X112547500Y-74930000D03*
X110972500Y-74930000D03*
X114452500Y-67437000D03*
X112877500Y-67437000D03*
D13*
X112535000Y-76835000D03*
X110985000Y-76835000D03*
X121044000Y-64897000D03*
X119494000Y-64897000D03*
X121933000Y-74777600D03*
X120383000Y-74777600D03*
D14*
X112890000Y-65786000D03*
X114440000Y-65786000D03*
D15*
X115265200Y-71895000D03*
X115265200Y-70345000D03*
X113588800Y-71895000D03*
X113588800Y-70345000D03*
X111912400Y-71895000D03*
X111912400Y-70345000D03*
X110236000Y-71895000D03*
X110236000Y-70345000D03*
D16*
X107696000Y-72595000D03*
X107696000Y-69645000D03*
D17*
X104140000Y-63500000D03*
D18*
X101600000Y-63500000D03*
D19*
X122563800Y-73025000D03*
X122563800Y-71755000D03*
X122563800Y-70485000D03*
X122563800Y-69215000D03*
X117313800Y-69215000D03*
X117313800Y-70485000D03*
X117313800Y-71755000D03*
X117313800Y-73025000D03*
D17*
X104140000Y-68580000D03*
D18*
X101600000Y-68580000D03*
D17*
X104140000Y-71120000D03*
D18*
X101600000Y-71120000D03*
D17*
X104140000Y-73660000D03*
D18*
X101600000Y-73660000D03*
D17*
X104140000Y-66040000D03*
D18*
X101600000Y-66040000D03*
D17*
X104140000Y-76200000D03*
D18*
X101600000Y-76200000D03*
M02*
