G04 #@! TF.GenerationSoftware,KiCad,Pcbnew,(6.0.8)*
G04 #@! TF.CreationDate,2023-05-27T16:58:20+02:00*
G04 #@! TF.ProjectId,10_Audio_Facile,31305f41-7564-4696-9f5f-466163696c65,rev?*
G04 #@! TF.SameCoordinates,Original*
G04 #@! TF.FileFunction,Copper,L2,Bot*
G04 #@! TF.FilePolarity,Positive*
%FSLAX46Y46*%
G04 Gerber Fmt 4.6, Leading zero omitted, Abs format (unit mm)*
G04 Created by KiCad (PCBNEW (6.0.8)) date 2023-05-27 16:58:20*
%MOMM*%
%LPD*%
G01*
G04 APERTURE LIST*
G04 Aperture macros list*
%AMFreePoly0*
4,1,19,2.294749,0.844703,2.473926,0.804652,2.640323,0.727060,2.786177,0.615546,2.904682,0.475314,2.990310,0.312906,3.039066,0.135899,3.048675,-0.047448,3.018688,-0.228582,2.950505,-0.399051,2.847308,-0.550902,2.713909,-0.677050,2.556534,-0.771611,2.382525,-0.830171,2.200000,-0.850000,-0.850000,-0.850000,-0.850000,0.850000,2.200000,0.850000,2.294749,0.844703,2.294749,0.844703,
$1*%
G04 Aperture macros list end*
G04 #@! TA.AperFunction,ComponentPad*
%ADD10FreePoly0,180.000000*%
G04 #@! TD*
G04 #@! TA.AperFunction,ComponentPad*
%ADD11C,1.524000*%
G04 #@! TD*
G04 #@! TA.AperFunction,ViaPad*
%ADD12C,1.000000*%
G04 #@! TD*
G04 #@! TA.AperFunction,Conductor*
%ADD13C,0.400000*%
G04 #@! TD*
G04 APERTURE END LIST*
D10*
X104140000Y-68580000D03*
D11*
X101600000Y-68580000D03*
X101600000Y-73660000D03*
D10*
X104140000Y-73660000D03*
X104140000Y-71120000D03*
D11*
X101600000Y-71120000D03*
X101600000Y-63500000D03*
D10*
X104140000Y-63500000D03*
D11*
X101600000Y-60960000D03*
D10*
X104140000Y-60960000D03*
D11*
X101600000Y-76200000D03*
D10*
X104140000Y-76200000D03*
X104140000Y-66040000D03*
D11*
X101600000Y-66040000D03*
D12*
X108331000Y-74168000D03*
X110236000Y-73152000D03*
X106680000Y-74168000D03*
X117983000Y-68326000D03*
X117475000Y-70485000D03*
X121920000Y-66040000D03*
X116840000Y-62865000D03*
X111252000Y-64770000D03*
X106934000Y-67437000D03*
X113030000Y-73152000D03*
X121920000Y-63500000D03*
X114300000Y-76200000D03*
X111379000Y-60960000D03*
X117475000Y-73025000D03*
X121031000Y-67818000D03*
X106172000Y-62230000D03*
X114046000Y-66294000D03*
X118745000Y-76327000D03*
X113665000Y-60960000D03*
X106934000Y-64770000D03*
X108585000Y-67437000D03*
X119380000Y-62865000D03*
X109093000Y-60960000D03*
X115951000Y-60960000D03*
X109093000Y-64770000D03*
X115570000Y-67818000D03*
X120650000Y-60960000D03*
X120650000Y-74930000D03*
X116840000Y-74930000D03*
X118237000Y-60960000D03*
X119380000Y-70485000D03*
X120015000Y-64770000D03*
X119380000Y-73025000D03*
D13*
X109093000Y-64770000D02*
X109093000Y-60960000D01*
X106934000Y-67437000D02*
X106934000Y-64770000D01*
X119380000Y-70485000D02*
X119380000Y-65405000D01*
X119380000Y-65405000D02*
X120015000Y-64770000D01*
X116205000Y-71755000D02*
X115570000Y-71120000D01*
X119380000Y-73025000D02*
X118110000Y-71755000D01*
X118110000Y-71755000D02*
X116205000Y-71755000D01*
X115570000Y-71120000D02*
X104140000Y-71120000D01*
G04 #@! TA.AperFunction,Conductor*
G36*
X122623621Y-60218502D02*
G01*
X122670114Y-60272158D01*
X122681500Y-60324500D01*
X122681500Y-76835500D01*
X122661498Y-76903621D01*
X122607842Y-76950114D01*
X122555500Y-76961500D01*
X105629729Y-76961500D01*
X105561608Y-76941498D01*
X105515115Y-76887842D01*
X105503729Y-76835500D01*
X105503729Y-76277581D01*
X105503925Y-76270548D01*
X105506514Y-76224243D01*
X105506514Y-76224238D01*
X105506704Y-76220840D01*
X105503902Y-76167377D01*
X105503729Y-76160782D01*
X105503729Y-75350000D01*
X105498500Y-75276889D01*
X105457304Y-75136589D01*
X105430905Y-75095512D01*
X105383122Y-75021159D01*
X105383120Y-75021156D01*
X105378250Y-75013579D01*
X105367060Y-75003883D01*
X105274555Y-74923726D01*
X105274552Y-74923724D01*
X105267743Y-74917824D01*
X105134734Y-74857081D01*
X104990000Y-74836271D01*
X101893863Y-74836271D01*
X101892190Y-74836362D01*
X101892176Y-74836362D01*
X101868751Y-74837631D01*
X101838382Y-74839276D01*
X101748069Y-74849087D01*
X101704304Y-74853841D01*
X101704301Y-74853842D01*
X101700918Y-74854209D01*
X101697594Y-74854940D01*
X101697593Y-74854940D01*
X101595873Y-74877304D01*
X101595866Y-74877306D01*
X101592541Y-74878037D01*
X101417505Y-74936943D01*
X101417266Y-74936233D01*
X101387899Y-74943203D01*
X101378537Y-74944022D01*
X101234949Y-74982497D01*
X101169114Y-75000137D01*
X101169112Y-75000138D01*
X101163804Y-75001560D01*
X101158823Y-75003882D01*
X101158822Y-75003883D01*
X101017750Y-75069666D01*
X100947558Y-75080327D01*
X100882746Y-75051347D01*
X100843889Y-74991927D01*
X100838500Y-74955471D01*
X100838500Y-72364529D01*
X100858502Y-72296408D01*
X100912158Y-72249915D01*
X100982432Y-72239811D01*
X101017750Y-72250334D01*
X101163804Y-72318440D01*
X101169112Y-72319862D01*
X101169114Y-72319863D01*
X101234949Y-72337503D01*
X101378537Y-72375978D01*
X101384019Y-72376458D01*
X101384027Y-72376459D01*
X101390916Y-72377062D01*
X101433182Y-72388387D01*
X101447349Y-72394993D01*
X101552393Y-72430753D01*
X101555712Y-72431495D01*
X101555716Y-72431496D01*
X101593059Y-72439843D01*
X101732627Y-72471040D01*
X101816011Y-72482611D01*
X101821680Y-72482928D01*
X101850362Y-72483729D01*
X104990000Y-72483729D01*
X105021986Y-72481441D01*
X105056373Y-72478982D01*
X105056374Y-72478982D01*
X105063111Y-72478500D01*
X105172835Y-72446282D01*
X105194765Y-72439843D01*
X105194767Y-72439842D01*
X105203411Y-72437304D01*
X105248388Y-72408399D01*
X105318841Y-72363122D01*
X105318844Y-72363120D01*
X105326421Y-72358250D01*
X105370822Y-72307009D01*
X105416274Y-72254555D01*
X105416276Y-72254552D01*
X105422176Y-72247743D01*
X105426368Y-72238565D01*
X105452548Y-72181238D01*
X105482919Y-72114734D01*
X105503729Y-71970000D01*
X105503729Y-71954500D01*
X105523731Y-71886379D01*
X105577387Y-71839886D01*
X105629729Y-71828500D01*
X115224340Y-71828500D01*
X115292461Y-71848502D01*
X115313435Y-71865405D01*
X115683550Y-72235520D01*
X115689404Y-72241785D01*
X115727439Y-72285385D01*
X115733657Y-72289755D01*
X115779697Y-72322112D01*
X115784993Y-72326045D01*
X115835282Y-72365477D01*
X115842204Y-72368602D01*
X115844452Y-72369964D01*
X115859185Y-72378368D01*
X115861524Y-72379622D01*
X115867739Y-72383990D01*
X115874815Y-72386749D01*
X115874819Y-72386751D01*
X115927274Y-72407202D01*
X115933352Y-72409757D01*
X115991574Y-72436045D01*
X115999045Y-72437429D01*
X116001599Y-72438230D01*
X116017878Y-72442867D01*
X116020433Y-72443523D01*
X116027509Y-72446282D01*
X116055962Y-72450028D01*
X116090851Y-72454621D01*
X116097367Y-72455653D01*
X116150865Y-72465568D01*
X116160187Y-72467296D01*
X116167767Y-72466859D01*
X116167768Y-72466859D01*
X116222398Y-72463709D01*
X116229651Y-72463500D01*
X117764339Y-72463500D01*
X117832460Y-72483502D01*
X117853435Y-72500405D01*
X118334375Y-72981346D01*
X118368400Y-73043658D01*
X118370837Y-73059898D01*
X118383268Y-73207934D01*
X118437783Y-73398050D01*
X118528187Y-73573956D01*
X118651035Y-73728953D01*
X118801650Y-73857136D01*
X118974294Y-73953624D01*
X119162392Y-74014740D01*
X119358777Y-74038158D01*
X119364912Y-74037686D01*
X119364914Y-74037686D01*
X119549830Y-74023457D01*
X119549834Y-74023456D01*
X119555972Y-74022984D01*
X119746463Y-73969798D01*
X119751967Y-73967018D01*
X119751969Y-73967017D01*
X119917495Y-73883404D01*
X119917497Y-73883403D01*
X119922996Y-73880625D01*
X120078847Y-73758861D01*
X120208078Y-73609145D01*
X120305769Y-73437179D01*
X120368197Y-73249513D01*
X120392985Y-73053295D01*
X120393380Y-73025000D01*
X120374080Y-72828167D01*
X120316916Y-72638831D01*
X120224066Y-72464204D01*
X120111387Y-72326046D01*
X120102960Y-72315713D01*
X120102957Y-72315710D01*
X120099065Y-72310938D01*
X120094316Y-72307009D01*
X119951425Y-72188799D01*
X119951421Y-72188797D01*
X119946675Y-72184870D01*
X119772701Y-72090802D01*
X119583768Y-72032318D01*
X119577643Y-72031674D01*
X119577642Y-72031674D01*
X119514084Y-72024994D01*
X119410820Y-72014141D01*
X119345164Y-71987128D01*
X119334896Y-71977926D01*
X119042407Y-71685437D01*
X119008381Y-71623125D01*
X119013446Y-71552310D01*
X119055993Y-71495474D01*
X119122513Y-71470663D01*
X119157715Y-71473220D01*
X119162392Y-71474740D01*
X119168510Y-71475470D01*
X119168512Y-71475470D01*
X119235493Y-71483457D01*
X119358777Y-71498158D01*
X119364912Y-71497686D01*
X119364914Y-71497686D01*
X119549830Y-71483457D01*
X119549834Y-71483456D01*
X119555972Y-71482984D01*
X119746463Y-71429798D01*
X119751967Y-71427018D01*
X119751969Y-71427017D01*
X119917495Y-71343404D01*
X119917497Y-71343403D01*
X119922996Y-71340625D01*
X120078847Y-71218861D01*
X120208078Y-71069145D01*
X120305769Y-70897179D01*
X120368197Y-70709513D01*
X120392985Y-70513295D01*
X120393188Y-70498753D01*
X120393331Y-70488523D01*
X120393331Y-70488520D01*
X120393380Y-70485000D01*
X120374080Y-70288167D01*
X120369277Y-70272257D01*
X120348556Y-70203627D01*
X120316916Y-70098831D01*
X120224066Y-69924204D01*
X120116857Y-69792753D01*
X120089303Y-69727321D01*
X120088500Y-69713117D01*
X120088500Y-65891168D01*
X120108502Y-65823047D01*
X120162158Y-65776554D01*
X120189308Y-65768112D01*
X120190972Y-65767984D01*
X120381463Y-65714798D01*
X120386967Y-65712018D01*
X120386969Y-65712017D01*
X120552495Y-65628404D01*
X120552497Y-65628403D01*
X120557996Y-65625625D01*
X120713847Y-65503861D01*
X120843078Y-65354145D01*
X120940769Y-65182179D01*
X121003197Y-64994513D01*
X121027985Y-64798295D01*
X121028380Y-64770000D01*
X121009080Y-64573167D01*
X120992360Y-64517786D01*
X120953697Y-64389731D01*
X120951916Y-64383831D01*
X120859066Y-64209204D01*
X120788709Y-64122938D01*
X120737960Y-64060713D01*
X120737957Y-64060710D01*
X120734065Y-64055938D01*
X120727724Y-64050692D01*
X120586425Y-63933799D01*
X120586421Y-63933797D01*
X120581675Y-63929870D01*
X120407701Y-63835802D01*
X120218768Y-63777318D01*
X120212643Y-63776674D01*
X120212642Y-63776674D01*
X120028204Y-63757289D01*
X120028202Y-63757289D01*
X120022075Y-63756645D01*
X119939576Y-63764153D01*
X119831251Y-63774011D01*
X119831248Y-63774012D01*
X119825112Y-63774570D01*
X119819206Y-63776308D01*
X119819202Y-63776309D01*
X119714076Y-63807249D01*
X119635381Y-63830410D01*
X119629923Y-63833263D01*
X119629919Y-63833265D01*
X119539147Y-63880720D01*
X119460110Y-63922040D01*
X119305975Y-64045968D01*
X119178846Y-64197474D01*
X119175879Y-64202872D01*
X119175875Y-64202877D01*
X119172397Y-64209204D01*
X119083567Y-64370787D01*
X119081706Y-64376654D01*
X119081705Y-64376656D01*
X119041648Y-64502932D01*
X119023765Y-64559306D01*
X119009725Y-64684474D01*
X119003421Y-64740679D01*
X118975950Y-64806146D01*
X118967301Y-64815729D01*
X118899472Y-64883558D01*
X118893206Y-64889412D01*
X118855340Y-64922444D01*
X118855337Y-64922447D01*
X118849615Y-64927439D01*
X118845248Y-64933653D01*
X118812872Y-64979719D01*
X118808939Y-64985014D01*
X118769524Y-65035282D01*
X118766401Y-65042198D01*
X118765017Y-65044484D01*
X118756643Y-65059165D01*
X118755378Y-65061525D01*
X118751010Y-65067739D01*
X118748250Y-65074818D01*
X118748249Y-65074820D01*
X118727798Y-65127275D01*
X118725247Y-65133344D01*
X118698955Y-65191573D01*
X118697571Y-65199040D01*
X118696770Y-65201595D01*
X118692141Y-65217848D01*
X118691478Y-65220428D01*
X118688718Y-65227509D01*
X118687727Y-65235040D01*
X118687726Y-65235042D01*
X118680379Y-65290852D01*
X118679348Y-65297359D01*
X118667704Y-65360186D01*
X118668141Y-65367766D01*
X118668141Y-65367767D01*
X118671291Y-65422392D01*
X118671500Y-65429646D01*
X118671500Y-69714483D01*
X118651498Y-69782604D01*
X118642021Y-69795473D01*
X118543846Y-69912474D01*
X118540879Y-69917872D01*
X118540875Y-69917877D01*
X118528076Y-69941159D01*
X118448567Y-70085787D01*
X118446706Y-70091654D01*
X118446705Y-70091656D01*
X118415380Y-70190406D01*
X118388765Y-70274306D01*
X118366719Y-70470851D01*
X118367235Y-70476995D01*
X118376692Y-70589615D01*
X118383268Y-70667934D01*
X118437783Y-70858050D01*
X118440604Y-70863539D01*
X118455158Y-70891859D01*
X118468506Y-70961589D01*
X118442036Y-71027467D01*
X118384152Y-71068575D01*
X118320147Y-71073346D01*
X118316702Y-71072708D01*
X118297158Y-71067142D01*
X118294568Y-71066477D01*
X118287491Y-71063718D01*
X118279960Y-71062727D01*
X118279958Y-71062726D01*
X118250339Y-71058827D01*
X118224139Y-71055378D01*
X118217641Y-71054348D01*
X118154814Y-71042704D01*
X118147234Y-71043141D01*
X118147233Y-71043141D01*
X118092608Y-71046291D01*
X118085354Y-71046500D01*
X116550662Y-71046500D01*
X116482541Y-71026498D01*
X116461567Y-71009596D01*
X116091435Y-70639465D01*
X116085581Y-70633198D01*
X116052556Y-70595340D01*
X116052553Y-70595337D01*
X116047561Y-70589615D01*
X115995280Y-70552871D01*
X115989986Y-70548939D01*
X115945693Y-70514209D01*
X115939718Y-70509524D01*
X115932802Y-70506401D01*
X115930516Y-70505017D01*
X115915835Y-70496643D01*
X115913475Y-70495378D01*
X115907261Y-70491010D01*
X115900182Y-70488250D01*
X115900180Y-70488249D01*
X115847725Y-70467798D01*
X115841656Y-70465247D01*
X115783427Y-70438955D01*
X115775960Y-70437571D01*
X115773405Y-70436770D01*
X115757152Y-70432141D01*
X115754572Y-70431478D01*
X115747491Y-70428718D01*
X115739960Y-70427727D01*
X115739958Y-70427726D01*
X115710339Y-70423827D01*
X115684139Y-70420378D01*
X115677641Y-70419348D01*
X115614814Y-70407704D01*
X115607234Y-70408141D01*
X115607233Y-70408141D01*
X115552608Y-70411291D01*
X115545354Y-70411500D01*
X105629729Y-70411500D01*
X105561608Y-70391498D01*
X105515115Y-70337842D01*
X105503729Y-70285500D01*
X105503729Y-70270000D01*
X105498500Y-70196889D01*
X105470701Y-70102214D01*
X105459843Y-70065235D01*
X105459842Y-70065233D01*
X105457304Y-70056589D01*
X105430905Y-70015512D01*
X105383122Y-69941159D01*
X105383120Y-69941156D01*
X105378250Y-69933579D01*
X105372676Y-69928749D01*
X105343525Y-69864922D01*
X105353627Y-69794647D01*
X105373018Y-69764474D01*
X105416274Y-69714555D01*
X105416276Y-69714552D01*
X105422176Y-69707743D01*
X105482919Y-69574734D01*
X105503729Y-69430000D01*
X105503729Y-68657581D01*
X105503925Y-68650548D01*
X105506514Y-68604243D01*
X105506514Y-68604238D01*
X105506704Y-68600840D01*
X105503902Y-68547377D01*
X105503729Y-68540782D01*
X105503729Y-67730000D01*
X105498500Y-67656889D01*
X105457304Y-67516589D01*
X105430905Y-67475512D01*
X105383122Y-67401159D01*
X105383120Y-67401156D01*
X105378250Y-67393579D01*
X105372676Y-67388749D01*
X105343525Y-67324922D01*
X105353627Y-67254647D01*
X105373018Y-67224474D01*
X105416274Y-67174555D01*
X105416276Y-67174552D01*
X105422176Y-67167743D01*
X105482919Y-67034734D01*
X105503729Y-66890000D01*
X105503729Y-66117581D01*
X105503925Y-66110548D01*
X105506514Y-66064243D01*
X105506514Y-66064238D01*
X105506704Y-66060840D01*
X105503902Y-66007377D01*
X105503729Y-66000782D01*
X105503729Y-65190000D01*
X105498500Y-65116889D01*
X105474538Y-65035282D01*
X105459843Y-64985235D01*
X105459842Y-64985233D01*
X105457304Y-64976589D01*
X105399469Y-64886596D01*
X105383122Y-64861159D01*
X105383120Y-64861156D01*
X105378250Y-64853579D01*
X105372676Y-64848749D01*
X105343525Y-64784922D01*
X105353627Y-64714647D01*
X105373018Y-64684474D01*
X105416274Y-64634555D01*
X105416276Y-64634552D01*
X105422176Y-64627743D01*
X105482919Y-64494734D01*
X105503729Y-64350000D01*
X105503729Y-63577581D01*
X105503925Y-63570548D01*
X105506514Y-63524243D01*
X105506514Y-63524238D01*
X105506704Y-63520840D01*
X105503902Y-63467377D01*
X105503729Y-63460782D01*
X105503729Y-62650000D01*
X105498500Y-62576889D01*
X105457304Y-62436589D01*
X105430905Y-62395512D01*
X105383122Y-62321159D01*
X105383120Y-62321156D01*
X105378250Y-62313579D01*
X105372676Y-62308749D01*
X105343525Y-62244922D01*
X105353627Y-62174647D01*
X105373018Y-62144474D01*
X105416274Y-62094555D01*
X105416276Y-62094552D01*
X105422176Y-62087743D01*
X105482919Y-61954734D01*
X105503729Y-61810000D01*
X105503729Y-61037581D01*
X105503925Y-61030548D01*
X105506514Y-60984243D01*
X105506514Y-60984238D01*
X105506704Y-60980840D01*
X105503902Y-60927377D01*
X105503729Y-60920782D01*
X105503729Y-60324500D01*
X105523731Y-60256379D01*
X105577387Y-60209886D01*
X105629729Y-60198500D01*
X122555500Y-60198500D01*
X122623621Y-60218502D01*
G37*
G04 #@! TD.AperFunction*
M02*
