%TF.GenerationSoftware,KiCad,Pcbnew,(6.0.8)*%
%TF.CreationDate,2023-05-19T15:03:57+02:00*%
%TF.ProjectId,10_Audio_Facile,31305f41-7564-4696-9f5f-466163696c65,rev?*%
%TF.SameCoordinates,Original*%
%TF.FileFunction,Drillmap*%
%TF.FilePolarity,Positive*%
%FSLAX45Y45*%
G04 Gerber Fmt 4.5, Leading zero omitted, Abs format (unit mm)*
G04 Created by KiCad (PCBNEW (6.0.8)) date 2023-05-19 15:03:57*
%MOMM*%
%LPD*%
G01*
G04 APERTURE LIST*
%ADD10C,0.050000*%
%ADD11C,0.200000*%
%ADD12C,0.060000*%
%ADD13C,0.076200*%
%ADD14C,0.100000*%
G04 APERTURE END LIST*
D10*
X12446000Y-7810500D02*
X10160000Y-7810500D01*
X12446000Y-6159500D02*
X12446000Y-7810500D01*
X10160000Y-7747000D02*
X10160000Y-7810500D01*
X10160000Y-7747000D02*
X10160000Y-6159500D01*
X10160000Y-6159500D02*
X12446000Y-6159500D01*
D11*
D12*
X10638000Y-7424900D02*
X10698000Y-7484900D01*
X10698000Y-7424900D02*
X10638000Y-7484900D01*
X10663400Y-6447000D02*
X10723400Y-6507000D01*
X10723400Y-6447000D02*
X10663400Y-6507000D01*
X10663400Y-6713700D02*
X10723400Y-6773700D01*
X10723400Y-6713700D02*
X10663400Y-6773700D01*
X10803100Y-7424900D02*
X10863100Y-7484900D01*
X10863100Y-7424900D02*
X10803100Y-7484900D01*
X10879300Y-6447000D02*
X10939300Y-6507000D01*
X10939300Y-6447000D02*
X10879300Y-6507000D01*
X10879300Y-6713700D02*
X10939300Y-6773700D01*
X10939300Y-6713700D02*
X10879300Y-6773700D01*
X10955500Y-7310600D02*
X11015500Y-7370600D01*
X11015500Y-7310600D02*
X10955500Y-7370600D01*
X11069800Y-6802600D02*
X11129800Y-6862600D01*
X11129800Y-6802600D02*
X11069800Y-6862600D01*
X11095200Y-6447000D02*
X11155200Y-6507000D01*
X11155200Y-6447000D02*
X11095200Y-6507000D01*
X11146000Y-7310600D02*
X11206000Y-7370600D01*
X11206000Y-7310600D02*
X11146000Y-7370600D01*
X11400000Y-7336000D02*
X11460000Y-7396000D01*
X11460000Y-7336000D02*
X11400000Y-7396000D01*
X11400000Y-7653500D02*
X11460000Y-7713500D01*
X11460000Y-7653500D02*
X11400000Y-7713500D01*
X11527000Y-6256500D02*
X11587000Y-6316500D01*
X11587000Y-6256500D02*
X11527000Y-6316500D01*
X11565100Y-6548600D02*
X11625100Y-6608600D01*
X11625100Y-6548600D02*
X11565100Y-6608600D01*
X11615900Y-7539200D02*
X11675900Y-7599200D01*
X11675900Y-7539200D02*
X11615900Y-7599200D01*
X11692100Y-6713700D02*
X11752100Y-6773700D01*
X11752100Y-6713700D02*
X11692100Y-6773700D01*
X11793700Y-6256500D02*
X11853700Y-6316500D01*
X11853700Y-6256500D02*
X11793700Y-6316500D01*
X11806400Y-7653500D02*
X11866400Y-7713500D01*
X11866400Y-7653500D02*
X11806400Y-7713500D01*
X11857200Y-7450300D02*
X11917200Y-7510300D01*
X11917200Y-7450300D02*
X11857200Y-7510300D01*
X11882600Y-6713700D02*
X11942600Y-6773700D01*
X11942600Y-6713700D02*
X11882600Y-6773700D01*
X11889340Y-6955000D02*
X11949340Y-7015000D01*
X11949340Y-6955000D02*
X11889340Y-7015000D01*
X11889340Y-7082000D02*
X11949340Y-7142000D01*
X11949340Y-7082000D02*
X11889340Y-7142000D01*
X12016340Y-6955000D02*
X12076340Y-7015000D01*
X12076340Y-6955000D02*
X12016340Y-7015000D01*
X12016340Y-7082000D02*
X12076340Y-7142000D01*
X12076340Y-7082000D02*
X12016340Y-7142000D01*
X12060400Y-6256500D02*
X12120400Y-6316500D01*
X12120400Y-6256500D02*
X12060400Y-6316500D01*
X12067140Y-7272500D02*
X12127140Y-7332500D01*
X12127140Y-7272500D02*
X12067140Y-7332500D01*
X12073100Y-6713700D02*
X12133100Y-6773700D01*
X12133100Y-6713700D02*
X12073100Y-6773700D01*
X12073100Y-7653500D02*
X12133100Y-7713500D01*
X12133100Y-7653500D02*
X12073100Y-7713500D01*
X12289000Y-6256500D02*
X12349000Y-6316500D01*
X12349000Y-6256500D02*
X12289000Y-6316500D01*
X12289000Y-6408900D02*
X12349000Y-6468900D01*
X12349000Y-6408900D02*
X12289000Y-6468900D01*
X12289000Y-6574000D02*
X12349000Y-6634000D01*
X12349000Y-6574000D02*
X12289000Y-6634000D01*
X12301700Y-7653500D02*
X12361700Y-7713500D01*
X12361700Y-7653500D02*
X12301700Y-7713500D01*
D13*
X10198100Y-6350000D02*
G75*
G03*
X10198100Y-6350000I-38100J0D01*
G01*
X10198100Y-6604000D02*
G75*
G03*
X10198100Y-6604000I-38100J0D01*
G01*
X10198100Y-6858000D02*
G75*
G03*
X10198100Y-6858000I-38100J0D01*
G01*
X10198100Y-7112000D02*
G75*
G03*
X10198100Y-7112000I-38100J0D01*
G01*
X10198100Y-7366000D02*
G75*
G03*
X10198100Y-7366000I-38100J0D01*
G01*
X10198100Y-7620000D02*
G75*
G03*
X10198100Y-7620000I-38100J0D01*
G01*
D14*
X10414000Y-6300000D02*
X10414000Y-6400000D01*
X10364000Y-6350000D02*
X10464000Y-6350000D01*
X10414000Y-6554000D02*
X10414000Y-6654000D01*
X10364000Y-6604000D02*
X10464000Y-6604000D01*
X10414000Y-6808000D02*
X10414000Y-6908000D01*
X10364000Y-6858000D02*
X10464000Y-6858000D01*
X10414000Y-7062000D02*
X10414000Y-7162000D01*
X10364000Y-7112000D02*
X10464000Y-7112000D01*
X10414000Y-7316000D02*
X10414000Y-7416000D01*
X10364000Y-7366000D02*
X10464000Y-7366000D01*
X10414000Y-7570000D02*
X10414000Y-7670000D01*
X10364000Y-7620000D02*
X10464000Y-7620000D01*
D11*
X10415119Y-8123476D02*
X10415119Y-7923476D01*
X10462738Y-7923476D01*
X10491310Y-7933000D01*
X10510357Y-7952048D01*
X10519881Y-7971095D01*
X10529405Y-8009190D01*
X10529405Y-8037762D01*
X10519881Y-8075857D01*
X10510357Y-8094905D01*
X10491310Y-8113952D01*
X10462738Y-8123476D01*
X10415119Y-8123476D01*
X10615119Y-8123476D02*
X10615119Y-7990143D01*
X10615119Y-8028238D02*
X10624643Y-8009190D01*
X10634167Y-7999667D01*
X10653214Y-7990143D01*
X10672262Y-7990143D01*
X10738929Y-8123476D02*
X10738929Y-7990143D01*
X10738929Y-7923476D02*
X10729405Y-7933000D01*
X10738929Y-7942524D01*
X10748452Y-7933000D01*
X10738929Y-7923476D01*
X10738929Y-7942524D01*
X10862738Y-8123476D02*
X10843690Y-8113952D01*
X10834167Y-8094905D01*
X10834167Y-7923476D01*
X10967500Y-8123476D02*
X10948452Y-8113952D01*
X10938929Y-8094905D01*
X10938929Y-7923476D01*
X11196071Y-8123476D02*
X11196071Y-7923476D01*
X11262738Y-8066333D01*
X11329405Y-7923476D01*
X11329405Y-8123476D01*
X11510357Y-8123476D02*
X11510357Y-8018714D01*
X11500833Y-7999667D01*
X11481786Y-7990143D01*
X11443690Y-7990143D01*
X11424643Y-7999667D01*
X11510357Y-8113952D02*
X11491309Y-8123476D01*
X11443690Y-8123476D01*
X11424643Y-8113952D01*
X11415119Y-8094905D01*
X11415119Y-8075857D01*
X11424643Y-8056809D01*
X11443690Y-8047286D01*
X11491309Y-8047286D01*
X11510357Y-8037762D01*
X11605595Y-7990143D02*
X11605595Y-8190143D01*
X11605595Y-7999667D02*
X11624643Y-7990143D01*
X11662738Y-7990143D01*
X11681786Y-7999667D01*
X11691309Y-8009190D01*
X11700833Y-8028238D01*
X11700833Y-8085381D01*
X11691309Y-8104428D01*
X11681786Y-8113952D01*
X11662738Y-8123476D01*
X11624643Y-8123476D01*
X11605595Y-8113952D01*
X11786548Y-8104428D02*
X11796071Y-8113952D01*
X11786548Y-8123476D01*
X11777024Y-8113952D01*
X11786548Y-8104428D01*
X11786548Y-8123476D01*
X11786548Y-7999667D02*
X11796071Y-8009190D01*
X11786548Y-8018714D01*
X11777024Y-8009190D01*
X11786548Y-7999667D01*
X11786548Y-8018714D01*
D12*
X10097500Y-8423000D02*
X10157500Y-8483000D01*
X10157500Y-8423000D02*
X10097500Y-8483000D01*
D11*
X10453214Y-8343476D02*
X10472262Y-8343476D01*
X10491310Y-8353000D01*
X10500833Y-8362524D01*
X10510357Y-8381571D01*
X10519881Y-8419667D01*
X10519881Y-8467286D01*
X10510357Y-8505381D01*
X10500833Y-8524429D01*
X10491310Y-8533952D01*
X10472262Y-8543476D01*
X10453214Y-8543476D01*
X10434167Y-8533952D01*
X10424643Y-8524429D01*
X10415119Y-8505381D01*
X10405595Y-8467286D01*
X10405595Y-8419667D01*
X10415119Y-8381571D01*
X10424643Y-8362524D01*
X10434167Y-8353000D01*
X10453214Y-8343476D01*
X10605595Y-8524429D02*
X10615119Y-8533952D01*
X10605595Y-8543476D01*
X10596071Y-8533952D01*
X10605595Y-8524429D01*
X10605595Y-8543476D01*
X10786548Y-8343476D02*
X10748452Y-8343476D01*
X10729405Y-8353000D01*
X10719881Y-8362524D01*
X10700833Y-8391095D01*
X10691310Y-8429190D01*
X10691310Y-8505381D01*
X10700833Y-8524429D01*
X10710357Y-8533952D01*
X10729405Y-8543476D01*
X10767500Y-8543476D01*
X10786548Y-8533952D01*
X10796071Y-8524429D01*
X10805595Y-8505381D01*
X10805595Y-8457762D01*
X10796071Y-8438714D01*
X10786548Y-8429190D01*
X10767500Y-8419667D01*
X10729405Y-8419667D01*
X10710357Y-8429190D01*
X10700833Y-8438714D01*
X10691310Y-8457762D01*
X10929405Y-8343476D02*
X10948452Y-8343476D01*
X10967500Y-8353000D01*
X10977024Y-8362524D01*
X10986548Y-8381571D01*
X10996071Y-8419667D01*
X10996071Y-8467286D01*
X10986548Y-8505381D01*
X10977024Y-8524429D01*
X10967500Y-8533952D01*
X10948452Y-8543476D01*
X10929405Y-8543476D01*
X10910357Y-8533952D01*
X10900833Y-8524429D01*
X10891310Y-8505381D01*
X10881786Y-8467286D01*
X10881786Y-8419667D01*
X10891310Y-8381571D01*
X10900833Y-8362524D01*
X10910357Y-8353000D01*
X10929405Y-8343476D01*
X11119881Y-8343476D02*
X11138929Y-8343476D01*
X11157976Y-8353000D01*
X11167500Y-8362524D01*
X11177024Y-8381571D01*
X11186548Y-8419667D01*
X11186548Y-8467286D01*
X11177024Y-8505381D01*
X11167500Y-8524429D01*
X11157976Y-8533952D01*
X11138929Y-8543476D01*
X11119881Y-8543476D01*
X11100833Y-8533952D01*
X11091310Y-8524429D01*
X11081786Y-8505381D01*
X11072262Y-8467286D01*
X11072262Y-8419667D01*
X11081786Y-8381571D01*
X11091310Y-8362524D01*
X11100833Y-8353000D01*
X11119881Y-8343476D01*
X11272262Y-8543476D02*
X11272262Y-8410143D01*
X11272262Y-8429190D02*
X11281786Y-8419667D01*
X11300833Y-8410143D01*
X11329405Y-8410143D01*
X11348452Y-8419667D01*
X11357976Y-8438714D01*
X11357976Y-8543476D01*
X11357976Y-8438714D02*
X11367500Y-8419667D01*
X11386548Y-8410143D01*
X11415119Y-8410143D01*
X11434167Y-8419667D01*
X11443690Y-8438714D01*
X11443690Y-8543476D01*
X11538928Y-8543476D02*
X11538928Y-8410143D01*
X11538928Y-8429190D02*
X11548452Y-8419667D01*
X11567500Y-8410143D01*
X11596071Y-8410143D01*
X11615119Y-8419667D01*
X11624643Y-8438714D01*
X11624643Y-8543476D01*
X11624643Y-8438714D02*
X11634167Y-8419667D01*
X11653214Y-8410143D01*
X11681786Y-8410143D01*
X11700833Y-8419667D01*
X11710357Y-8438714D01*
X11710357Y-8543476D01*
X12100833Y-8333952D02*
X11929405Y-8591095D01*
X12357976Y-8343476D02*
X12377024Y-8343476D01*
X12396071Y-8353000D01*
X12405595Y-8362524D01*
X12415119Y-8381571D01*
X12424643Y-8419667D01*
X12424643Y-8467286D01*
X12415119Y-8505381D01*
X12405595Y-8524429D01*
X12396071Y-8533952D01*
X12377024Y-8543476D01*
X12357976Y-8543476D01*
X12338928Y-8533952D01*
X12329405Y-8524429D01*
X12319881Y-8505381D01*
X12310357Y-8467286D01*
X12310357Y-8419667D01*
X12319881Y-8381571D01*
X12329405Y-8362524D01*
X12338928Y-8353000D01*
X12357976Y-8343476D01*
X12510357Y-8524429D02*
X12519881Y-8533952D01*
X12510357Y-8543476D01*
X12500833Y-8533952D01*
X12510357Y-8524429D01*
X12510357Y-8543476D01*
X12643690Y-8343476D02*
X12662738Y-8343476D01*
X12681786Y-8353000D01*
X12691309Y-8362524D01*
X12700833Y-8381571D01*
X12710357Y-8419667D01*
X12710357Y-8467286D01*
X12700833Y-8505381D01*
X12691309Y-8524429D01*
X12681786Y-8533952D01*
X12662738Y-8543476D01*
X12643690Y-8543476D01*
X12624643Y-8533952D01*
X12615119Y-8524429D01*
X12605595Y-8505381D01*
X12596071Y-8467286D01*
X12596071Y-8419667D01*
X12605595Y-8381571D01*
X12615119Y-8362524D01*
X12624643Y-8353000D01*
X12643690Y-8343476D01*
X12786548Y-8362524D02*
X12796071Y-8353000D01*
X12815119Y-8343476D01*
X12862738Y-8343476D01*
X12881786Y-8353000D01*
X12891309Y-8362524D01*
X12900833Y-8381571D01*
X12900833Y-8400619D01*
X12891309Y-8429190D01*
X12777024Y-8543476D01*
X12900833Y-8543476D01*
X12967500Y-8343476D02*
X13091309Y-8343476D01*
X13024643Y-8419667D01*
X13053214Y-8419667D01*
X13072262Y-8429190D01*
X13081786Y-8438714D01*
X13091309Y-8457762D01*
X13091309Y-8505381D01*
X13081786Y-8524429D01*
X13072262Y-8533952D01*
X13053214Y-8543476D01*
X12996071Y-8543476D01*
X12977024Y-8533952D01*
X12967500Y-8524429D01*
X13262738Y-8343476D02*
X13224643Y-8343476D01*
X13205595Y-8353000D01*
X13196071Y-8362524D01*
X13177024Y-8391095D01*
X13167500Y-8429190D01*
X13167500Y-8505381D01*
X13177024Y-8524429D01*
X13186548Y-8533952D01*
X13205595Y-8543476D01*
X13243690Y-8543476D01*
X13262738Y-8533952D01*
X13272262Y-8524429D01*
X13281786Y-8505381D01*
X13281786Y-8457762D01*
X13272262Y-8438714D01*
X13262738Y-8429190D01*
X13243690Y-8419667D01*
X13205595Y-8419667D01*
X13186548Y-8429190D01*
X13177024Y-8438714D01*
X13167500Y-8457762D01*
X13357976Y-8343476D02*
X13357976Y-8381571D01*
X13434167Y-8343476D02*
X13434167Y-8381571D01*
X13729405Y-8619667D02*
X13719881Y-8610143D01*
X13700833Y-8581571D01*
X13691309Y-8562524D01*
X13681786Y-8533952D01*
X13672262Y-8486333D01*
X13672262Y-8448238D01*
X13681786Y-8400619D01*
X13691309Y-8372048D01*
X13700833Y-8353000D01*
X13719881Y-8324428D01*
X13729405Y-8314905D01*
X13786548Y-8343476D02*
X13910357Y-8343476D01*
X13843690Y-8419667D01*
X13872262Y-8419667D01*
X13891309Y-8429190D01*
X13900833Y-8438714D01*
X13910357Y-8457762D01*
X13910357Y-8505381D01*
X13900833Y-8524429D01*
X13891309Y-8533952D01*
X13872262Y-8543476D01*
X13815119Y-8543476D01*
X13796071Y-8533952D01*
X13786548Y-8524429D01*
X13986548Y-8362524D02*
X13996071Y-8353000D01*
X14015119Y-8343476D01*
X14062738Y-8343476D01*
X14081786Y-8353000D01*
X14091309Y-8362524D01*
X14100833Y-8381571D01*
X14100833Y-8400619D01*
X14091309Y-8429190D01*
X13977024Y-8543476D01*
X14100833Y-8543476D01*
X14338928Y-8543476D02*
X14338928Y-8343476D01*
X14424643Y-8543476D02*
X14424643Y-8438714D01*
X14415119Y-8419667D01*
X14396071Y-8410143D01*
X14367500Y-8410143D01*
X14348452Y-8419667D01*
X14338928Y-8429190D01*
X14548452Y-8543476D02*
X14529405Y-8533952D01*
X14519881Y-8524429D01*
X14510357Y-8505381D01*
X14510357Y-8448238D01*
X14519881Y-8429190D01*
X14529405Y-8419667D01*
X14548452Y-8410143D01*
X14577024Y-8410143D01*
X14596071Y-8419667D01*
X14605595Y-8429190D01*
X14615119Y-8448238D01*
X14615119Y-8505381D01*
X14605595Y-8524429D01*
X14596071Y-8533952D01*
X14577024Y-8543476D01*
X14548452Y-8543476D01*
X14729405Y-8543476D02*
X14710357Y-8533952D01*
X14700833Y-8514905D01*
X14700833Y-8343476D01*
X14881786Y-8533952D02*
X14862738Y-8543476D01*
X14824643Y-8543476D01*
X14805595Y-8533952D01*
X14796071Y-8514905D01*
X14796071Y-8438714D01*
X14805595Y-8419667D01*
X14824643Y-8410143D01*
X14862738Y-8410143D01*
X14881786Y-8419667D01*
X14891309Y-8438714D01*
X14891309Y-8457762D01*
X14796071Y-8476810D01*
X14967500Y-8533952D02*
X14986548Y-8543476D01*
X15024643Y-8543476D01*
X15043690Y-8533952D01*
X15053214Y-8514905D01*
X15053214Y-8505381D01*
X15043690Y-8486333D01*
X15024643Y-8476810D01*
X14996071Y-8476810D01*
X14977024Y-8467286D01*
X14967500Y-8448238D01*
X14967500Y-8438714D01*
X14977024Y-8419667D01*
X14996071Y-8410143D01*
X15024643Y-8410143D01*
X15043690Y-8419667D01*
X15119881Y-8619667D02*
X15129405Y-8610143D01*
X15148452Y-8581571D01*
X15157976Y-8562524D01*
X15167500Y-8533952D01*
X15177024Y-8486333D01*
X15177024Y-8448238D01*
X15167500Y-8400619D01*
X15157976Y-8372048D01*
X15148452Y-8353000D01*
X15129405Y-8324428D01*
X15119881Y-8314905D01*
D13*
X10157500Y-8717000D02*
G75*
G03*
X10157500Y-8717000I-38100J0D01*
G01*
D11*
X10453214Y-8607476D02*
X10472262Y-8607476D01*
X10491310Y-8617000D01*
X10500833Y-8626524D01*
X10510357Y-8645571D01*
X10519881Y-8683667D01*
X10519881Y-8731286D01*
X10510357Y-8769381D01*
X10500833Y-8788429D01*
X10491310Y-8797952D01*
X10472262Y-8807476D01*
X10453214Y-8807476D01*
X10434167Y-8797952D01*
X10424643Y-8788429D01*
X10415119Y-8769381D01*
X10405595Y-8731286D01*
X10405595Y-8683667D01*
X10415119Y-8645571D01*
X10424643Y-8626524D01*
X10434167Y-8617000D01*
X10453214Y-8607476D01*
X10605595Y-8788429D02*
X10615119Y-8797952D01*
X10605595Y-8807476D01*
X10596071Y-8797952D01*
X10605595Y-8788429D01*
X10605595Y-8807476D01*
X10681786Y-8607476D02*
X10815119Y-8607476D01*
X10729405Y-8807476D01*
X10977024Y-8607476D02*
X10938929Y-8607476D01*
X10919881Y-8617000D01*
X10910357Y-8626524D01*
X10891310Y-8655095D01*
X10881786Y-8693190D01*
X10881786Y-8769381D01*
X10891310Y-8788429D01*
X10900833Y-8797952D01*
X10919881Y-8807476D01*
X10957976Y-8807476D01*
X10977024Y-8797952D01*
X10986548Y-8788429D01*
X10996071Y-8769381D01*
X10996071Y-8721762D01*
X10986548Y-8702714D01*
X10977024Y-8693190D01*
X10957976Y-8683667D01*
X10919881Y-8683667D01*
X10900833Y-8693190D01*
X10891310Y-8702714D01*
X10881786Y-8721762D01*
X11072262Y-8626524D02*
X11081786Y-8617000D01*
X11100833Y-8607476D01*
X11148452Y-8607476D01*
X11167500Y-8617000D01*
X11177024Y-8626524D01*
X11186548Y-8645571D01*
X11186548Y-8664619D01*
X11177024Y-8693190D01*
X11062738Y-8807476D01*
X11186548Y-8807476D01*
X11272262Y-8807476D02*
X11272262Y-8674143D01*
X11272262Y-8693190D02*
X11281786Y-8683667D01*
X11300833Y-8674143D01*
X11329405Y-8674143D01*
X11348452Y-8683667D01*
X11357976Y-8702714D01*
X11357976Y-8807476D01*
X11357976Y-8702714D02*
X11367500Y-8683667D01*
X11386548Y-8674143D01*
X11415119Y-8674143D01*
X11434167Y-8683667D01*
X11443690Y-8702714D01*
X11443690Y-8807476D01*
X11538928Y-8807476D02*
X11538928Y-8674143D01*
X11538928Y-8693190D02*
X11548452Y-8683667D01*
X11567500Y-8674143D01*
X11596071Y-8674143D01*
X11615119Y-8683667D01*
X11624643Y-8702714D01*
X11624643Y-8807476D01*
X11624643Y-8702714D02*
X11634167Y-8683667D01*
X11653214Y-8674143D01*
X11681786Y-8674143D01*
X11700833Y-8683667D01*
X11710357Y-8702714D01*
X11710357Y-8807476D01*
X12100833Y-8597952D02*
X11929405Y-8855095D01*
X12357976Y-8607476D02*
X12377024Y-8607476D01*
X12396071Y-8617000D01*
X12405595Y-8626524D01*
X12415119Y-8645571D01*
X12424643Y-8683667D01*
X12424643Y-8731286D01*
X12415119Y-8769381D01*
X12405595Y-8788429D01*
X12396071Y-8797952D01*
X12377024Y-8807476D01*
X12357976Y-8807476D01*
X12338928Y-8797952D01*
X12329405Y-8788429D01*
X12319881Y-8769381D01*
X12310357Y-8731286D01*
X12310357Y-8683667D01*
X12319881Y-8645571D01*
X12329405Y-8626524D01*
X12338928Y-8617000D01*
X12357976Y-8607476D01*
X12510357Y-8788429D02*
X12519881Y-8797952D01*
X12510357Y-8807476D01*
X12500833Y-8797952D01*
X12510357Y-8788429D01*
X12510357Y-8807476D01*
X12643690Y-8607476D02*
X12662738Y-8607476D01*
X12681786Y-8617000D01*
X12691309Y-8626524D01*
X12700833Y-8645571D01*
X12710357Y-8683667D01*
X12710357Y-8731286D01*
X12700833Y-8769381D01*
X12691309Y-8788429D01*
X12681786Y-8797952D01*
X12662738Y-8807476D01*
X12643690Y-8807476D01*
X12624643Y-8797952D01*
X12615119Y-8788429D01*
X12605595Y-8769381D01*
X12596071Y-8731286D01*
X12596071Y-8683667D01*
X12605595Y-8645571D01*
X12615119Y-8626524D01*
X12624643Y-8617000D01*
X12643690Y-8607476D01*
X12777024Y-8607476D02*
X12900833Y-8607476D01*
X12834167Y-8683667D01*
X12862738Y-8683667D01*
X12881786Y-8693190D01*
X12891309Y-8702714D01*
X12900833Y-8721762D01*
X12900833Y-8769381D01*
X12891309Y-8788429D01*
X12881786Y-8797952D01*
X12862738Y-8807476D01*
X12805595Y-8807476D01*
X12786548Y-8797952D01*
X12777024Y-8788429D01*
X13024643Y-8607476D02*
X13043690Y-8607476D01*
X13062738Y-8617000D01*
X13072262Y-8626524D01*
X13081786Y-8645571D01*
X13091309Y-8683667D01*
X13091309Y-8731286D01*
X13081786Y-8769381D01*
X13072262Y-8788429D01*
X13062738Y-8797952D01*
X13043690Y-8807476D01*
X13024643Y-8807476D01*
X13005595Y-8797952D01*
X12996071Y-8788429D01*
X12986548Y-8769381D01*
X12977024Y-8731286D01*
X12977024Y-8683667D01*
X12986548Y-8645571D01*
X12996071Y-8626524D01*
X13005595Y-8617000D01*
X13024643Y-8607476D01*
X13215119Y-8607476D02*
X13234167Y-8607476D01*
X13253214Y-8617000D01*
X13262738Y-8626524D01*
X13272262Y-8645571D01*
X13281786Y-8683667D01*
X13281786Y-8731286D01*
X13272262Y-8769381D01*
X13262738Y-8788429D01*
X13253214Y-8797952D01*
X13234167Y-8807476D01*
X13215119Y-8807476D01*
X13196071Y-8797952D01*
X13186548Y-8788429D01*
X13177024Y-8769381D01*
X13167500Y-8731286D01*
X13167500Y-8683667D01*
X13177024Y-8645571D01*
X13186548Y-8626524D01*
X13196071Y-8617000D01*
X13215119Y-8607476D01*
X13357976Y-8607476D02*
X13357976Y-8645571D01*
X13434167Y-8607476D02*
X13434167Y-8645571D01*
X13729405Y-8883667D02*
X13719881Y-8874143D01*
X13700833Y-8845571D01*
X13691309Y-8826524D01*
X13681786Y-8797952D01*
X13672262Y-8750333D01*
X13672262Y-8712238D01*
X13681786Y-8664619D01*
X13691309Y-8636048D01*
X13700833Y-8617000D01*
X13719881Y-8588429D01*
X13729405Y-8578905D01*
X13891309Y-8607476D02*
X13853214Y-8607476D01*
X13834167Y-8617000D01*
X13824643Y-8626524D01*
X13805595Y-8655095D01*
X13796071Y-8693190D01*
X13796071Y-8769381D01*
X13805595Y-8788429D01*
X13815119Y-8797952D01*
X13834167Y-8807476D01*
X13872262Y-8807476D01*
X13891309Y-8797952D01*
X13900833Y-8788429D01*
X13910357Y-8769381D01*
X13910357Y-8721762D01*
X13900833Y-8702714D01*
X13891309Y-8693190D01*
X13872262Y-8683667D01*
X13834167Y-8683667D01*
X13815119Y-8693190D01*
X13805595Y-8702714D01*
X13796071Y-8721762D01*
X14148452Y-8807476D02*
X14148452Y-8607476D01*
X14234167Y-8807476D02*
X14234167Y-8702714D01*
X14224643Y-8683667D01*
X14205595Y-8674143D01*
X14177024Y-8674143D01*
X14157976Y-8683667D01*
X14148452Y-8693190D01*
X14357976Y-8807476D02*
X14338928Y-8797952D01*
X14329405Y-8788429D01*
X14319881Y-8769381D01*
X14319881Y-8712238D01*
X14329405Y-8693190D01*
X14338928Y-8683667D01*
X14357976Y-8674143D01*
X14386548Y-8674143D01*
X14405595Y-8683667D01*
X14415119Y-8693190D01*
X14424643Y-8712238D01*
X14424643Y-8769381D01*
X14415119Y-8788429D01*
X14405595Y-8797952D01*
X14386548Y-8807476D01*
X14357976Y-8807476D01*
X14538928Y-8807476D02*
X14519881Y-8797952D01*
X14510357Y-8778905D01*
X14510357Y-8607476D01*
X14691309Y-8797952D02*
X14672262Y-8807476D01*
X14634167Y-8807476D01*
X14615119Y-8797952D01*
X14605595Y-8778905D01*
X14605595Y-8702714D01*
X14615119Y-8683667D01*
X14634167Y-8674143D01*
X14672262Y-8674143D01*
X14691309Y-8683667D01*
X14700833Y-8702714D01*
X14700833Y-8721762D01*
X14605595Y-8740810D01*
X14777024Y-8797952D02*
X14796071Y-8807476D01*
X14834167Y-8807476D01*
X14853214Y-8797952D01*
X14862738Y-8778905D01*
X14862738Y-8769381D01*
X14853214Y-8750333D01*
X14834167Y-8740810D01*
X14805595Y-8740810D01*
X14786548Y-8731286D01*
X14777024Y-8712238D01*
X14777024Y-8702714D01*
X14786548Y-8683667D01*
X14805595Y-8674143D01*
X14834167Y-8674143D01*
X14853214Y-8683667D01*
X14929405Y-8883667D02*
X14938928Y-8874143D01*
X14957976Y-8845571D01*
X14967500Y-8826524D01*
X14977024Y-8797952D01*
X14986548Y-8750333D01*
X14986548Y-8712238D01*
X14977024Y-8664619D01*
X14967500Y-8636048D01*
X14957976Y-8617000D01*
X14938928Y-8588429D01*
X14929405Y-8578905D01*
D14*
X10107500Y-8931000D02*
X10107500Y-9031000D01*
X10057500Y-8981000D02*
X10157500Y-8981000D01*
D11*
X10519881Y-9071476D02*
X10405595Y-9071476D01*
X10462738Y-9071476D02*
X10462738Y-8871476D01*
X10443690Y-8900048D01*
X10424643Y-8919095D01*
X10405595Y-8928619D01*
X10605595Y-9052429D02*
X10615119Y-9061952D01*
X10605595Y-9071476D01*
X10596071Y-9061952D01*
X10605595Y-9052429D01*
X10605595Y-9071476D01*
X10738929Y-8871476D02*
X10757976Y-8871476D01*
X10777024Y-8881000D01*
X10786548Y-8890524D01*
X10796071Y-8909571D01*
X10805595Y-8947667D01*
X10805595Y-8995286D01*
X10796071Y-9033381D01*
X10786548Y-9052429D01*
X10777024Y-9061952D01*
X10757976Y-9071476D01*
X10738929Y-9071476D01*
X10719881Y-9061952D01*
X10710357Y-9052429D01*
X10700833Y-9033381D01*
X10691310Y-8995286D01*
X10691310Y-8947667D01*
X10700833Y-8909571D01*
X10710357Y-8890524D01*
X10719881Y-8881000D01*
X10738929Y-8871476D01*
X10929405Y-8871476D02*
X10948452Y-8871476D01*
X10967500Y-8881000D01*
X10977024Y-8890524D01*
X10986548Y-8909571D01*
X10996071Y-8947667D01*
X10996071Y-8995286D01*
X10986548Y-9033381D01*
X10977024Y-9052429D01*
X10967500Y-9061952D01*
X10948452Y-9071476D01*
X10929405Y-9071476D01*
X10910357Y-9061952D01*
X10900833Y-9052429D01*
X10891310Y-9033381D01*
X10881786Y-8995286D01*
X10881786Y-8947667D01*
X10891310Y-8909571D01*
X10900833Y-8890524D01*
X10910357Y-8881000D01*
X10929405Y-8871476D01*
X11119881Y-8871476D02*
X11138929Y-8871476D01*
X11157976Y-8881000D01*
X11167500Y-8890524D01*
X11177024Y-8909571D01*
X11186548Y-8947667D01*
X11186548Y-8995286D01*
X11177024Y-9033381D01*
X11167500Y-9052429D01*
X11157976Y-9061952D01*
X11138929Y-9071476D01*
X11119881Y-9071476D01*
X11100833Y-9061952D01*
X11091310Y-9052429D01*
X11081786Y-9033381D01*
X11072262Y-8995286D01*
X11072262Y-8947667D01*
X11081786Y-8909571D01*
X11091310Y-8890524D01*
X11100833Y-8881000D01*
X11119881Y-8871476D01*
X11272262Y-9071476D02*
X11272262Y-8938143D01*
X11272262Y-8957190D02*
X11281786Y-8947667D01*
X11300833Y-8938143D01*
X11329405Y-8938143D01*
X11348452Y-8947667D01*
X11357976Y-8966714D01*
X11357976Y-9071476D01*
X11357976Y-8966714D02*
X11367500Y-8947667D01*
X11386548Y-8938143D01*
X11415119Y-8938143D01*
X11434167Y-8947667D01*
X11443690Y-8966714D01*
X11443690Y-9071476D01*
X11538928Y-9071476D02*
X11538928Y-8938143D01*
X11538928Y-8957190D02*
X11548452Y-8947667D01*
X11567500Y-8938143D01*
X11596071Y-8938143D01*
X11615119Y-8947667D01*
X11624643Y-8966714D01*
X11624643Y-9071476D01*
X11624643Y-8966714D02*
X11634167Y-8947667D01*
X11653214Y-8938143D01*
X11681786Y-8938143D01*
X11700833Y-8947667D01*
X11710357Y-8966714D01*
X11710357Y-9071476D01*
X12100833Y-8861952D02*
X11929405Y-9119095D01*
X12357976Y-8871476D02*
X12377024Y-8871476D01*
X12396071Y-8881000D01*
X12405595Y-8890524D01*
X12415119Y-8909571D01*
X12424643Y-8947667D01*
X12424643Y-8995286D01*
X12415119Y-9033381D01*
X12405595Y-9052429D01*
X12396071Y-9061952D01*
X12377024Y-9071476D01*
X12357976Y-9071476D01*
X12338928Y-9061952D01*
X12329405Y-9052429D01*
X12319881Y-9033381D01*
X12310357Y-8995286D01*
X12310357Y-8947667D01*
X12319881Y-8909571D01*
X12329405Y-8890524D01*
X12338928Y-8881000D01*
X12357976Y-8871476D01*
X12510357Y-9052429D02*
X12519881Y-9061952D01*
X12510357Y-9071476D01*
X12500833Y-9061952D01*
X12510357Y-9052429D01*
X12510357Y-9071476D01*
X12643690Y-8871476D02*
X12662738Y-8871476D01*
X12681786Y-8881000D01*
X12691309Y-8890524D01*
X12700833Y-8909571D01*
X12710357Y-8947667D01*
X12710357Y-8995286D01*
X12700833Y-9033381D01*
X12691309Y-9052429D01*
X12681786Y-9061952D01*
X12662738Y-9071476D01*
X12643690Y-9071476D01*
X12624643Y-9061952D01*
X12615119Y-9052429D01*
X12605595Y-9033381D01*
X12596071Y-8995286D01*
X12596071Y-8947667D01*
X12605595Y-8909571D01*
X12615119Y-8890524D01*
X12624643Y-8881000D01*
X12643690Y-8871476D01*
X12777024Y-8871476D02*
X12900833Y-8871476D01*
X12834167Y-8947667D01*
X12862738Y-8947667D01*
X12881786Y-8957190D01*
X12891309Y-8966714D01*
X12900833Y-8985762D01*
X12900833Y-9033381D01*
X12891309Y-9052429D01*
X12881786Y-9061952D01*
X12862738Y-9071476D01*
X12805595Y-9071476D01*
X12786548Y-9061952D01*
X12777024Y-9052429D01*
X12996071Y-9071476D02*
X13034167Y-9071476D01*
X13053214Y-9061952D01*
X13062738Y-9052429D01*
X13081786Y-9023857D01*
X13091309Y-8985762D01*
X13091309Y-8909571D01*
X13081786Y-8890524D01*
X13072262Y-8881000D01*
X13053214Y-8871476D01*
X13015119Y-8871476D01*
X12996071Y-8881000D01*
X12986548Y-8890524D01*
X12977024Y-8909571D01*
X12977024Y-8957190D01*
X12986548Y-8976238D01*
X12996071Y-8985762D01*
X13015119Y-8995286D01*
X13053214Y-8995286D01*
X13072262Y-8985762D01*
X13081786Y-8976238D01*
X13091309Y-8957190D01*
X13262738Y-8938143D02*
X13262738Y-9071476D01*
X13215119Y-8861952D02*
X13167500Y-9004810D01*
X13291309Y-9004810D01*
X13357976Y-8871476D02*
X13357976Y-8909571D01*
X13434167Y-8871476D02*
X13434167Y-8909571D01*
X13729405Y-9147667D02*
X13719881Y-9138143D01*
X13700833Y-9109571D01*
X13691309Y-9090524D01*
X13681786Y-9061952D01*
X13672262Y-9014333D01*
X13672262Y-8976238D01*
X13681786Y-8928619D01*
X13691309Y-8900048D01*
X13700833Y-8881000D01*
X13719881Y-8852429D01*
X13729405Y-8842905D01*
X13891309Y-8871476D02*
X13853214Y-8871476D01*
X13834167Y-8881000D01*
X13824643Y-8890524D01*
X13805595Y-8919095D01*
X13796071Y-8957190D01*
X13796071Y-9033381D01*
X13805595Y-9052429D01*
X13815119Y-9061952D01*
X13834167Y-9071476D01*
X13872262Y-9071476D01*
X13891309Y-9061952D01*
X13900833Y-9052429D01*
X13910357Y-9033381D01*
X13910357Y-8985762D01*
X13900833Y-8966714D01*
X13891309Y-8957190D01*
X13872262Y-8947667D01*
X13834167Y-8947667D01*
X13815119Y-8957190D01*
X13805595Y-8966714D01*
X13796071Y-8985762D01*
X14148452Y-9071476D02*
X14148452Y-8871476D01*
X14234167Y-9071476D02*
X14234167Y-8966714D01*
X14224643Y-8947667D01*
X14205595Y-8938143D01*
X14177024Y-8938143D01*
X14157976Y-8947667D01*
X14148452Y-8957190D01*
X14357976Y-9071476D02*
X14338928Y-9061952D01*
X14329405Y-9052429D01*
X14319881Y-9033381D01*
X14319881Y-8976238D01*
X14329405Y-8957190D01*
X14338928Y-8947667D01*
X14357976Y-8938143D01*
X14386548Y-8938143D01*
X14405595Y-8947667D01*
X14415119Y-8957190D01*
X14424643Y-8976238D01*
X14424643Y-9033381D01*
X14415119Y-9052429D01*
X14405595Y-9061952D01*
X14386548Y-9071476D01*
X14357976Y-9071476D01*
X14538928Y-9071476D02*
X14519881Y-9061952D01*
X14510357Y-9042905D01*
X14510357Y-8871476D01*
X14691309Y-9061952D02*
X14672262Y-9071476D01*
X14634167Y-9071476D01*
X14615119Y-9061952D01*
X14605595Y-9042905D01*
X14605595Y-8966714D01*
X14615119Y-8947667D01*
X14634167Y-8938143D01*
X14672262Y-8938143D01*
X14691309Y-8947667D01*
X14700833Y-8966714D01*
X14700833Y-8985762D01*
X14605595Y-9004810D01*
X14777024Y-9061952D02*
X14796071Y-9071476D01*
X14834167Y-9071476D01*
X14853214Y-9061952D01*
X14862738Y-9042905D01*
X14862738Y-9033381D01*
X14853214Y-9014333D01*
X14834167Y-9004810D01*
X14805595Y-9004810D01*
X14786548Y-8995286D01*
X14777024Y-8976238D01*
X14777024Y-8966714D01*
X14786548Y-8947667D01*
X14805595Y-8938143D01*
X14834167Y-8938143D01*
X14853214Y-8947667D01*
X14929405Y-9147667D02*
X14938928Y-9138143D01*
X14957976Y-9109571D01*
X14967500Y-9090524D01*
X14977024Y-9061952D01*
X14986548Y-9014333D01*
X14986548Y-8976238D01*
X14977024Y-8928619D01*
X14967500Y-8900048D01*
X14957976Y-8881000D01*
X14938928Y-8852429D01*
X14929405Y-8842905D01*
M02*
