%TF.GenerationSoftware,KiCad,Pcbnew,(5.1.6)-1*%
%TF.CreationDate,2021-04-06T00:06:40+02:00*%
%TF.ProjectId,10_Audio_Facile,31305f41-7564-4696-9f5f-466163696c65,rev?*%
%TF.SameCoordinates,Original*%
%TF.FileFunction,Paste,Top*%
%TF.FilePolarity,Positive*%
%FSLAX46Y46*%
G04 Gerber Fmt 4.6, Leading zero omitted, Abs format (unit mm)*
G04 Created by KiCad (PCBNEW (5.1.6)-1) date 2021-04-06 00:06:40*
%MOMM*%
%LPD*%
G01*
G04 APERTURE LIST*
%TA.AperFunction,Profile*%
%ADD10C,0.050000*%
%TD*%
%ADD11R,2.524000X1.700000*%
G04 APERTURE END LIST*
D10*
X130810000Y-67310000D02*
X129540000Y-67310000D01*
X130810000Y-64770000D02*
X130810000Y-67310000D01*
X129540000Y-64770000D02*
X130810000Y-64770000D01*
X129540000Y-60960000D02*
X129540000Y-64770000D01*
X129540000Y-67310000D02*
X129540000Y-81280000D01*
X101600000Y-60960000D02*
X129540000Y-60960000D01*
X101600000Y-77470000D02*
X101600000Y-81280000D01*
X100330000Y-77470000D02*
X101600000Y-77470000D01*
X101600000Y-60960000D02*
X101600000Y-64770000D01*
X101600000Y-64770000D02*
X100330000Y-64770000D01*
X129540000Y-81280000D02*
X101600000Y-81280000D01*
X100330000Y-77470000D02*
X100330000Y-64770000D01*
%TO.C,C1*%
G36*
G01*
X109025000Y-73320000D02*
X106875000Y-73320000D01*
G75*
G02*
X106625000Y-73070000I0J250000D01*
G01*
X106625000Y-72145000D01*
G75*
G02*
X106875000Y-71895000I250000J0D01*
G01*
X109025000Y-71895000D01*
G75*
G02*
X109275000Y-72145000I0J-250000D01*
G01*
X109275000Y-73070000D01*
G75*
G02*
X109025000Y-73320000I-250000J0D01*
G01*
G37*
G36*
G01*
X109025000Y-70345000D02*
X106875000Y-70345000D01*
G75*
G02*
X106625000Y-70095000I0J250000D01*
G01*
X106625000Y-69170000D01*
G75*
G02*
X106875000Y-68920000I250000J0D01*
G01*
X109025000Y-68920000D01*
G75*
G02*
X109275000Y-69170000I0J-250000D01*
G01*
X109275000Y-70095000D01*
G75*
G02*
X109025000Y-70345000I-250000J0D01*
G01*
G37*
%TD*%
%TO.C,C2*%
G36*
G01*
X110727500Y-70770000D02*
X110252500Y-70770000D01*
G75*
G02*
X110015000Y-70532500I0J237500D01*
G01*
X110015000Y-69957500D01*
G75*
G02*
X110252500Y-69720000I237500J0D01*
G01*
X110727500Y-69720000D01*
G75*
G02*
X110965000Y-69957500I0J-237500D01*
G01*
X110965000Y-70532500D01*
G75*
G02*
X110727500Y-70770000I-237500J0D01*
G01*
G37*
G36*
G01*
X110727500Y-72520000D02*
X110252500Y-72520000D01*
G75*
G02*
X110015000Y-72282500I0J237500D01*
G01*
X110015000Y-71707500D01*
G75*
G02*
X110252500Y-71470000I237500J0D01*
G01*
X110727500Y-71470000D01*
G75*
G02*
X110965000Y-71707500I0J-237500D01*
G01*
X110965000Y-72282500D01*
G75*
G02*
X110727500Y-72520000I-237500J0D01*
G01*
G37*
%TD*%
%TO.C,C3*%
G36*
G01*
X112632500Y-72520000D02*
X112157500Y-72520000D01*
G75*
G02*
X111920000Y-72282500I0J237500D01*
G01*
X111920000Y-71707500D01*
G75*
G02*
X112157500Y-71470000I237500J0D01*
G01*
X112632500Y-71470000D01*
G75*
G02*
X112870000Y-71707500I0J-237500D01*
G01*
X112870000Y-72282500D01*
G75*
G02*
X112632500Y-72520000I-237500J0D01*
G01*
G37*
G36*
G01*
X112632500Y-70770000D02*
X112157500Y-70770000D01*
G75*
G02*
X111920000Y-70532500I0J237500D01*
G01*
X111920000Y-69957500D01*
G75*
G02*
X112157500Y-69720000I237500J0D01*
G01*
X112632500Y-69720000D01*
G75*
G02*
X112870000Y-69957500I0J-237500D01*
G01*
X112870000Y-70532500D01*
G75*
G02*
X112632500Y-70770000I-237500J0D01*
G01*
G37*
%TD*%
%TO.C,C4*%
G36*
G01*
X114537500Y-70770000D02*
X114062500Y-70770000D01*
G75*
G02*
X113825000Y-70532500I0J237500D01*
G01*
X113825000Y-69957500D01*
G75*
G02*
X114062500Y-69720000I237500J0D01*
G01*
X114537500Y-69720000D01*
G75*
G02*
X114775000Y-69957500I0J-237500D01*
G01*
X114775000Y-70532500D01*
G75*
G02*
X114537500Y-70770000I-237500J0D01*
G01*
G37*
G36*
G01*
X114537500Y-72520000D02*
X114062500Y-72520000D01*
G75*
G02*
X113825000Y-72282500I0J237500D01*
G01*
X113825000Y-71707500D01*
G75*
G02*
X114062500Y-71470000I237500J0D01*
G01*
X114537500Y-71470000D01*
G75*
G02*
X114775000Y-71707500I0J-237500D01*
G01*
X114775000Y-72282500D01*
G75*
G02*
X114537500Y-72520000I-237500J0D01*
G01*
G37*
%TD*%
%TO.C,C5*%
G36*
G01*
X116442500Y-72520000D02*
X115967500Y-72520000D01*
G75*
G02*
X115730000Y-72282500I0J237500D01*
G01*
X115730000Y-71707500D01*
G75*
G02*
X115967500Y-71470000I237500J0D01*
G01*
X116442500Y-71470000D01*
G75*
G02*
X116680000Y-71707500I0J-237500D01*
G01*
X116680000Y-72282500D01*
G75*
G02*
X116442500Y-72520000I-237500J0D01*
G01*
G37*
G36*
G01*
X116442500Y-70770000D02*
X115967500Y-70770000D01*
G75*
G02*
X115730000Y-70532500I0J237500D01*
G01*
X115730000Y-69957500D01*
G75*
G02*
X115967500Y-69720000I237500J0D01*
G01*
X116442500Y-69720000D01*
G75*
G02*
X116680000Y-69957500I0J-237500D01*
G01*
X116680000Y-70532500D01*
G75*
G02*
X116442500Y-70770000I-237500J0D01*
G01*
G37*
%TD*%
%TO.C,C6*%
G36*
G01*
X108187500Y-64420000D02*
X107712500Y-64420000D01*
G75*
G02*
X107475000Y-64182500I0J237500D01*
G01*
X107475000Y-63607500D01*
G75*
G02*
X107712500Y-63370000I237500J0D01*
G01*
X108187500Y-63370000D01*
G75*
G02*
X108425000Y-63607500I0J-237500D01*
G01*
X108425000Y-64182500D01*
G75*
G02*
X108187500Y-64420000I-237500J0D01*
G01*
G37*
G36*
G01*
X108187500Y-66170000D02*
X107712500Y-66170000D01*
G75*
G02*
X107475000Y-65932500I0J237500D01*
G01*
X107475000Y-65357500D01*
G75*
G02*
X107712500Y-65120000I237500J0D01*
G01*
X108187500Y-65120000D01*
G75*
G02*
X108425000Y-65357500I0J-237500D01*
G01*
X108425000Y-65932500D01*
G75*
G02*
X108187500Y-66170000I-237500J0D01*
G01*
G37*
%TD*%
%TO.C,C7*%
G36*
G01*
X123794000Y-77199500D02*
X123794000Y-76724500D01*
G75*
G02*
X124031500Y-76487000I237500J0D01*
G01*
X124606500Y-76487000D01*
G75*
G02*
X124844000Y-76724500I0J-237500D01*
G01*
X124844000Y-77199500D01*
G75*
G02*
X124606500Y-77437000I-237500J0D01*
G01*
X124031500Y-77437000D01*
G75*
G02*
X123794000Y-77199500I0J237500D01*
G01*
G37*
G36*
G01*
X122044000Y-77199500D02*
X122044000Y-76724500D01*
G75*
G02*
X122281500Y-76487000I237500J0D01*
G01*
X122856500Y-76487000D01*
G75*
G02*
X123094000Y-76724500I0J-237500D01*
G01*
X123094000Y-77199500D01*
G75*
G02*
X122856500Y-77437000I-237500J0D01*
G01*
X122281500Y-77437000D01*
G75*
G02*
X122044000Y-77199500I0J237500D01*
G01*
G37*
%TD*%
%TO.C,C8*%
G36*
G01*
X122044000Y-65515500D02*
X122044000Y-65040500D01*
G75*
G02*
X122281500Y-64803000I237500J0D01*
G01*
X122856500Y-64803000D01*
G75*
G02*
X123094000Y-65040500I0J-237500D01*
G01*
X123094000Y-65515500D01*
G75*
G02*
X122856500Y-65753000I-237500J0D01*
G01*
X122281500Y-65753000D01*
G75*
G02*
X122044000Y-65515500I0J237500D01*
G01*
G37*
G36*
G01*
X123794000Y-65515500D02*
X123794000Y-65040500D01*
G75*
G02*
X124031500Y-64803000I237500J0D01*
G01*
X124606500Y-64803000D01*
G75*
G02*
X124844000Y-65040500I0J-237500D01*
G01*
X124844000Y-65515500D01*
G75*
G02*
X124606500Y-65753000I-237500J0D01*
G01*
X124031500Y-65753000D01*
G75*
G02*
X123794000Y-65515500I0J237500D01*
G01*
G37*
%TD*%
%TO.C,C9*%
G36*
G01*
X108187500Y-78870000D02*
X107712500Y-78870000D01*
G75*
G02*
X107475000Y-78632500I0J237500D01*
G01*
X107475000Y-78057500D01*
G75*
G02*
X107712500Y-77820000I237500J0D01*
G01*
X108187500Y-77820000D01*
G75*
G02*
X108425000Y-78057500I0J-237500D01*
G01*
X108425000Y-78632500D01*
G75*
G02*
X108187500Y-78870000I-237500J0D01*
G01*
G37*
G36*
G01*
X108187500Y-77120000D02*
X107712500Y-77120000D01*
G75*
G02*
X107475000Y-76882500I0J237500D01*
G01*
X107475000Y-76307500D01*
G75*
G02*
X107712500Y-76070000I237500J0D01*
G01*
X108187500Y-76070000D01*
G75*
G02*
X108425000Y-76307500I0J-237500D01*
G01*
X108425000Y-76882500D01*
G75*
G02*
X108187500Y-77120000I-237500J0D01*
G01*
G37*
%TD*%
%TO.C,FB1*%
G36*
G01*
X110140000Y-65802500D02*
X110140000Y-66277500D01*
G75*
G02*
X109902500Y-66515000I-237500J0D01*
G01*
X109327500Y-66515000D01*
G75*
G02*
X109090000Y-66277500I0J237500D01*
G01*
X109090000Y-65802500D01*
G75*
G02*
X109327500Y-65565000I237500J0D01*
G01*
X109902500Y-65565000D01*
G75*
G02*
X110140000Y-65802500I0J-237500D01*
G01*
G37*
G36*
G01*
X111890000Y-65802500D02*
X111890000Y-66277500D01*
G75*
G02*
X111652500Y-66515000I-237500J0D01*
G01*
X111077500Y-66515000D01*
G75*
G02*
X110840000Y-66277500I0J237500D01*
G01*
X110840000Y-65802500D01*
G75*
G02*
X111077500Y-65565000I237500J0D01*
G01*
X111652500Y-65565000D01*
G75*
G02*
X111890000Y-65802500I0J-237500D01*
G01*
G37*
%TD*%
%TO.C,FB2*%
G36*
G01*
X111890000Y-75962500D02*
X111890000Y-76437500D01*
G75*
G02*
X111652500Y-76675000I-237500J0D01*
G01*
X111077500Y-76675000D01*
G75*
G02*
X110840000Y-76437500I0J237500D01*
G01*
X110840000Y-75962500D01*
G75*
G02*
X111077500Y-75725000I237500J0D01*
G01*
X111652500Y-75725000D01*
G75*
G02*
X111890000Y-75962500I0J-237500D01*
G01*
G37*
G36*
G01*
X110140000Y-75962500D02*
X110140000Y-76437500D01*
G75*
G02*
X109902500Y-76675000I-237500J0D01*
G01*
X109327500Y-76675000D01*
G75*
G02*
X109090000Y-76437500I0J237500D01*
G01*
X109090000Y-75962500D01*
G75*
G02*
X109327500Y-75725000I237500J0D01*
G01*
X109902500Y-75725000D01*
G75*
G02*
X110140000Y-75962500I0J-237500D01*
G01*
G37*
%TD*%
D11*
%TO.C,J1*%
X102870000Y-68580000D03*
X102870000Y-68580000D03*
%TD*%
%TO.C,J2*%
X102870000Y-71120000D03*
X102870000Y-71120000D03*
%TD*%
%TO.C,J3*%
X102870000Y-73660000D03*
X102870000Y-73660000D03*
%TD*%
%TO.C,J4*%
X128270000Y-66040000D03*
X128270000Y-66040000D03*
%TD*%
%TO.C,J5*%
X102870000Y-66040000D03*
X102870000Y-66040000D03*
%TD*%
%TO.C,J6*%
X102870000Y-76200000D03*
X102870000Y-76200000D03*
%TD*%
%TO.C,R1*%
G36*
G01*
X124844000Y-74946500D02*
X124844000Y-75421500D01*
G75*
G02*
X124606500Y-75659000I-237500J0D01*
G01*
X124031500Y-75659000D01*
G75*
G02*
X123794000Y-75421500I0J237500D01*
G01*
X123794000Y-74946500D01*
G75*
G02*
X124031500Y-74709000I237500J0D01*
G01*
X124606500Y-74709000D01*
G75*
G02*
X124844000Y-74946500I0J-237500D01*
G01*
G37*
G36*
G01*
X123094000Y-74946500D02*
X123094000Y-75421500D01*
G75*
G02*
X122856500Y-75659000I-237500J0D01*
G01*
X122281500Y-75659000D01*
G75*
G02*
X122044000Y-75421500I0J237500D01*
G01*
X122044000Y-74946500D01*
G75*
G02*
X122281500Y-74709000I237500J0D01*
G01*
X122856500Y-74709000D01*
G75*
G02*
X123094000Y-74946500I0J-237500D01*
G01*
G37*
%TD*%
%TO.C,R2*%
G36*
G01*
X123094000Y-66818500D02*
X123094000Y-67293500D01*
G75*
G02*
X122856500Y-67531000I-237500J0D01*
G01*
X122281500Y-67531000D01*
G75*
G02*
X122044000Y-67293500I0J237500D01*
G01*
X122044000Y-66818500D01*
G75*
G02*
X122281500Y-66581000I237500J0D01*
G01*
X122856500Y-66581000D01*
G75*
G02*
X123094000Y-66818500I0J-237500D01*
G01*
G37*
G36*
G01*
X124844000Y-66818500D02*
X124844000Y-67293500D01*
G75*
G02*
X124606500Y-67531000I-237500J0D01*
G01*
X124031500Y-67531000D01*
G75*
G02*
X123794000Y-67293500I0J237500D01*
G01*
X123794000Y-66818500D01*
G75*
G02*
X124031500Y-66581000I237500J0D01*
G01*
X124606500Y-66581000D01*
G75*
G02*
X124844000Y-66818500I0J-237500D01*
G01*
G37*
%TD*%
%TO.C,U1*%
G36*
G01*
X124862000Y-72875000D02*
X124862000Y-73175000D01*
G75*
G02*
X124712000Y-73325000I-150000J0D01*
G01*
X123362000Y-73325000D01*
G75*
G02*
X123212000Y-73175000I0J150000D01*
G01*
X123212000Y-72875000D01*
G75*
G02*
X123362000Y-72725000I150000J0D01*
G01*
X124712000Y-72725000D01*
G75*
G02*
X124862000Y-72875000I0J-150000D01*
G01*
G37*
G36*
G01*
X124862000Y-71605000D02*
X124862000Y-71905000D01*
G75*
G02*
X124712000Y-72055000I-150000J0D01*
G01*
X123362000Y-72055000D01*
G75*
G02*
X123212000Y-71905000I0J150000D01*
G01*
X123212000Y-71605000D01*
G75*
G02*
X123362000Y-71455000I150000J0D01*
G01*
X124712000Y-71455000D01*
G75*
G02*
X124862000Y-71605000I0J-150000D01*
G01*
G37*
G36*
G01*
X124862000Y-70335000D02*
X124862000Y-70635000D01*
G75*
G02*
X124712000Y-70785000I-150000J0D01*
G01*
X123362000Y-70785000D01*
G75*
G02*
X123212000Y-70635000I0J150000D01*
G01*
X123212000Y-70335000D01*
G75*
G02*
X123362000Y-70185000I150000J0D01*
G01*
X124712000Y-70185000D01*
G75*
G02*
X124862000Y-70335000I0J-150000D01*
G01*
G37*
G36*
G01*
X124862000Y-69065000D02*
X124862000Y-69365000D01*
G75*
G02*
X124712000Y-69515000I-150000J0D01*
G01*
X123362000Y-69515000D01*
G75*
G02*
X123212000Y-69365000I0J150000D01*
G01*
X123212000Y-69065000D01*
G75*
G02*
X123362000Y-68915000I150000J0D01*
G01*
X124712000Y-68915000D01*
G75*
G02*
X124862000Y-69065000I0J-150000D01*
G01*
G37*
G36*
G01*
X119612000Y-69065000D02*
X119612000Y-69365000D01*
G75*
G02*
X119462000Y-69515000I-150000J0D01*
G01*
X118112000Y-69515000D01*
G75*
G02*
X117962000Y-69365000I0J150000D01*
G01*
X117962000Y-69065000D01*
G75*
G02*
X118112000Y-68915000I150000J0D01*
G01*
X119462000Y-68915000D01*
G75*
G02*
X119612000Y-69065000I0J-150000D01*
G01*
G37*
G36*
G01*
X119612000Y-70335000D02*
X119612000Y-70635000D01*
G75*
G02*
X119462000Y-70785000I-150000J0D01*
G01*
X118112000Y-70785000D01*
G75*
G02*
X117962000Y-70635000I0J150000D01*
G01*
X117962000Y-70335000D01*
G75*
G02*
X118112000Y-70185000I150000J0D01*
G01*
X119462000Y-70185000D01*
G75*
G02*
X119612000Y-70335000I0J-150000D01*
G01*
G37*
G36*
G01*
X119612000Y-71605000D02*
X119612000Y-71905000D01*
G75*
G02*
X119462000Y-72055000I-150000J0D01*
G01*
X118112000Y-72055000D01*
G75*
G02*
X117962000Y-71905000I0J150000D01*
G01*
X117962000Y-71605000D01*
G75*
G02*
X118112000Y-71455000I150000J0D01*
G01*
X119462000Y-71455000D01*
G75*
G02*
X119612000Y-71605000I0J-150000D01*
G01*
G37*
G36*
G01*
X119612000Y-72875000D02*
X119612000Y-73175000D01*
G75*
G02*
X119462000Y-73325000I-150000J0D01*
G01*
X118112000Y-73325000D01*
G75*
G02*
X117962000Y-73175000I0J150000D01*
G01*
X117962000Y-72875000D01*
G75*
G02*
X118112000Y-72725000I150000J0D01*
G01*
X119462000Y-72725000D01*
G75*
G02*
X119612000Y-72875000I0J-150000D01*
G01*
G37*
%TD*%
M02*
