G04 #@! TF.GenerationSoftware,KiCad,Pcbnew,(6.0.8)*
G04 #@! TF.CreationDate,2023-05-27T16:58:21+02:00*
G04 #@! TF.ProjectId,10_Audio_Facile,31305f41-7564-4696-9f5f-466163696c65,rev?*
G04 #@! TF.SameCoordinates,Original*
G04 #@! TF.FileFunction,Legend,Top*
G04 #@! TF.FilePolarity,Positive*
%FSLAX46Y46*%
G04 Gerber Fmt 4.6, Leading zero omitted, Abs format (unit mm)*
G04 Created by KiCad (PCBNEW (6.0.8)) date 2023-05-27 16:58:21*
%MOMM*%
%LPD*%
G01*
G04 APERTURE LIST*
G04 Aperture macros list*
%AMRoundRect*
0 Rectangle with rounded corners*
0 $1 Rounding radius*
0 $2 $3 $4 $5 $6 $7 $8 $9 X,Y pos of 4 corners*
0 Add a 4 corners polygon primitive as box body*
4,1,4,$2,$3,$4,$5,$6,$7,$8,$9,$2,$3,0*
0 Add four circle primitives for the rounded corners*
1,1,$1+$1,$2,$3*
1,1,$1+$1,$4,$5*
1,1,$1+$1,$6,$7*
1,1,$1+$1,$8,$9*
0 Add four rect primitives between the rounded corners*
20,1,$1+$1,$2,$3,$4,$5,0*
20,1,$1+$1,$4,$5,$6,$7,0*
20,1,$1+$1,$6,$7,$8,$9,0*
20,1,$1+$1,$8,$9,$2,$3,0*%
%AMFreePoly0*
4,1,19,2.294749,0.844703,2.473926,0.804652,2.640323,0.727060,2.786177,0.615546,2.904682,0.475314,2.990310,0.312906,3.039066,0.135899,3.048675,-0.047448,3.018688,-0.228582,2.950505,-0.399051,2.847308,-0.550902,2.713909,-0.677050,2.556534,-0.771611,2.382525,-0.830171,2.200000,-0.850000,-0.850000,-0.850000,-0.850000,0.850000,2.200000,0.850000,2.294749,0.844703,2.294749,0.844703,
$1*%
G04 Aperture macros list end*
%ADD10C,0.200000*%
%ADD11C,0.150000*%
%ADD12C,0.300000*%
%ADD13C,0.120000*%
%ADD14RoundRect,0.250000X1.100000X-0.325000X1.100000X0.325000X-1.100000X0.325000X-1.100000X-0.325000X0*%
%ADD15RoundRect,0.225000X0.250000X-0.225000X0.250000X0.225000X-0.250000X0.225000X-0.250000X-0.225000X0*%
%ADD16RoundRect,0.225000X-0.225000X-0.250000X0.225000X-0.250000X0.225000X0.250000X-0.225000X0.250000X0*%
%ADD17RoundRect,0.225000X0.225000X0.250000X-0.225000X0.250000X-0.225000X-0.250000X0.225000X-0.250000X0*%
%ADD18RoundRect,0.218750X0.218750X0.256250X-0.218750X0.256250X-0.218750X-0.256250X0.218750X-0.256250X0*%
%ADD19RoundRect,0.150000X0.675000X0.150000X-0.675000X0.150000X-0.675000X-0.150000X0.675000X-0.150000X0*%
%ADD20FreePoly0,180.000000*%
%ADD21C,1.524000*%
G04 APERTURE END LIST*
D10*
X114376666Y-75203095D02*
X114414761Y-75165000D01*
X114490952Y-75126904D01*
X114681428Y-75126904D01*
X114757619Y-75165000D01*
X114795714Y-75203095D01*
X114833809Y-75279285D01*
X114833809Y-75355476D01*
X114795714Y-75469761D01*
X114338571Y-75926904D01*
X114833809Y-75926904D01*
X115329047Y-75126904D02*
X115405238Y-75126904D01*
X115481428Y-75165000D01*
X115519523Y-75203095D01*
X115557619Y-75279285D01*
X115595714Y-75431666D01*
X115595714Y-75622142D01*
X115557619Y-75774523D01*
X115519523Y-75850714D01*
X115481428Y-75888809D01*
X115405238Y-75926904D01*
X115329047Y-75926904D01*
X115252857Y-75888809D01*
X115214761Y-75850714D01*
X115176666Y-75774523D01*
X115138571Y-75622142D01*
X115138571Y-75431666D01*
X115176666Y-75279285D01*
X115214761Y-75203095D01*
X115252857Y-75165000D01*
X115329047Y-75126904D01*
X115900476Y-75203095D02*
X115938571Y-75165000D01*
X116014761Y-75126904D01*
X116205238Y-75126904D01*
X116281428Y-75165000D01*
X116319523Y-75203095D01*
X116357619Y-75279285D01*
X116357619Y-75355476D01*
X116319523Y-75469761D01*
X115862380Y-75926904D01*
X116357619Y-75926904D01*
X116624285Y-75126904D02*
X117119523Y-75126904D01*
X116852857Y-75431666D01*
X116967142Y-75431666D01*
X117043333Y-75469761D01*
X117081428Y-75507857D01*
X117119523Y-75584047D01*
X117119523Y-75774523D01*
X117081428Y-75850714D01*
X117043333Y-75888809D01*
X116967142Y-75926904D01*
X116738571Y-75926904D01*
X116662380Y-75888809D01*
X116624285Y-75850714D01*
X118033809Y-75088809D02*
X117348095Y-76117380D01*
X118452857Y-75126904D02*
X118529047Y-75126904D01*
X118605238Y-75165000D01*
X118643333Y-75203095D01*
X118681428Y-75279285D01*
X118719523Y-75431666D01*
X118719523Y-75622142D01*
X118681428Y-75774523D01*
X118643333Y-75850714D01*
X118605238Y-75888809D01*
X118529047Y-75926904D01*
X118452857Y-75926904D01*
X118376666Y-75888809D01*
X118338571Y-75850714D01*
X118300476Y-75774523D01*
X118262380Y-75622142D01*
X118262380Y-75431666D01*
X118300476Y-75279285D01*
X118338571Y-75203095D01*
X118376666Y-75165000D01*
X118452857Y-75126904D01*
X119443333Y-75126904D02*
X119062380Y-75126904D01*
X119024285Y-75507857D01*
X119062380Y-75469761D01*
X119138571Y-75431666D01*
X119329047Y-75431666D01*
X119405238Y-75469761D01*
X119443333Y-75507857D01*
X119481428Y-75584047D01*
X119481428Y-75774523D01*
X119443333Y-75850714D01*
X119405238Y-75888809D01*
X119329047Y-75926904D01*
X119138571Y-75926904D01*
X119062380Y-75888809D01*
X119024285Y-75850714D01*
X120395714Y-75088809D02*
X119710000Y-76117380D01*
X120624285Y-75203095D02*
X120662380Y-75165000D01*
X120738571Y-75126904D01*
X120929047Y-75126904D01*
X121005238Y-75165000D01*
X121043333Y-75203095D01*
X121081428Y-75279285D01*
X121081428Y-75355476D01*
X121043333Y-75469761D01*
X120586190Y-75926904D01*
X121081428Y-75926904D01*
X121767142Y-75126904D02*
X121614761Y-75126904D01*
X121538571Y-75165000D01*
X121500476Y-75203095D01*
X121424285Y-75317380D01*
X121386190Y-75469761D01*
X121386190Y-75774523D01*
X121424285Y-75850714D01*
X121462380Y-75888809D01*
X121538571Y-75926904D01*
X121690952Y-75926904D01*
X121767142Y-75888809D01*
X121805238Y-75850714D01*
X121843333Y-75774523D01*
X121843333Y-75584047D01*
X121805238Y-75507857D01*
X121767142Y-75469761D01*
X121690952Y-75431666D01*
X121538571Y-75431666D01*
X121462380Y-75469761D01*
X121424285Y-75507857D01*
X121386190Y-75584047D01*
D11*
X106172142Y-61539380D02*
X106172142Y-60539380D01*
X106648333Y-61539380D02*
X106648333Y-60539380D01*
X107219761Y-61539380D01*
X107219761Y-60539380D01*
X107695952Y-61158428D02*
X108457857Y-61158428D01*
X108076904Y-61539380D02*
X108076904Y-60777476D01*
X105918095Y-73795000D02*
X105822857Y-73747380D01*
X105680000Y-73747380D01*
X105537142Y-73795000D01*
X105441904Y-73890238D01*
X105394285Y-73985476D01*
X105346666Y-74175952D01*
X105346666Y-74318809D01*
X105394285Y-74509285D01*
X105441904Y-74604523D01*
X105537142Y-74699761D01*
X105680000Y-74747380D01*
X105775238Y-74747380D01*
X105918095Y-74699761D01*
X105965714Y-74652142D01*
X105965714Y-74318809D01*
X105775238Y-74318809D01*
X106394285Y-74747380D02*
X106394285Y-73747380D01*
X106965714Y-74747380D01*
X106965714Y-73747380D01*
X107441904Y-74747380D02*
X107441904Y-73747380D01*
X107680000Y-73747380D01*
X107822857Y-73795000D01*
X107918095Y-73890238D01*
X107965714Y-73985476D01*
X108013333Y-74175952D01*
X108013333Y-74318809D01*
X107965714Y-74509285D01*
X107918095Y-74604523D01*
X107822857Y-74699761D01*
X107680000Y-74747380D01*
X107441904Y-74747380D01*
X105981523Y-67778380D02*
X105505333Y-67778380D01*
X105457714Y-68254571D01*
X105505333Y-68206952D01*
X105600571Y-68159333D01*
X105838666Y-68159333D01*
X105933904Y-68206952D01*
X105981523Y-68254571D01*
X106029142Y-68349809D01*
X106029142Y-68587904D01*
X105981523Y-68683142D01*
X105933904Y-68730761D01*
X105838666Y-68778380D01*
X105600571Y-68778380D01*
X105505333Y-68730761D01*
X105457714Y-68683142D01*
X106314857Y-67778380D02*
X106648190Y-68778380D01*
X106981523Y-67778380D01*
X106172142Y-63952380D02*
X106172142Y-62952380D01*
X106648333Y-63952380D02*
X106648333Y-62952380D01*
X107219761Y-63952380D01*
X107219761Y-62952380D01*
X107695952Y-63571428D02*
X108457857Y-63571428D01*
X106069047Y-65492380D02*
X106259523Y-65492380D01*
X106354761Y-65540000D01*
X106450000Y-65635238D01*
X106497619Y-65825714D01*
X106497619Y-66159047D01*
X106450000Y-66349523D01*
X106354761Y-66444761D01*
X106259523Y-66492380D01*
X106069047Y-66492380D01*
X105973809Y-66444761D01*
X105878571Y-66349523D01*
X105830952Y-66159047D01*
X105830952Y-65825714D01*
X105878571Y-65635238D01*
X105973809Y-65540000D01*
X106069047Y-65492380D01*
X106926190Y-65492380D02*
X106926190Y-66301904D01*
X106973809Y-66397142D01*
X107021428Y-66444761D01*
X107116666Y-66492380D01*
X107307142Y-66492380D01*
X107402380Y-66444761D01*
X107450000Y-66397142D01*
X107497619Y-66301904D01*
X107497619Y-65492380D01*
X107830952Y-65492380D02*
X108402380Y-65492380D01*
X108116666Y-66492380D02*
X108116666Y-65492380D01*
X108497619Y-66587619D02*
X109259523Y-66587619D01*
X109497619Y-66492380D02*
X109497619Y-65492380D01*
X109878571Y-65492380D01*
X109973809Y-65540000D01*
X110021428Y-65587619D01*
X110069047Y-65682857D01*
X110069047Y-65825714D01*
X110021428Y-65920952D01*
X109973809Y-65968571D01*
X109878571Y-66016190D01*
X109497619Y-66016190D01*
D12*
X108510428Y-62734000D02*
X109224714Y-62734000D01*
X108367571Y-63162571D02*
X108867571Y-61662571D01*
X109367571Y-63162571D01*
X110510428Y-62162571D02*
X110510428Y-63162571D01*
X109867571Y-62162571D02*
X109867571Y-62948285D01*
X109939000Y-63091142D01*
X110081857Y-63162571D01*
X110296142Y-63162571D01*
X110439000Y-63091142D01*
X110510428Y-63019714D01*
X111867571Y-63162571D02*
X111867571Y-61662571D01*
X111867571Y-63091142D02*
X111724714Y-63162571D01*
X111439000Y-63162571D01*
X111296142Y-63091142D01*
X111224714Y-63019714D01*
X111153285Y-62876857D01*
X111153285Y-62448285D01*
X111224714Y-62305428D01*
X111296142Y-62234000D01*
X111439000Y-62162571D01*
X111724714Y-62162571D01*
X111867571Y-62234000D01*
X112581857Y-63162571D02*
X112581857Y-62162571D01*
X112581857Y-61662571D02*
X112510428Y-61734000D01*
X112581857Y-61805428D01*
X112653285Y-61734000D01*
X112581857Y-61662571D01*
X112581857Y-61805428D01*
X113510428Y-63162571D02*
X113367571Y-63091142D01*
X113296142Y-63019714D01*
X113224714Y-62876857D01*
X113224714Y-62448285D01*
X113296142Y-62305428D01*
X113367571Y-62234000D01*
X113510428Y-62162571D01*
X113724714Y-62162571D01*
X113867571Y-62234000D01*
X113939000Y-62305428D01*
X114010428Y-62448285D01*
X114010428Y-62876857D01*
X113939000Y-63019714D01*
X113867571Y-63091142D01*
X113724714Y-63162571D01*
X113510428Y-63162571D01*
X114296142Y-63305428D02*
X115439000Y-63305428D01*
X116296142Y-62376857D02*
X115796142Y-62376857D01*
X115796142Y-63162571D02*
X115796142Y-61662571D01*
X116510428Y-61662571D01*
X117724714Y-63162571D02*
X117724714Y-62376857D01*
X117653285Y-62234000D01*
X117510428Y-62162571D01*
X117224714Y-62162571D01*
X117081857Y-62234000D01*
X117724714Y-63091142D02*
X117581857Y-63162571D01*
X117224714Y-63162571D01*
X117081857Y-63091142D01*
X117010428Y-62948285D01*
X117010428Y-62805428D01*
X117081857Y-62662571D01*
X117224714Y-62591142D01*
X117581857Y-62591142D01*
X117724714Y-62519714D01*
X119081857Y-63091142D02*
X118939000Y-63162571D01*
X118653285Y-63162571D01*
X118510428Y-63091142D01*
X118439000Y-63019714D01*
X118367571Y-62876857D01*
X118367571Y-62448285D01*
X118439000Y-62305428D01*
X118510428Y-62234000D01*
X118653285Y-62162571D01*
X118939000Y-62162571D01*
X119081857Y-62234000D01*
X119724714Y-63162571D02*
X119724714Y-62162571D01*
X119724714Y-61662571D02*
X119653285Y-61734000D01*
X119724714Y-61805428D01*
X119796142Y-61734000D01*
X119724714Y-61662571D01*
X119724714Y-61805428D01*
X120653285Y-63162571D02*
X120510428Y-63091142D01*
X120439000Y-62948285D01*
X120439000Y-61662571D01*
X121796142Y-63091142D02*
X121653285Y-63162571D01*
X121367571Y-63162571D01*
X121224714Y-63091142D01*
X121153285Y-62948285D01*
X121153285Y-62376857D01*
X121224714Y-62234000D01*
X121367571Y-62162571D01*
X121653285Y-62162571D01*
X121796142Y-62234000D01*
X121867571Y-62376857D01*
X121867571Y-62519714D01*
X121153285Y-62662571D01*
D11*
X105791238Y-75779380D02*
X105981714Y-75779380D01*
X106076952Y-75827000D01*
X106172190Y-75922238D01*
X106219809Y-76112714D01*
X106219809Y-76446047D01*
X106172190Y-76636523D01*
X106076952Y-76731761D01*
X105981714Y-76779380D01*
X105791238Y-76779380D01*
X105696000Y-76731761D01*
X105600761Y-76636523D01*
X105553142Y-76446047D01*
X105553142Y-76112714D01*
X105600761Y-75922238D01*
X105696000Y-75827000D01*
X105791238Y-75779380D01*
X106648380Y-75779380D02*
X106648380Y-76588904D01*
X106696000Y-76684142D01*
X106743619Y-76731761D01*
X106838857Y-76779380D01*
X107029333Y-76779380D01*
X107124571Y-76731761D01*
X107172190Y-76684142D01*
X107219809Y-76588904D01*
X107219809Y-75779380D01*
X107553142Y-75779380D02*
X108124571Y-75779380D01*
X107838857Y-76779380D02*
X107838857Y-75779380D01*
X108219809Y-76874619D02*
X108981714Y-76874619D01*
X109219809Y-76779380D02*
X109219809Y-75779380D01*
X109791238Y-76779380D01*
X109791238Y-75779380D01*
X111847333Y-65221142D02*
X111799714Y-65268761D01*
X111656857Y-65316380D01*
X111561619Y-65316380D01*
X111418761Y-65268761D01*
X111323523Y-65173523D01*
X111275904Y-65078285D01*
X111228285Y-64887809D01*
X111228285Y-64744952D01*
X111275904Y-64554476D01*
X111323523Y-64459238D01*
X111418761Y-64364000D01*
X111561619Y-64316380D01*
X111656857Y-64316380D01*
X111799714Y-64364000D01*
X111847333Y-64411619D01*
X112704476Y-64316380D02*
X112514000Y-64316380D01*
X112418761Y-64364000D01*
X112371142Y-64411619D01*
X112275904Y-64554476D01*
X112228285Y-64744952D01*
X112228285Y-65125904D01*
X112275904Y-65221142D01*
X112323523Y-65268761D01*
X112418761Y-65316380D01*
X112609238Y-65316380D01*
X112704476Y-65268761D01*
X112752095Y-65221142D01*
X112799714Y-65125904D01*
X112799714Y-64887809D01*
X112752095Y-64792571D01*
X112704476Y-64744952D01*
X112609238Y-64697333D01*
X112418761Y-64697333D01*
X112323523Y-64744952D01*
X112275904Y-64792571D01*
X112228285Y-64887809D01*
X115403333Y-65127142D02*
X115355714Y-65174761D01*
X115212857Y-65222380D01*
X115117619Y-65222380D01*
X114974761Y-65174761D01*
X114879523Y-65079523D01*
X114831904Y-64984285D01*
X114784285Y-64793809D01*
X114784285Y-64650952D01*
X114831904Y-64460476D01*
X114879523Y-64365238D01*
X114974761Y-64270000D01*
X115117619Y-64222380D01*
X115212857Y-64222380D01*
X115355714Y-64270000D01*
X115403333Y-64317619D01*
X115736666Y-64222380D02*
X116403333Y-64222380D01*
X115974761Y-65222380D01*
X120483333Y-67032142D02*
X120435714Y-67079761D01*
X120292857Y-67127380D01*
X120197619Y-67127380D01*
X120054761Y-67079761D01*
X119959523Y-66984523D01*
X119911904Y-66889285D01*
X119864285Y-66698809D01*
X119864285Y-66555952D01*
X119911904Y-66365476D01*
X119959523Y-66270238D01*
X120054761Y-66175000D01*
X120197619Y-66127380D01*
X120292857Y-66127380D01*
X120435714Y-66175000D01*
X120483333Y-66222619D01*
X121054761Y-66555952D02*
X120959523Y-66508333D01*
X120911904Y-66460714D01*
X120864285Y-66365476D01*
X120864285Y-66317857D01*
X120911904Y-66222619D01*
X120959523Y-66175000D01*
X121054761Y-66127380D01*
X121245238Y-66127380D01*
X121340476Y-66175000D01*
X121388095Y-66222619D01*
X121435714Y-66317857D01*
X121435714Y-66365476D01*
X121388095Y-66460714D01*
X121340476Y-66508333D01*
X121245238Y-66555952D01*
X121054761Y-66555952D01*
X120959523Y-66603571D01*
X120911904Y-66651190D01*
X120864285Y-66746428D01*
X120864285Y-66936904D01*
X120911904Y-67032142D01*
X120959523Y-67079761D01*
X121054761Y-67127380D01*
X121245238Y-67127380D01*
X121340476Y-67079761D01*
X121388095Y-67032142D01*
X121435714Y-66936904D01*
X121435714Y-66746428D01*
X121388095Y-66651190D01*
X121340476Y-66603571D01*
X121245238Y-66555952D01*
X114228666Y-67619571D02*
X113895333Y-67619571D01*
X113895333Y-68143380D02*
X113895333Y-67143380D01*
X114371523Y-67143380D01*
X115085809Y-67619571D02*
X115228666Y-67667190D01*
X115276285Y-67714809D01*
X115323904Y-67810047D01*
X115323904Y-67952904D01*
X115276285Y-68048142D01*
X115228666Y-68095761D01*
X115133428Y-68143380D01*
X114752476Y-68143380D01*
X114752476Y-67143380D01*
X115085809Y-67143380D01*
X115181047Y-67191000D01*
X115228666Y-67238619D01*
X115276285Y-67333857D01*
X115276285Y-67429095D01*
X115228666Y-67524333D01*
X115181047Y-67571952D01*
X115085809Y-67619571D01*
X114752476Y-67619571D01*
X116276285Y-68143380D02*
X115704857Y-68143380D01*
X115990571Y-68143380D02*
X115990571Y-67143380D01*
X115895333Y-67286238D01*
X115800095Y-67381476D01*
X115704857Y-67429095D01*
D13*
X106336000Y-71831252D02*
X106336000Y-70408748D01*
X109056000Y-71831252D02*
X109056000Y-70408748D01*
X110746000Y-71260580D02*
X110746000Y-70979420D01*
X109726000Y-71260580D02*
X109726000Y-70979420D01*
X112422400Y-71260580D02*
X112422400Y-70979420D01*
X111402400Y-71260580D02*
X111402400Y-70979420D01*
X113078800Y-71260580D02*
X113078800Y-70979420D01*
X114098800Y-71260580D02*
X114098800Y-70979420D01*
X111873420Y-65784000D02*
X112154580Y-65784000D01*
X111873420Y-66804000D02*
X112154580Y-66804000D01*
X118250580Y-64260000D02*
X117969420Y-64260000D01*
X118250580Y-65280000D02*
X117969420Y-65280000D01*
X118250580Y-66165000D02*
X117969420Y-66165000D01*
X118250580Y-67185000D02*
X117969420Y-67185000D01*
X112027580Y-76710000D02*
X111746420Y-76710000D01*
X112027580Y-75690000D02*
X111746420Y-75690000D01*
X112176779Y-68455000D02*
X111851221Y-68455000D01*
X112176779Y-67435000D02*
X111851221Y-67435000D01*
X112049779Y-74039000D02*
X111724221Y-74039000D01*
X112049779Y-75059000D02*
X111724221Y-75059000D01*
X118262400Y-68560000D02*
X120212400Y-68560000D01*
X118262400Y-73680000D02*
X116312400Y-73680000D01*
X118262400Y-68560000D02*
X116312400Y-68560000D01*
X118262400Y-73680000D02*
X121712400Y-73680000D01*
%LPC*%
D14*
X107696000Y-72595000D03*
X107696000Y-69645000D03*
D15*
X110236000Y-71895000D03*
X110236000Y-70345000D03*
X111912400Y-71895000D03*
X111912400Y-70345000D03*
X113588800Y-71895000D03*
X113588800Y-70345000D03*
D16*
X111239000Y-66294000D03*
X112789000Y-66294000D03*
D17*
X118885000Y-64770000D03*
X117335000Y-64770000D03*
X118885000Y-66675000D03*
X117335000Y-66675000D03*
X112662000Y-76200000D03*
X111112000Y-76200000D03*
D18*
X112801500Y-67945000D03*
X111226500Y-67945000D03*
X112674500Y-74549000D03*
X111099500Y-74549000D03*
D19*
X120887400Y-73025000D03*
X120887400Y-71755000D03*
X120887400Y-70485000D03*
X120887400Y-69215000D03*
X115637400Y-69215000D03*
X115637400Y-70485000D03*
X115637400Y-71755000D03*
X115637400Y-73025000D03*
D20*
X104140000Y-68580000D03*
D21*
X101600000Y-68580000D03*
X101600000Y-73660000D03*
D20*
X104140000Y-73660000D03*
X104140000Y-71120000D03*
D21*
X101600000Y-71120000D03*
X101600000Y-63500000D03*
D20*
X104140000Y-63500000D03*
D21*
X101600000Y-60960000D03*
D20*
X104140000Y-60960000D03*
D21*
X101600000Y-76200000D03*
D20*
X104140000Y-76200000D03*
X104140000Y-66040000D03*
D21*
X101600000Y-66040000D03*
M02*
