G04 #@! TF.GenerationSoftware,KiCad,Pcbnew,(6.0.8)*
G04 #@! TF.CreationDate,2023-05-27T16:58:21+02:00*
G04 #@! TF.ProjectId,10_Audio_Facile,31305f41-7564-4696-9f5f-466163696c65,rev?*
G04 #@! TF.SameCoordinates,Original*
G04 #@! TF.FileFunction,Legend,Bot*
G04 #@! TF.FilePolarity,Positive*
%FSLAX46Y46*%
G04 Gerber Fmt 4.6, Leading zero omitted, Abs format (unit mm)*
G04 Created by KiCad (PCBNEW (6.0.8)) date 2023-05-27 16:58:21*
%MOMM*%
%LPD*%
G01*
G04 APERTURE LIST*
G04 Aperture macros list*
%AMFreePoly0*
4,1,19,2.294749,0.844703,2.473926,0.804652,2.640323,0.727060,2.786177,0.615546,2.904682,0.475314,2.990310,0.312906,3.039066,0.135899,3.048675,-0.047448,3.018688,-0.228582,2.950505,-0.399051,2.847308,-0.550902,2.713909,-0.677050,2.556534,-0.771611,2.382525,-0.830171,2.200000,-0.850000,-0.850000,-0.850000,-0.850000,0.850000,2.200000,0.850000,2.294749,0.844703,2.294749,0.844703,
$1*%
G04 Aperture macros list end*
%ADD10C,0.150000*%
%ADD11FreePoly0,180.000000*%
%ADD12C,1.524000*%
G04 APERTURE END LIST*
D10*
X109600761Y-75779380D02*
X109410285Y-75779380D01*
X109315047Y-75827000D01*
X109219809Y-75922238D01*
X109172190Y-76112714D01*
X109172190Y-76446047D01*
X109219809Y-76636523D01*
X109315047Y-76731761D01*
X109410285Y-76779380D01*
X109600761Y-76779380D01*
X109696000Y-76731761D01*
X109791238Y-76636523D01*
X109838857Y-76446047D01*
X109838857Y-76112714D01*
X109791238Y-75922238D01*
X109696000Y-75827000D01*
X109600761Y-75779380D01*
X108743619Y-75779380D02*
X108743619Y-76588904D01*
X108696000Y-76684142D01*
X108648380Y-76731761D01*
X108553142Y-76779380D01*
X108362666Y-76779380D01*
X108267428Y-76731761D01*
X108219809Y-76684142D01*
X108172190Y-76588904D01*
X108172190Y-75779380D01*
X107838857Y-75779380D02*
X107267428Y-75779380D01*
X107553142Y-76779380D02*
X107553142Y-75779380D01*
X107172190Y-76874619D02*
X106410285Y-76874619D01*
X106172190Y-76779380D02*
X106172190Y-75779380D01*
X105600761Y-76779380D01*
X105600761Y-75779380D01*
X107251476Y-68159380D02*
X107727666Y-68159380D01*
X107775285Y-68635571D01*
X107727666Y-68587952D01*
X107632428Y-68540333D01*
X107394333Y-68540333D01*
X107299095Y-68587952D01*
X107251476Y-68635571D01*
X107203857Y-68730809D01*
X107203857Y-68968904D01*
X107251476Y-69064142D01*
X107299095Y-69111761D01*
X107394333Y-69159380D01*
X107632428Y-69159380D01*
X107727666Y-69111761D01*
X107775285Y-69064142D01*
X106918142Y-68159380D02*
X106584809Y-69159380D01*
X106251476Y-68159380D01*
X110084952Y-65492380D02*
X109894476Y-65492380D01*
X109799238Y-65540000D01*
X109704000Y-65635238D01*
X109656380Y-65825714D01*
X109656380Y-66159047D01*
X109704000Y-66349523D01*
X109799238Y-66444761D01*
X109894476Y-66492380D01*
X110084952Y-66492380D01*
X110180190Y-66444761D01*
X110275428Y-66349523D01*
X110323047Y-66159047D01*
X110323047Y-65825714D01*
X110275428Y-65635238D01*
X110180190Y-65540000D01*
X110084952Y-65492380D01*
X109227809Y-65492380D02*
X109227809Y-66301904D01*
X109180190Y-66397142D01*
X109132571Y-66444761D01*
X109037333Y-66492380D01*
X108846857Y-66492380D01*
X108751619Y-66444761D01*
X108704000Y-66397142D01*
X108656380Y-66301904D01*
X108656380Y-65492380D01*
X108323047Y-65492380D02*
X107751619Y-65492380D01*
X108037333Y-66492380D02*
X108037333Y-65492380D01*
X107656380Y-66587619D02*
X106894476Y-66587619D01*
X106656380Y-66492380D02*
X106656380Y-65492380D01*
X106275428Y-65492380D01*
X106180190Y-65540000D01*
X106132571Y-65587619D01*
X106084952Y-65682857D01*
X106084952Y-65825714D01*
X106132571Y-65920952D01*
X106180190Y-65968571D01*
X106275428Y-66016190D01*
X106656380Y-66016190D01*
X107822857Y-61412380D02*
X107822857Y-60412380D01*
X107346666Y-61412380D02*
X107346666Y-60412380D01*
X106775238Y-61412380D01*
X106775238Y-60412380D01*
X106299047Y-61031428D02*
X105537142Y-61031428D01*
X105918095Y-61412380D02*
X105918095Y-60650476D01*
X108330904Y-72906000D02*
X108426142Y-72858380D01*
X108569000Y-72858380D01*
X108711857Y-72906000D01*
X108807095Y-73001238D01*
X108854714Y-73096476D01*
X108902333Y-73286952D01*
X108902333Y-73429809D01*
X108854714Y-73620285D01*
X108807095Y-73715523D01*
X108711857Y-73810761D01*
X108569000Y-73858380D01*
X108473761Y-73858380D01*
X108330904Y-73810761D01*
X108283285Y-73763142D01*
X108283285Y-73429809D01*
X108473761Y-73429809D01*
X107854714Y-73858380D02*
X107854714Y-72858380D01*
X107283285Y-73858380D01*
X107283285Y-72858380D01*
X106807095Y-73858380D02*
X106807095Y-72858380D01*
X106569000Y-72858380D01*
X106426142Y-72906000D01*
X106330904Y-73001238D01*
X106283285Y-73096476D01*
X106235666Y-73286952D01*
X106235666Y-73429809D01*
X106283285Y-73620285D01*
X106330904Y-73715523D01*
X106426142Y-73810761D01*
X106569000Y-73858380D01*
X106807095Y-73858380D01*
X107973714Y-71524761D02*
X107830857Y-71572380D01*
X107592761Y-71572380D01*
X107497523Y-71524761D01*
X107449904Y-71477142D01*
X107402285Y-71381904D01*
X107402285Y-71286666D01*
X107449904Y-71191428D01*
X107497523Y-71143809D01*
X107592761Y-71096190D01*
X107783238Y-71048571D01*
X107878476Y-71000952D01*
X107926095Y-70953333D01*
X107973714Y-70858095D01*
X107973714Y-70762857D01*
X107926095Y-70667619D01*
X107878476Y-70620000D01*
X107783238Y-70572380D01*
X107545142Y-70572380D01*
X107402285Y-70620000D01*
X106973714Y-71572380D02*
X106973714Y-70572380D01*
X106735619Y-70572380D01*
X106592761Y-70620000D01*
X106497523Y-70715238D01*
X106449904Y-70810476D01*
X106402285Y-71000952D01*
X106402285Y-71143809D01*
X106449904Y-71334285D01*
X106497523Y-71429523D01*
X106592761Y-71524761D01*
X106735619Y-71572380D01*
X106973714Y-71572380D01*
X107949857Y-63952380D02*
X107949857Y-62952380D01*
X107473666Y-63952380D02*
X107473666Y-62952380D01*
X106902238Y-63952380D01*
X106902238Y-62952380D01*
X106426047Y-63571428D02*
X105664142Y-63571428D01*
%LPC*%
D11*
X104140000Y-68580000D03*
D12*
X101600000Y-68580000D03*
X101600000Y-73660000D03*
D11*
X104140000Y-73660000D03*
X104140000Y-71120000D03*
D12*
X101600000Y-71120000D03*
X101600000Y-63500000D03*
D11*
X104140000Y-63500000D03*
D12*
X101600000Y-60960000D03*
D11*
X104140000Y-60960000D03*
D12*
X101600000Y-76200000D03*
D11*
X104140000Y-76200000D03*
X104140000Y-66040000D03*
D12*
X101600000Y-66040000D03*
M02*
